<svg id="Capa_1" enable-background="new 0 0 509.553 509.553" height="300" viewBox="0 0 509.553 509.553" width="300" xmlns="http://www.w3.org/2000/svg" version="1.1" xmlns:xlink="http://www.w3.org/1999/xlink" xmlns:svgjs="http://svgjs.dev/svgjs"><g width="100%" height="100%" transform="matrix(1,0,0,1,0,0)"><g><path d="m449.776 0h-390v480h135v29.553l60-28 60 28v-29.553h135zm-246.433 292.614c1.243-.517 3.125-1.117 4.496-1.556 12.643-4.041 16.768-7.123 24.328-17.685.844-1.179 2.001-2.795 2.881-3.825 4.706 1.161 11.604 4.451 19.729 4.451 8.081 0 15.038-3.29 19.729-4.451.88 1.031 2.037 2.647 2.881 3.825 7.566 10.569 11.7 13.65 24.328 17.685 1.372.439 3.253 1.04 4.496 1.556.378 4.812-.644 12.413 1.844 20.07 2.502 7.709 8.066 13.356 10.392 17.315-.692 1.179-1.974 2.914-2.893 4.161-7.611 10.314-9.289 15.164-9.248 28.527.004 1.421.01 3.366-.094 4.697-4.42 1.837-12.029 3.204-18.527 7.933-6.464 4.703-10.08 11.506-13.178 15.133-1.274-.315-3.06-.901-4.368-1.331-12.702-4.169-18.02-4.172-30.72 0-1.309.43-3.095 1.016-4.369 1.331-3.133-3.672-6.723-10.435-13.177-15.132-6.501-4.729-14.111-6.102-18.528-7.934-.378-4.812.644-12.413-1.844-20.07-2.502-7.709-8.066-13.356-10.392-17.315 2.334-3.975 7.891-9.611 10.392-17.315 2.48-7.645 1.471-15.292 1.842-20.07zm51.433 155.833-30 14v-43.371c8.339 3.067 15.73 1.262 24-1.454 1.968-.646 4.941-1.622 6-1.622 4.445 0 16.773 7.951 30 3.076v43.371zm165 1.553h-105v-53.789c5.411-1.922 11.605-4.846 16.043-10.943 7.922-10.885 4.562-24.748 5.753-28.645 1.481-3.85 12.204-13.017 12.204-26.623 0-13.594-10.742-22.825-12.188-26.577-1.237-4.025 2.159-17.796-5.768-28.69-7.938-10.907-22.087-11.987-25.466-14.295-3.214-2.535-8.69-15.691-21.525-19.857-12.812-4.161-24.842 3.419-29.053 3.419-4.203 0-16.248-7.572-29.051-3.42-12.887 4.185-18.295 17.301-21.497 19.837-3.439 2.353-17.552 3.4-25.495 14.315-7.922 10.885-4.563 24.748-5.753 28.645-1.48 3.85-12.204 13.017-12.204 26.623 0 13.594 10.742 22.825 12.188 26.577 1.236 4.025-2.159 17.796 5.768 28.69 4.438 6.099 10.632 9.021 16.044 10.942v53.791h-105v-420h330z" fill="#1764f4" fill-opacity="1" data-original-color="#000000ff" stroke="none" stroke-opacity="1"/><path d="m239.776 315h30v30h-30z" fill="#1764f4" fill-opacity="1" data-original-color="#000000ff" stroke="none" stroke-opacity="1"/><path d="m179.776 60h150v30h-150z" fill="#1764f4" fill-opacity="1" data-original-color="#000000ff" stroke="none" stroke-opacity="1"/><path d="m119.776 120h270v30h-270z" fill="#1764f4" fill-opacity="1" data-original-color="#000000ff" stroke="none" stroke-opacity="1"/><path d="m119.776 180h270v30h-270z" fill="#1764f4" fill-opacity="1" data-original-color="#000000ff" stroke="none" stroke-opacity="1"/></g></g></svg>