<?xml version="1.0" encoding="utf-8"?>
<!-- Generator: Adobe Illustrator 27.5.0, SVG Export Plug-In . SVG Version: 6.00 Build 0)  -->
<svg version="1.1" id="Layer_1" xmlns="http://www.w3.org/2000/svg" xmlns:xlink="http://www.w3.org/1999/xlink" x="0px" y="0px"
	 viewBox="0 0 3000 2999" style="enable-background:new 0 0 3000 2999;" xml:space="preserve">
<path style="fill:#FEFEFE;" d="M0,0h3000.002v3000.002H0V0z"/>
<path style="fill:#016EAB;" d="M1816.191,211.505c11.066,2.655,22.095,5.459,33.085,8.411c10.99,2.952,21.94,6.052,32.848,9.299
	c10.906,3.247,21.768,6.641,32.584,10.181c10.817,3.54,21.582,7.225,32.297,11.056c10.717,3.83,21.38,7.804,31.989,11.922
	c10.609,4.118,21.161,8.377,31.656,12.779c10.494,4.402,20.928,8.944,31.301,13.628c10.371,4.683,20.678,9.506,30.92,14.467
	c10.242,4.961,20.416,10.059,30.521,15.293c10.104,5.236,20.136,10.607,30.097,16.113c9.959,5.504,19.843,11.143,29.651,16.916
	c9.809,5.772,19.537,11.674,29.186,17.707c9.648,6.035,19.214,12.198,28.696,18.489c9.484,6.293,18.881,12.712,28.189,19.257
	c9.311,6.545,18.531,13.215,27.659,20.01c9.131,6.793,18.168,13.708,27.111,20.745c20.391,16.017,42.733,31.775,61.468,49.641
	c-19.345-1.099-27.917-6.305-50.689-5.203c-12.475,10.022-22.67,22.884-33.173,34.907c-19.345-17.792-40.254-34.266-60.012-51.671
	c-12.867-5.455-26.985-17.83-38.751-25.708c-10.532-7.049-21.651-13.201-31.969-20.552c-11.303-0.548-22.104-0.683-33.293,1.266
	c-32.646,14.783-39.7,35.107-61.608,59.997c-8.107,9.211-17.47,16.304-27.428,23.37c-4.901-19.523-13.887-37.351-23.326-55.002
	c-13.682-26.023-29.064-50.999-46.148-74.927c-16.904-23.496-35.411-45.932-51.727-69.832c-4.465-4.119-8.479-8.481-12.525-13.008
	c-13.796-21.574-35.953-42.914-54.223-60.697c-7.061-6.871-15.738-13.84-21.826-21.554
	C1816.991,216.573,1816.642,214.233,1816.191,211.505z"/>
<path style="fill:#A09328;" d="M2150.855,429.191c38.912-0.601,92.983,8.461,122.648,36.056c3.606,3.355,5.464,5.915,6.12,10.805
	l-1.11,1.588c-17.962-0.158-40.383-11.458-56.939-2.189c-12.867-5.455-26.985-17.83-38.751-25.708
	C2172.292,442.694,2161.174,436.541,2150.855,429.191z"/>
<path style="fill:#0195D0;" d="M1907.325,314.063c35.232,12.401,91.491,44.039,123.694,64.556
	c27.879,17.763,56.47,37.989,86.543,51.838c-32.646,14.783-39.7,35.107-61.608,59.997c-8.107,9.211-17.47,16.304-27.428,23.37
	c-4.901-19.523-13.887-37.351-23.326-55.002c-13.682-26.023-29.064-50.999-46.148-74.927
	C1942.147,360.399,1923.64,337.963,1907.325,314.063z"/>
<path style="fill:#A09328;" d="M2314.76,492.214c22.772-1.102,31.345,4.104,50.689,5.203
	c97.146,78.401,183.179,181.257,249.988,286.272c9.979,15.686,23.933,34.078,30.87,51.278c-5.646,1.966-7.96,2.909-10.796,8.581
	c-5.036,10.078-7.591,21.776-11.109,32.484c-7.096,21.267-14.042,42.584-20.839,63.949c-4.157,13.184-7.629,26.977-13.081,39.683
	c-14.391-8.092-31.503-15.838-42.255-28.667l-1.383-1.588c-2.795-24.305-17.93-56.804-27.577-79.611
	c-5.684-13.34-11.648-26.555-17.894-39.645c-6.244-13.088-12.763-26.037-19.556-38.848c-6.793-12.813-13.854-25.475-21.185-37.986
	c-7.328-12.514-14.919-24.866-22.772-37.058c-7.854-12.19-15.961-24.208-24.322-36.056c-8.363-11.848-16.973-23.513-25.831-34.995
	c-8.856-11.482-17.951-22.772-27.287-33.87c-9.334-11.098-18.9-21.992-28.697-32.684c-16.04-17.804-33.773-34.031-50.135-51.536
	C2292.09,515.098,2302.285,502.237,2314.76,492.214z"/>
<path style="fill:#0195D0;" d="M372.821,804.49c2.344-1.688,4.641-3.56,7.213-4.878c-0.085,21.577-22.169,68.643-31.485,89.605
	c37.764-18.384,74.174-36.255,114.097-49.696c-52.708,102.686-92.086,183.065-119.537,296.866
	c-7.45,30.885-14.473,63.375-16.688,95.127l-2.499,7.061c3.401,21.012-2.405,88.755-7.708,110.212l1.617,3.231
	c11.807,15.223,24.674,22.942,41.704,31.219c42.401,17.013,53.47,17.505,84.202,53.455c8.88,7.26,17.815,13.462,28.195,18.451
	c21.601,9.152,36.993,15.536,52.465,34.055c21.366,21.56,40.151,53.08,68.628,65.669c10.468,2.874,20.918,5.309,31.55,7.485
	c13.228,5.81,19.128,14.769,24.188,28.072c0.445,1.175,0.829,2.373,1.222,3.565c3.381,38.429-12.604,66.398-25.57,101.206
	c-40.14,107.748,34.878,192.106,111.797,256.717c54.92,46.137,100.667,75.46,108.091,154.225
	c3.844,40.787-2.71,82.216-5.622,122.851c-3.445,48.017,1.758,94.052,13.503,140.596c2.06,6.873,5.564,15.287,6.381,22.313
	c2.563,9.006,4.934,18.097,8.326,26.833c-11.596,4.055-34.512-0.548-47.209-1.641c-96.111-8.276-205.245-44.733-293.657-82.198
	c-29.054-12.31-56.713-28.872-86.189-39.967l-1.688-0.618c-9.85-7.263-59.777-84.756-69.097-100.026
	c-5.656-9.309-11.196-18.686-16.62-28.131c-5.426-9.443-10.734-18.953-15.926-28.529c-5.193-9.574-10.268-19.211-15.223-28.91
	c-4.955-9.699-9.79-19.458-14.505-29.276c-4.715-9.818-9.309-19.694-13.781-29.625c-4.473-9.932-8.824-19.916-13.052-29.953
	c-4.227-10.039-8.331-20.128-12.311-30.267s-7.835-20.324-11.564-30.557c-3.73-10.234-7.333-20.513-10.811-30.835
	c-3.477-10.322-6.827-20.685-10.05-31.09c-3.223-10.404-6.317-20.846-9.284-31.324c-2.966-10.48-5.804-20.996-8.512-31.547
	c-2.708-10.551-5.286-21.132-7.734-31.743c-2.448-10.613-4.766-21.256-6.952-31.928c-2.187-10.67-4.242-21.365-6.166-32.086
	c-1.924-10.721-3.716-21.463-5.376-32.227c-1.66-10.766-3.188-21.549-4.584-32.35c-1.396-10.803-2.658-21.621-3.788-32.455
	c-1.13-10.832-2.126-21.677-2.99-32.534c-0.863-10.859-1.593-21.727-2.19-32.602c-0.596-10.875-1.059-21.756-1.389-32.642
	s-0.525-21.776-0.587-32.669c-0.062-10.893,0.01-21.783,0.216-32.672c0.206-10.891,0.545-21.776,1.018-32.657
	c0.473-10.883,1.08-21.758,1.82-32.625c0.74-10.865,1.614-21.721,2.62-32.566c1.007-10.846,2.146-21.678,3.419-32.496
	c1.273-10.816,2.678-21.616,4.216-32.399c1.538-10.783,3.208-21.545,5.01-32.285c1.802-10.742,3.736-21.461,5.802-32.156
	c2.066-10.693,4.262-21.36,6.59-32.001c2.327-10.641,4.785-21.251,7.373-31.831C236.889,1064.137,304.726,909.37,372.821,804.49z"/>
<path style="fill:#99DC30;" d="M323.921,1238.573c3.401,21.012-2.405,88.755-7.708,110.212c-1.523-2.85-2.922-5.759-4.195-8.728
	c-1.275-2.969-2.42-5.986-3.434-9.053c-1.016-3.067-1.897-6.171-2.646-9.313c-0.75-3.143-1.363-6.312-1.84-9.507
	C299.373,1280.157,304.784,1264.346,323.921,1238.573z"/>
<path style="fill:#99DC30;" d="M372.821,804.49c2.344-1.688,4.641-3.56,7.213-4.878c-0.085,21.577-22.169,68.643-31.485,89.605
	c37.764-18.384,74.174-36.255,114.097-49.696c-52.708,102.686-92.086,183.065-119.537,296.866
	c-7.45,30.885-14.473,63.375-16.688,95.127c-14.168-5.575-27.243-7.57-40.14-16.755c-26.76-19.055-26.41-39.732-20.991-69.094
	c1.03-5.584,2.596-12.293,1.184-17.886c-0.568-2.25-1.655-2.253-3.489-3.34c-2.672,0.914-3.363,0.814-5.325,3.058
	c-18.179,20.783-20.08,92.854-11.066,118.406c5.386,15.269,23.051,28.052,22.971,44.602c-0.018,3.618-0.373,5.388-2.95,7.89
	c-6.639-0.349-14.04-5.171-19.3-9.044c-30.96-22.781-28.544-67.11-33.36-100.638l-0.214-1.403
	C236.889,1064.137,304.726,909.37,372.821,804.49z"/>
<path style="fill:#00B3EE;" d="M317.83,1352.017c11.807,15.223,24.674,22.942,41.704,31.219
	c42.401,17.013,53.47,17.505,84.202,53.455c8.88,7.26,17.815,13.462,28.195,18.451c21.601,9.152,36.993,15.536,52.465,34.055
	c21.366,21.56,40.151,53.08,68.628,65.669c10.468,2.874,20.918,5.309,31.55,7.485c13.228,5.81,19.128,14.769,24.188,28.072
	c0.445,1.175,0.829,2.373,1.222,3.565c3.381,38.429-12.604,66.398-25.57,101.206c-40.14,107.748,34.878,192.106,111.797,256.717
	c54.92,46.137,100.667,75.46,108.091,154.225c3.844,40.787-2.71,82.216-5.622,122.851c-3.445,48.017,1.758,94.052,13.503,140.596
	c-3.598,2.253-4.397,3.413-8.766,2.221c-14.423-3.94-50.508-31.682-65.628-41.628c-164.526-108.194-305.795-281.529-382.031-462.885
	c-12.082-28.74-24.188-58.134-33.712-87.823c-34.418-107.282-59.769-254.643-51.97-367.064
	C311.362,1393.856,310.779,1369.255,317.83,1352.017z"/>
<path style="fill:#0195D0;" d="M471.932,1455.142c21.601,9.152,36.993,15.536,52.465,34.055c-12.346-2.042-23.587-6.718-34.14-13.45
	C482.042,1470.502,474.041,1465.106,471.932,1455.142z"/>
<path style="fill:#0195D0;" d="M593.025,1554.865c10.468,2.874,20.918,5.309,31.55,7.485c13.228,5.81,19.128,14.769,24.188,28.072
	c0.445,1.175,0.829,2.373,1.222,3.565C632.456,1587.83,601.667,1571.74,593.025,1554.865z"/>
<path style="fill:#0195D0;" d="M359.534,1383.235c42.401,17.013,53.47,17.505,84.202,53.455
	c-17.443-0.413-63.999-26.634-77.045-38.64C361.169,1392.968,359.842,1390.522,359.534,1383.235z"/>
<path style="fill:#016EAB;" d="M2590.481,979.665c5.452-12.706,8.924-26.499,13.081-39.683
	c6.797-21.365,13.743-42.682,20.839-63.949c3.518-10.708,6.073-22.406,11.109-32.484c2.836-5.672,5.15-6.615,10.796-8.581
	c9.428,16.139,18.508,32.47,27.24,48.993c8.73,16.526,17.106,33.229,25.128,50.109c8.021,16.883,15.68,33.928,22.975,51.135
	c7.295,17.207,14.22,34.562,20.775,52.064c6.557,17.504,12.737,35.139,18.542,52.904c5.805,17.766,11.229,35.646,16.274,53.643
	c5.043,17.996,9.701,36.092,13.975,54.287c4.274,18.195,8.157,36.473,11.651,54.832c2.066,10.672,4,21.367,5.801,32.086
	c1.801,10.719,3.467,21.459,4.998,32.221c1.531,10.762,2.929,21.54,4.193,32.335c1.263,10.797,2.391,21.608,3.384,32.432
	c0.994,10.822,1.853,21.656,2.575,32.502s1.311,21.699,1.764,32.561c0.451,10.859,0.768,21.723,0.949,32.59
	c0.182,10.869,0.227,21.738,0.138,32.608c-0.092,10.869-0.317,21.735-0.677,32.599c-0.361,10.863-0.858,21.721-1.491,32.572
	c-0.633,10.851-1.4,21.693-2.302,32.525c-0.903,10.832-1.941,21.65-3.115,32.455c-1.172,10.807-2.479,21.597-3.92,32.37
	c-1.441,10.773-3.018,21.527-4.729,32.262c-1.711,10.734-3.554,21.445-5.531,32.133c-1.979,10.688-4.089,21.349-6.331,31.986
	c-2.244,10.635-4.62,21.24-7.128,31.816c-2.51,10.576-5.149,21.119-7.919,31.629c-2.771,10.512-5.674,20.986-8.707,31.424
	c-3.033,10.438-6.196,20.836-9.487,31.195c-3.293,10.359-6.714,20.676-10.263,30.949c-3.551,10.273-7.228,20.501-11.033,30.683
	c-3.805,10.182-7.735,20.314-11.792,30.398c-4.059,10.084-8.241,20.115-12.548,30.094c-4.308,9.98-8.74,19.905-13.295,29.775
	c-4.557,9.867-9.235,19.677-14.036,29.429c-4.799,9.754-9.72,19.445-14.763,29.074c-5.043,9.629-10.204,19.193-15.483,28.693
	c-5.281,9.5-10.68,18.934-16.195,28.301c-5.518,9.365-11.151,18.66-16.898,27.885c-5.748,9.227-11.61,18.379-17.587,27.457
	c-5.977,9.078-12.065,18.081-18.267,27.009c-6.209,8.92-12.524,17.763-18.946,26.528c-6.424,8.766-12.953,17.451-19.588,26.057
	c-6.635,8.607-13.373,17.133-20.215,25.576c-6.84,8.443-13.782,16.803-20.827,25.078c-7.045,8.273-14.189,16.46-21.434,24.56
	c-7.244,8.102-14.586,16.113-22.025,24.035c-7.438,7.922-14.971,15.753-22.6,23.493c-7.629,7.738-15.352,15.383-23.168,22.934
	c-7.815,7.552-15.72,15.009-23.716,22.368c-7.996,7.357-16.08,14.618-24.252,21.782c-8.174,7.162-16.433,14.224-24.776,21.185
	c-8.344,6.963-16.771,13.822-25.283,20.578c-8.512,6.758-17.104,13.41-25.776,19.957c-8.674,6.549-17.425,12.991-26.253,19.327
	c-8.83,6.334-17.735,12.561-26.716,18.68c-8.98,6.119-18.034,12.128-27.161,18.026c-9.127,5.898-18.324,11.685-27.592,17.361
	c-9.268,5.676-18.603,11.237-28.005,16.685c-9.403,5.449-18.87,10.782-28.404,15.999c-9.533,5.219-19.128,10.32-28.784,15.305
	c-9.656,4.984-19.372,9.852-29.147,14.602c-9.774,4.748-19.604,9.377-29.49,13.887c-9.889,4.51-19.83,8.898-29.824,13.166
	s-20.038,8.413-30.132,12.437c-10.096,4.023-20.238,7.924-30.428,11.701c-10.19,3.777-20.423,7.43-30.7,10.96
	c-10.279,3.528-20.599,6.93-30.961,10.207c-10.361,3.277-20.761,6.429-31.198,9.454c-10.438,3.025-20.91,5.923-31.418,8.692
	s-21.048,5.411-31.62,7.925c-10.572,2.514-21.174,4.899-31.805,7.154c-10.631,2.256-21.287,4.383-31.969,6.381
	c-9.316,1.729-18.65,3.355-27.999,4.881c-9.352,1.527-18.718,2.955-28.099,4.283c-9.381,1.326-18.776,2.551-28.184,3.674
	c-9.408,1.125-18.827,2.149-28.257,3.073c-9.43,0.922-18.868,1.742-28.315,2.461c-9.448,0.721-18.901,1.34-28.359,1.857
	c-9.461,0.516-18.927,0.931-28.398,1.245c-9.469,0.315-18.94,0.527-28.415,0.636c-9.473,0.112-18.946,0.12-28.421,0.027
	c-9.475-0.092-18.946-0.286-28.415-0.583c-9.471-0.297-18.937-0.695-28.398-1.195c-9.463-0.498-18.918-1.099-28.365-1.802
	c-9.449-0.703-18.89-1.507-28.321-2.411s-18.852-1.91-28.26-3.018c-9.41-1.107-18.808-2.316-28.193-3.627
	c-9.383-1.309-18.751-2.718-28.104-4.228c-9.354-1.51-18.689-3.12-28.008-4.831c-9.32-1.711-18.62-3.521-27.899-5.432
	c-9.279-1.91-18.538-3.92-27.776-6.029c-9.236-2.107-18.449-4.314-27.639-6.621c-9.189-2.306-18.354-4.712-27.492-7.216
	c-9.137-2.504-18.246-5.105-27.328-7.805c-9.082-2.699-18.135-5.495-27.158-8.388c-9.021-2.893-18.011-5.882-26.968-8.968
	c-8.959-3.088-17.883-6.271-26.772-9.548c-8.891-3.277-17.744-6.65-26.56-10.119c-8.818-3.467-17.598-7.028-26.338-10.685
	c-8.74-3.656-17.44-7.406-26.101-11.25c-8.66-3.844-17.278-7.779-25.854-11.807c-8.576-4.027-17.107-8.146-25.594-12.357
	c-8.488-4.213-16.93-8.515-25.324-12.905c-8.395-4.393-16.741-8.875-25.04-13.447c-50.449-27.621-98.651-60.665-146.057-93.17
	c-83.107-56.982-166.181-138.911-231.513-215.786c-14.61-17.194-30.639-34.705-42.888-53.666l1.688,0.618
	c29.475,11.095,57.135,27.656,86.189,39.967c88.412,37.465,197.546,73.922,293.657,82.198c12.697,1.093,35.613,5.695,47.209,1.641
	l1.453,2.604c16.588,0.021,33.897-1.014,50.364-2.968l2.191-0.044c34.541,20.426,70.342,38.331,107.402,53.716
	c9.662-12.63,23.13-22.365,33.735-34.327c-0.999-13.688-3.888-26.927-2.663-40.731c8.719-6.378,18.624-9.97,28.796-13.28
	c30.097,7.043,104.977-27.103,140.358-30.492c-9.419,11.728-20.593,22.037-30.647,33.226
	c-17.057,18.976-34.134,43.553-43.685,67.295c-8.165,20.3-11.681,41.698-20.669,61.963c23.885,7.557,48.026,14.184,72.422,19.881
	c24.395,5.697,48.973,10.448,73.734,14.253c7.996,1.244,16.004,2.4,24.023,3.466c8.021,1.067,16.054,2.045,24.097,2.936
	c8.043,0.889,16.094,1.689,24.152,2.403c8.061,0.711,16.128,1.333,24.202,1.866c8.074,0.533,16.153,0.978,24.237,1.333
	c8.084,0.354,16.171,0.619,24.261,0.797c8.09,0.176,16.18,0.263,24.27,0.26c8.092-0.004,16.183-0.095,24.272-0.275
	c8.09-0.182,16.177-0.453,24.261-0.814c8.084-0.359,16.162-0.807,24.234-1.344c8.074-0.539,16.142-1.167,24.202-1.884
	c8.059-0.717,16.109-1.523,24.153-2.417c8.041-0.895,16.072-1.878,24.094-2.95c8.02-1.07,16.026-2.23,24.021-3.481
	c7.994-1.248,15.975-2.585,23.942-4.01c7.965-1.426,15.913-2.939,23.845-4.538c7.932-1.602,15.845-3.29,23.739-5.066
	c7.895-1.775,15.768-3.637,23.619-5.587c7.854-1.949,15.685-3.985,23.493-6.109c7.809-2.121,15.593-4.329,23.352-6.624
	c7.76-2.295,15.492-4.675,23.197-7.14c7.707-2.465,15.386-5.016,23.036-7.652c7.652-2.635,15.273-5.354,22.863-8.156
	c7.59-2.803,15.148-5.689,22.676-8.66c7.527-2.971,15.021-6.023,22.48-9.158c7.459-3.137,14.883-6.354,22.271-9.653
	c7.387-3.301,14.737-6.682,22.052-10.142c7.313-3.463,14.587-7.006,21.823-10.629c7.234-3.623,14.429-7.325,21.583-11.107
	c7.152-3.783,14.263-7.644,21.331-11.581c7.068-3.939,14.092-7.956,21.07-12.05c6.98-4.094,13.914-8.265,20.801-12.513
	c38.031-23.615,74.69-49.197,109.978-76.743c18.299-14.435,35.244-31.257,54.158-44.786l1.149-0.809
	c-29.452-59.209-75.334-188.637-70.743-252.984c1.491-20.857,7.849-40.371,14.171-60.156
	c18.264-57.173,33.158-107.915,12.943-167.08c14.517-18.773,25.567-41.206,37.23-61.875c30.51-61.037,59.092-122.191,79.984-187.236
	c28.02-79.989,46.72-161.03,59.725-244.729c5.156-58.77,6.797-116.382,6.899-175.31l-0.419-0.817
	c0.938-29.508-1.866-60.217-2.71-89.839l-0.202-22.362l-0.601-0.513c-2.247-29.32-5.628-101.616,11.089-123.999
	c6.97-9.328,17.198-14.443,28.623-15.908c53.449-6.855,139.242,42.507,180.235,75.214l1.383,1.588
	C2558.979,963.827,2576.091,971.573,2590.481,979.665z"/>
<path style="fill:#6AB30E;" d="M2642.044,1899.116c0.653,0.188,1.324,0.328,1.96,0.565c4.245,1.591,6.964,4.726,8.897,8.704
	c13.646,28.061-6.858,87.234-17.244,115.562c-14.288,38.959-41.988,113.089-80.813,131.168c-5.353-2.08-10.336-5.077-13.482-10.025
	c-7.805-12.284,9.29-60.574,11.816-75.545c3.278-19.412,3.718-39.003,7.632-58.397c5.792-28.714,37.14-41.482,53.147-63.958
	C2624.982,1931.709,2628.462,1913.257,2642.044,1899.116z"/>
<path style="fill:#6AB30E;" d="M918.707,2418.365l2.191-0.044c34.541,20.426,70.342,38.331,107.402,53.716
	c-0.604,1.219-0.747,1.447-1.283,2.906c-3.624,9.841-5.569,20.493-3.835,30.931c4.087,24.627,18.22,47.962,27.829,70.743
	c7.899,18.729,14.581,38.549,23.918,56.587c4.223,8.197,9.233,15.88,15.032,23.048c4.011,4.983,8.482,10.55,13.444,14.575
	c6.644,5.388,21.923,11.291,25.339,18.882c-1.037,0.826-1.439,1.233-2.795,1.805c-12.073,5.083-31.802-1.898-43.406-6.668
	c-30.574-12.571-72.982-38.713-96.261-61.983c-20.657-20.651-34.556-46.441-49.441-71.256
	c-14.142-23.575-29.563-47.01-42.229-71.382c-9.908-19.066-18.102-39.038-26.271-58.893
	C884.93,2421.354,902.239,2420.319,918.707,2418.365z"/>
<path style="fill:#6AB30E;" d="M2590.481,979.665c5.452-12.706,8.924-26.499,13.081-39.683
	c6.797-21.365,13.743-42.682,20.839-63.949c3.518-10.708,6.073-22.406,11.109-32.484c2.836-5.672,5.15-6.615,10.796-8.581
	c9.428,16.139,18.508,32.47,27.24,48.993c8.73,16.526,17.106,33.229,25.128,50.109c8.021,16.883,15.68,33.928,22.975,51.135
	c7.295,17.207,14.22,34.562,20.775,52.064c6.557,17.504,12.737,35.139,18.542,52.904c5.805,17.766,11.229,35.646,16.274,53.643
	c5.043,17.996,9.701,36.092,13.975,54.287c4.274,18.195,8.157,36.473,11.651,54.832c-5.525,4.904-11.795,11.578-18.492,14.719
	c-27.604,12.94-51.067-34.541-71.273-48.343c-20.607-14.074-35.271,9.586-54.806-2.144c-17.815-10.699-25.605-36.015-46.204-43.178
	c-7.731-2.689-12.519-1.368-19.749,1.98c-4.696,11.669-1.763,23.663,2.997,34.872c9.761,23.001,40.91,65.347,64.74,74.522
	c4.339,1.67,8.88,2.212,13.26,0.199c15.853-7.283,9.738-40.11,28.336-39.688c17.03,9.299,26.174,39.246,31.418,56.985
	c4.195,14.194,3.252,27.87-3.794,40.98c-16.761,31.184-67.521,66.115-98.373,84.551c-15.928,9.516-33.594,17.13-47.888,29.08
	c-7.392,6.182-16.506,15.56-15.759,25.96c3.636,8.13,16.389,15.882,24.466,18.814c28.907,10.491,64.031-21.993,71.678-5.004
	c10.084,22.409-8.036,79.556-17.552,101.001c-31.802,71.672-110.789,107.165-135.856,165.153
	c-18.205,42.105-8.297,104.704-3.56,149.528c1.772,16.77,5.092,35.294,1.658,51.996c-6.838,33.237-52.383,45.923-69.322,75.413
	c-16.605,28.91,4.939,51.609-2.496,78.149c-5.464,19.5-29.391,31.4-41.18,47.607c-7.254,9.973-12.817,21.709-18.659,32.569
	c-19.521,36.29-36.873,69.082-69.369,95.895c-11.253,9.284-24.211,18.519-37.922,23.786c-13.731,5.274-28.187,6.548-41.851,0.325
	c-17.725-8.074-28.269-24.958-36.694-41.66c-29.452-59.209-75.334-188.637-70.743-252.984c1.491-20.857,7.849-40.371,14.171-60.156
	c18.264-57.173,33.158-107.915,12.943-167.08c14.517-18.773,25.567-41.206,37.23-61.875c30.51-61.037,59.092-122.191,79.984-187.236
	c28.02-79.989,46.72-161.03,59.725-244.729c5.156-58.77,6.797-116.382,6.899-175.31l-0.419-0.817
	c0.938-29.508-1.866-60.217-2.71-89.839l-0.202-22.362l-0.601-0.513c-2.247-29.32-5.628-101.616,11.089-123.999
	c6.97-9.328,17.198-14.443,28.623-15.908c53.449-6.855,139.242,42.507,180.235,75.214l1.383,1.588
	C2558.979,963.827,2576.091,971.573,2590.481,979.665z"/>
<path style="fill:#016EAB;" d="M2327.498,1014.616c25.77,2.306,51.419,6.624,69.349,27.355
	c10.576,12.232,18.193,29.754,16.523,46.169c-1.049,10.318-5.766,19.582-13.963,26.024c-16.588,13.04-48.193,14.496-68.578,13.471
	l-0.419-0.817c0.938-29.508-1.866-60.217-2.71-89.839L2327.498,1014.616z"/>
<path style="fill:#016EAB;" d="M2387.841,1154.957c4.893,0.621,8.572,2.581,12.337,5.716
	c34.518,28.764,58.796,110.279,81.258,152.432c13.228,24.823,31.043,48.059,42.246,73.808c6.17,14.18,11.631,31.518,12.469,46.986
	c0.448,8.265-0.718,12.639-6.111,18.876c-3.364-0.592-6.082-1.298-8.807-3.516c-8.988-7.321-16.62-20.792-24.815-29.666
	c-9.981-10.813-20.508-21.334-29.499-33.006c-38.065-49.403-46.131-106.441-65.221-163.746
	c-5.297-15.899-20.294-38.188-21.179-54.152C2380.168,1162.366,2383.883,1159.29,2387.841,1154.957z"/>
<path style="fill:#00B3EE;" d="M1405.952,175.869c126.451-12.88,287.209,6.063,410.239,35.636c0.451,2.728,0.8,5.068,2.56,7.3
	c6.088,7.714,14.766,14.682,21.826,21.554c18.27,17.783,40.427,39.123,54.223,60.697c4.046,4.526,8.059,8.889,12.525,13.008
	c16.315,23.9,34.822,46.336,51.727,69.832c17.084,23.928,32.467,48.903,46.148,74.927c9.44,17.651,18.425,35.479,23.326,55.002
	c9.958-7.066,19.321-14.159,27.428-23.37c21.908-24.891,28.963-45.214,61.608-59.997c11.188-1.948,21.99-1.813,33.293-1.266
	c10.318,7.351,21.437,13.503,31.969,20.552c11.765,7.878,25.884,20.253,38.751,25.708c19.758,17.405,40.667,33.879,60.012,51.671
	c16.362,17.505,34.096,33.732,50.135,51.536c9.797,10.691,19.363,21.586,28.697,32.684c9.336,11.098,18.431,22.388,27.287,33.87
	c8.858,11.482,17.468,23.147,25.831,34.995c8.361,11.848,16.469,23.866,24.322,36.056c7.854,12.191,15.445,24.544,22.772,37.058
	c7.33,12.512,14.392,25.174,21.185,37.986c6.793,12.811,13.312,25.76,19.556,38.848c6.246,13.09,12.211,26.305,17.894,39.645
	c9.648,22.808,24.782,55.307,27.577,79.611c-40.992-32.707-126.785-82.069-180.235-75.214c-11.426,1.465-21.653,6.58-28.623,15.908
	c-16.717,22.383-13.336,94.679-11.089,123.999l0.601,0.513l0.202,22.362c0.844,29.622,3.647,60.331,2.71,89.839l0.419,0.817
	c-0.103,58.928-1.743,116.54-6.899,175.31c-13.005,83.698-31.705,164.739-59.725,244.729
	c-20.892,65.045-49.474,126.199-79.984,187.236c-11.663,20.669-22.714,43.102-37.23,61.875
	c20.215,59.165,5.32,109.907-12.943,167.08c-6.322,19.784-12.68,39.299-14.171,60.156c-4.591,64.348,41.291,193.776,70.743,252.984
	l-1.149,0.809c-18.914,13.53-35.859,30.352-54.158,44.786c-35.287,27.547-71.946,53.128-109.978,76.743
	c-6.887,4.248-13.82,8.419-20.801,12.513c-6.979,4.094-14.002,8.11-21.07,12.05c-7.068,3.937-14.178,7.798-21.331,11.581
	c-7.154,3.781-14.349,7.484-21.583,11.107c-7.237,3.623-14.511,7.166-21.823,10.629c-7.315,3.461-14.665,6.842-22.052,10.142
	c-7.389,3.299-14.813,6.517-22.271,9.653c-7.459,3.135-14.952,6.188-22.48,9.158c-7.527,2.97-15.086,5.857-22.676,8.66
	c-7.59,2.803-15.21,5.521-22.86,8.156c-7.652,2.636-15.332,5.188-23.039,7.652c-7.705,2.465-15.438,4.845-23.197,7.14
	c-7.76,2.295-15.544,4.503-23.352,6.624c-7.809,2.123-15.64,4.159-23.493,6.109s-15.727,3.811-23.619,5.587
	c-7.894,1.776-15.807,3.464-23.739,5.066c-7.932,1.599-15.88,3.112-23.845,4.538c-7.967,1.426-15.948,2.762-23.942,4.01
	c-7.994,1.25-16.001,2.41-24.021,3.481c-8.021,1.072-16.053,2.055-24.094,2.95c-8.043,0.895-16.094,1.7-24.153,2.417
	c-8.06,0.717-16.128,1.344-24.202,1.881c-8.072,0.539-16.151,0.988-24.234,1.347c-8.084,0.362-16.171,0.633-24.261,0.814
	c-8.09,0.18-16.181,0.271-24.272,0.275c-8.09,0.002-16.18-0.085-24.27-0.26c-8.09-0.178-16.177-0.444-24.261-0.797
	c-8.084-0.355-16.163-0.8-24.237-1.333c-8.074-0.533-16.142-1.156-24.202-1.869c-8.059-0.711-16.109-1.511-24.152-2.4
	c-8.043-0.891-16.075-1.869-24.097-2.936c-8.019-1.066-16.027-2.221-24.023-3.466c-24.762-3.804-49.34-8.556-73.734-14.253
	c-24.396-5.699-48.537-12.326-72.422-19.881c8.988-20.265,12.504-41.663,20.669-61.963c9.551-23.742,26.628-48.32,43.685-67.295
	c10.055-11.188,21.229-21.498,30.647-33.226c-35.382,3.39-110.262,37.535-140.358,30.492c-10.172,3.311-20.077,6.903-28.796,13.28
	c-1.225,13.805,1.664,27.044,2.663,40.731c-10.605,11.962-24.073,21.697-33.735,34.327c-37.061-15.385-72.861-33.29-107.402-53.716
	l-2.191,0.044c-16.468,1.954-33.776,2.988-50.364,2.968l-1.453-2.604c-3.393-8.736-5.763-17.827-8.326-26.833
	c-0.817-7.025-4.321-15.439-6.381-22.313c-11.745-46.544-16.948-92.578-13.503-140.596c2.912-40.635,9.466-82.064,5.622-122.851
	c-7.424-78.765-53.171-108.088-108.091-154.225c-76.919-64.611-151.937-148.969-111.797-256.717
	c12.967-34.808,28.951-62.777,25.57-101.206c-0.393-1.192-0.776-2.391-1.222-3.565c-5.06-13.304-10.96-22.263-24.188-28.072
	c-10.632-2.177-21.082-4.611-31.55-7.485c-28.477-12.589-47.262-44.109-68.628-65.669c-15.472-18.519-30.864-24.902-52.465-34.055
	c-10.38-4.989-19.315-11.191-28.195-18.451c-30.733-35.95-41.801-36.443-84.202-53.455c-17.03-8.276-29.897-15.996-41.704-31.219
	l-1.617-3.231c5.303-21.457,11.109-89.2,7.708-110.212l2.499-7.061c2.215-31.752,9.237-64.242,16.688-95.127
	c27.451-113.801,66.829-194.18,119.537-296.866c-39.923,13.441-76.333,31.313-114.097,49.696
	c9.316-20.962,31.4-68.027,31.485-89.605c-2.572,1.318-4.869,3.19-7.213,4.878c14.358-26.326,33.495-51.273,51.182-75.416
	c64.263-87.721,136.339-170.725,220.74-239.725c2.139-2.316,4.322-4.59,6.551-6.82c19.512-19.494,43.761-35.938,65.898-52.313
	c33.938-25.11,68.836-46.652,105.114-68.127c8.797-5.277,17.653-10.454,26.569-15.53c8.914-5.076,17.886-10.049,26.915-14.918
	c9.029-4.871,18.113-9.638,27.252-14.3c9.137-4.662,18.326-9.22,27.568-13.673c9.244-4.451,18.536-8.797,27.876-13.037
	c9.342-4.24,18.732-8.372,28.169-12.397c9.436-4.025,18.916-7.942,28.441-11.75c9.527-3.808,19.096-7.507,28.705-11.096
	c9.611-3.589,19.262-7.068,28.951-10.437c9.69-3.369,19.417-6.626,29.183-9.772c9.764-3.146,19.563-6.18,29.396-9.102
	c9.834-2.922,19.7-5.731,29.599-8.427c9.898-2.696,19.826-5.279,29.783-7.748c9.957-2.469,19.941-4.824,29.95-7.065
	c10.012-2.241,20.048-4.367,30.108-6.378c10.059-2.011,20.14-3.907,30.243-5.688C1319.986,183.82,1366.639,175.696,1405.952,175.869
	z"/>
<path style="fill:#0195D0;" d="M821.043,1390.952c5.634,0.375,11.086,0.442,16.565-1.134c9.387-2.701,13.772-9,18.143-17.247
	c3.354,4.459,6.117,8.613,5.171,14.54c-0.706,4.406-3.615,7.565-7.392,9.645c-7.403,4.075-16.767,3.498-24.478,0.65
	C825.402,1396.059,823.281,1394.11,821.043,1390.952z"/>
<path style="fill:#EAE321;" d="M2027.679,666.182l5.065,2.479c0.958,3.132,2.083,6.275,2.73,9.486
	c-3.363,7.295-6.114,15.237-14.429,18.1c-3.706,1.277-8.291,0.747-12.097,0.396c-3.861-2.839-7.805-6.146-9.237-10.931
	c-1.069-3.565-0.387-6.92,1.931-9.826C2008.001,667.914,2018.284,666.827,2027.679,666.182z"/>
<path style="fill:#0195D0;" d="M2095.9,1085.096c13.453,1.843,42.829,7.755,51.185,18.568c3.885,5.027,3.873,9.217,3.352,15.205
	c-4.974-0.815-9.976-1.614-14.894-2.731C2115.374,1111.565,2106.342,1101.924,2095.9,1085.096z"/>
<path style="fill:#0195D0;" d="M1854.089,643.319c16.652,3.067,33.243,18.984,42.727,32.622
	c9.671,13.91,12.624,27.343,14.593,43.787C1874.829,694.395,1865.861,688.29,1854.089,643.319z"/>
<path style="fill:#0195D0;" d="M754.126,1355.799c7.661,1.948,21.568,7.313,29.03,4.043c8.142,4.928,15.19,13.975,21.791,20.892
	c-4.272,3.22-8.552,6.483-12.917,9.574c-10.755,7.617-23.59,11.487-36.715,8.859c-14.88-2.979-26.625-13.761-34.84-26.03
	C736.339,1372.152,743.347,1366.606,754.126,1355.799z"/>
<path style="fill:#CEE81F;" d="M783.156,1359.842c0.592-4.166,0.568-7.734,4.277-10.547c10.055-7.632,28.313-4.219,39.815-1.644
	c8.285,1.858,22.134,6.135,26.581,14.197c1.72,3.117,1.717,7.245,1.922,10.723c-4.371,8.247-8.757,14.546-18.143,17.247
	c-5.479,1.576-10.931,1.509-16.565,1.134c-5.783-3.035-10.907-6.249-16.096-10.219
	C798.346,1373.817,791.297,1364.77,783.156,1359.842z"/>
<path style="fill:#EAE321;" d="M794.646,408.648c2.751-0.003,5.016-0.1,7.602,0.964c3.826,1.573,4.143,1.796,5.59,5.417
	c-0.56,1.995-0.492,2.086-1.635,4.236c-13.401,25.236-64.45,49.863-90.944,57.073c-3.123,0.598-5.701,1.178-8.9,0.926
	c-2.613-0.202-1.649,0.023-3.648-2.159c0.369-1.972,0.302-2.177,1.272-4.242C710.772,456.434,777.777,415.603,794.646,408.648z"/>
<path style="fill:#0195D0;" d="M574.905,1439.222c6.656-3.026,10.995-2.774,17.813-0.232c11.133,4.154,18.319,14.631,22.89,25.149
	c7.154,16.459,12.823,42.533,12.354,60.498c-11.73-5.229-24.885-10.031-34.602-18.58
	C575.658,1490.486,575.792,1460.957,574.905,1439.222z"/>
<path style="fill:#CEE81F;" d="M1794.045,663.376c2.024,0.557,3.533,1.33,5.367,2.423c5.628,3.352,10.992,10.104,12.525,16.535
	c2.147,9.023-2.854,19.934-7.91,27.129c-12.548,17.851-31.518,23.856-51.932,27.308c-6.307-1.526-11.247-2.669-15.407-8.016
	c-1.518-4.737-1.43-8.03,0.46-12.56C1744.633,698.233,1776.048,671.169,1794.045,663.376z"/>
<path style="fill:#CEE81F;" d="M720.475,1373.137l-5.569-3.621c-24.472-15.899-41.127-39.729-63.319-58.236
	c-17.628-14.701-42.413-26.171-56.81-44.054c-2.068-2.569-1.57-3.686-1.154-6.7l3.17-2.367
	c22.377-3.888,52.828,18.261,71.268,28.986l12.059,11.309c5.578,8.458,11.546,19.652,20.238,25.315
	c10.166,6.627,61.087,10.62,55.966,27.612c-0.375,1.248-1.544,3.234-2.197,4.418
	C743.347,1366.606,736.339,1372.152,720.475,1373.137z"/>
<path style="fill:#FEFEFE;" d="M1582.976,506.564c13.438-1.576,50.499-9.091,61.315-0.059c2.692,2.247,3.973,4.395,3.838,8.001
	c-0.281,7.608-8.856,15.199-13.863,20.185c-30.082,22.383-63.372,40.219-101.499,41.139c-16.737-1.673-33.07-9.56-44.086-22.55
	c-3.495-4.122-6.703-10.427-5.769-16.014c1.154-6.879,5.827-9.759,10.948-13.805
	C1523.395,516.674,1553.532,513.399,1582.976,506.564z"/>
<path style="fill:#0195D0;" d="M1050.478,441.326c8.25-0.322,13.483,4.301,19.345,9.65c24.958,22.77,52.875,63.188,54.229,97.907
	c0.17,4.348-0.384,7.468-2.051,11.452c-2.95,2.643-4.474,3.812-8.575,3.847c-12.867,0.117-25.394-10.459-38.159-5.109
	c-2.61,6.311-1.772,13.881-1.767,20.628l13.137,12.205c0.434,7.383,1.471,15.7-3.794,21.776c-2.619,3.026-5.057,4.213-9.044,4.512
	c-17.517,1.321-42.771-18.018-54.179-30.129c-6.662-7.075-12.252-16.119-19.702-22.257c10.661-0.146,23.15,0.015,32.71-5.525
	c15.642-9.065-9.19-28.576-5.253-41.66c13.163-14.971,31.213,7.143,45.586-0.662c3.539-1.919,5.329-5.824,6.296-9.557
	C1084.536,488.042,1060.894,457.808,1050.478,441.326z"/>
<path style="fill:#CEE81F;" d="M1911.409,719.728c3.554,3.419,7.617,7.049,8.783,12.065c1.066,4.6,0.436,8.651-2.089,12.606
	c-8.227,12.888-40.099,25.714-54.686,28.588c-12.964,2.555-39.876,2.818-50.695-5.273c-16.893-12.639,1.436-29.159,8.537-40.664
	c3.278-5.311,5.634-11.241,7.266-17.256c7.236-26.663-8.889-52.857-11.552-79.254c-0.688-6.817-0.847-13.635,3.636-19.19
	c3.354-1.081,5.13-1.143,8.423,0.387c12.65,5.883,19.807,19.409,25.057,31.582C1865.861,688.29,1874.829,694.395,1911.409,719.728z"
	/>
<path style="fill:#0195D0;" d="M1634.266,534.692c17.224,2.449,45.897,4.515,57.123,19.491c3.269,4.362,4.362,9.706,3.401,15.041
	c-2.792,15.457-20.499,28.928-33.082,36.996c-23.443,15.038-55.766,26.766-83.66,20.218c-15.352-3.604-29.563-11.938-37.644-25.822
	c-4.582-7.875-7.383-15.668-7.638-24.785C1570.894,574.911,1604.184,557.075,1634.266,534.692z"/>
<path style="fill:#EAE321;" d="M925.047,351.979c0.07-0.976,0.059-1.963,0.211-2.93c0.967-6.129,12.085-12.82,17.142-15.967
	c46.998-29.256,206.036-90.966,259.149-78.592c4.606,4.398,9.545,8.69,13.57,13.629c-35.18,15.208-115.072,43.218-137.895,70.054
	c-38.687,16.585-82.011,32.429-123.7,38.183C940.803,370.708,932.136,364.096,925.047,351.979z"/>
<path style="fill:#0195D0;" d="M1201.548,254.491c4.606,4.398,9.545,8.69,13.57,13.629c-35.18,15.208-115.072,43.218-137.895,70.054
	c-38.687,16.585-82.011,32.429-123.7,38.183c-12.721-5.648-21.387-12.261-28.477-24.378c61.752,4.485,171.859-50.487,229.603-76.323
	C1169.846,268.857,1188.455,264.89,1201.548,254.491z"/>
<path style="fill:#0195D0;" d="M1405.952,175.869c126.451-12.88,287.209,6.063,410.239,35.636c0.451,2.728,0.8,5.068,2.56,7.3
	c6.088,7.714,14.766,14.682,21.826,21.554c18.27,17.783,40.427,39.123,54.223,60.697c-15.815,0.577-49.465-18.429-65.909-24.856
	c-27.615-10.792-54.999-23.322-83.039-32.85c-26.789-9.103-55.696-15.551-83.165-22.519c-32.951-8.061-66.125-15.066-99.522-21.016
	c-20.039-3.393-40.187-6.881-60.346-9.438C1479.209,187.382,1424.061,185.907,1405.952,175.869z"/>
<path style="fill:#0195D0;" d="M1272.508,617.945c0.193-0.114,0.387-0.231,0.586-0.34c3.021-1.635,5.379-2.804,7.084-5.906
	c5.153-9.378,7.843-21.369,11.15-31.594c9.718-30.064,24.832-59.356,50.637-78.773c64.732-48.712,151.02-25.852,204.234-70.635
	c19.682-16.561,25.023-43.433,42.677-61.333c11.247-11.399,35.449-14.332,43.702-25.099c9.888-12.893-19.506-31.131-19.687-44.64
	c-0.047-3.571,1.576-6.615,3.929-9.152c16.175-17.453,70.764-16.809,93.636-17.709l2.578,1.356
	c27.946,14.496,51.401,22.022,69.401,49.719c-28.113-8.772-60.929-11.508-87.902,2.815c-6.604,3.507-12.75,8.569-14.669,16.11
	c-2.724,10.711,5.824,23.959,7.699,34.679c1.046,5.959,0.17,12.686-0.29,18.697c-11.215,17.303-28.403,27.319-42.009,42.275
	c-12.809,14.08-22.33,31.245-35.842,44.739c-7.737,7.728-20.567,14.566-26.446,23.408c-29.444,6.835-59.581,10.11-89.115,16.898
	c-26.924-3.841-61.356,12.029-82.418,27.703c-32.871,24.466-55.474,63.507-61.371,103.945c-1.304,8.933-1.878,18.003-2.543,27.003
	c-25.617-17.853-53.977-39.316-74.845-62.552L1272.508,617.945z"/>
<path style="fill:#0195D0;" d="M1018.846,628.401c23.795,4.368,30.53,3.87,44.927,24.835c13.242,19.286,24.806,39.935,38.707,58.723
	c30.803,41.631,98.326,108.982,87.331,164.54c-1.324,6.688-3.788,14.35-9.738,18.352c-7.488,5.036-18.844,3.261-27.293,2.602
	c-0.475-0.322-0.952-0.636-1.421-0.964c-14.854-10.412-24.105-30.501-44.795-26.851c-7.743,1.365-15.841,5.892-23.004,9.123
	c0.724,18.07,2.889,37.57-10.702,51.888c-17.136,18.059-45.943,17.241-68.555,22.632c-11.763,2.804-23.525,7.708-34.526,12.636
	c-48.208,21.589-101.32,54.522-127.734,102.097c-8.443,15.205-12.665,33.009-26.089,44.927
	c-40.922,36.337-92.587,55.432-128.194,98.988c9.205,19.819,20.265,43.837,12.079,65.871c-3.838,10.336-10.107,15.858-19.72,20.654
	l-12.059-11.309l0.656-3.193c-0.748-2.588-1.611-5.137-2.59-7.647c-0.978-2.51-2.067-4.971-3.267-7.383
	c-1.201-2.41-2.508-4.763-3.92-7.058c-1.412-2.293-2.925-4.518-4.538-6.677c-6.712-8.824-10.567-13.819-21.773-15.293
	c3.645-3.141,7.175-6.63,10.034-10.509c19.075-25.881,11.944-43.881,7.55-71.88c-10.257-65.32,76.579-72.522,106.462-115.283
	c8.648-12.375,12.677-31.031,9.888-45.964c11.968-20.148,52.547-54.946,73.014-65.997c13.257-7.157,28.087-12.302,40.808-20.291
	c15.63-9.815,42.823-32.672,57.123-45.229c9.598-8.429,25.787-24.938,24.852-38.446c-0.275-3.99-1.632-5.153-4.295-7.69
	c-16.33-3.375-36.92,2.581-53.361,4.91c2.944-3.548,5.938-7.031,9.313-10.181c10.207-9.525,23.561-20.051,36.665-25.116
	c15.258-5.895,30.495,4.755,45.762,0.062c21.167-6.51,44.197-29.991,67.465-28.093c4.731,0.387,7.547,2.121,10.573,5.783
	c0.393,9.753-13.682,16.444-18.929,24.237c-2.593,3.85-3.926,8.215-2.678,12.85c3.516,13.034,25.277,27.492,36.319,34.324
	c7.535,4.664,19.025,11.285,28.157,8.086c4.292-1.5,7.058-5.162,8.566-9.284c4.529-12.349,0.044-26.854-3.677-38.868
	c-15.349-49.562-40.055-81.267-71.206-121.515C1039.214,660.525,1027.316,645.877,1018.846,628.401z"/>
<path style="fill:#FCF7CF;" d="M1004.491,852.97c2.476-0.445,5.256-0.246,7.781-0.293c3.349,1.931,5.218,3.103,7.535,6.319
	c0.032,3.513-0.404,5.227-2.675,8.024c-13.781,16.995-60.111,31.632-80.742,34.863c-3.138,0.331-7.148,0.46-10.225-0.369
	c-1.916-0.518-2.763-2.314-3.812-3.806c0.237-2.895,0.841-4.749,2.511-7.093C941.078,867.871,978.516,857.418,1004.491,852.97z"/>
<path style="fill:#FEFEFE;" d="M1215.118,268.12c18.741-8.707,36.882-15.6,57.349-18.99c36.273-6.009,74.329-2.238,110.974-3.65
	c63.507-2.446,128.52-10.478,192.006-8.503c23.974,0.746,48.416,3.749,72.152,7.114c21.437,3.039,43.017,6.495,63.39,14.109
	c3.896,1.456,8.897,3.23,11.859,6.257l-0.173,3.655c-4.172,2.727-7.348,3.707-12.22,4.652c-22.872,0.901-77.461,0.256-93.636,17.709
	c-2.353,2.537-3.975,5.581-3.929,9.152c0.182,13.509,29.575,31.746,19.687,44.64c-8.253,10.767-32.455,13.699-43.702,25.099
	c-17.654,17.9-22.995,44.772-42.677,61.333c-53.215,44.783-139.503,21.923-204.234,70.635
	c-25.805,19.418-40.919,48.709-50.637,78.773c-3.308,10.225-5.997,22.216-11.15,31.594c-1.705,3.103-4.064,4.271-7.084,5.906
	c-0.199,0.108-0.392,0.226-0.586,0.34c-6.724-2.514-11.695-5.868-16.945-10.775c-25.374-23.722-49.509-63.486-50.37-99.091
	c-0.586-24.226,11.244-38.842,27.205-55.169c-4.781-8.502-8.496-21.311-9.208-30.999c-7.327-3.41-18.044-7.365-21.381-15.36
	c-2.279-5.464-0.419-11.071,1.169-16.406c-18.088,2.886-45.032,13.245-62.288,4.881c-11.748-5.695-15.425-17.033-19.626-28.409
	c-7.21,1.547-15.718,1.866-23.065,1.438c-6.706-0.393-13.558-2.716-17.962-8.021c-5.499-6.624-3.888-14.004-2.813-21.858
	C1100.046,311.338,1179.938,283.328,1215.118,268.12z"/>
<path style="fill:#0195D0;" d="M1223.189,421.91c6.094,2.959,16.482,6.897,18.542,13.995c0.943,3.249,0.009,6.952-2.092,9.557
	c-2.153,2.669-4.778,5.068-7.242,7.447C1227.616,444.408,1223.901,431.599,1223.189,421.91z"/>
<path style="fill:#0195D0;" d="M1121.063,366.616c25.087-6.258,43.081-8.534,68.543-3.724c5.168,0.976,11.443,1.731,15.952,4.582
	c3.861,2.44,5.678,5.15,6.841,9.586c-0.393,4.682-2.3,7.386-5.798,10.315c-1.166,0.976-2.402,1.86-3.624,2.769
	c-18.088,2.886-45.032,13.245-62.288,4.881C1128.941,389.329,1125.265,377.991,1121.063,366.616z"/>
<path style="fill:#CEE81F;" d="M466.462,837.645c59.563-16.746,130.453-16.852,185.824,13.86
	c56.763,31.482,62.388,88.579,101.898,132.85c3.577,4.008,7.614,9.267,12.378,11.903c2.789,14.933-1.239,33.589-9.888,45.964
	c-29.883,42.762-116.719,49.963-106.462,115.283c4.395,27.999,11.525,45.999-7.55,71.88c-2.859,3.879-6.39,7.368-10.034,10.509
	c-0.832-0.246-1.711-0.366-2.493-0.744c-8.845-4.275-14.678-27.003-17.039-36.193c-8.575-3.249-16.146-8.473-23.865-13.342
	c-11.112,7.904-21.914,15.812-34.219,21.826c-42.337,20.689-62.813,18.973-87.586,65.326c-7.629,14.276-13.825,29.288-16.623,45.29
	c-1.655,9.451-1.225,18.773-0.873,28.313c23.839-1.096,37.002-32.004,62.382-35.813c5.118-0.768,7.389,0.387,11.481,3.352
	c4.822,8.584,4.069,16.348,2.713,25.69c1.131,8.684,8.048,16.714,14.364,22.406c10.14,0.964,25.723,0.407,32.93,9.032
	c8.159,9.773,3.565,27.964,1.898,39.331c-0.548,3.721-1.201,7.233-2.203,10.857l1.409,13.995
	c0.888,21.735,0.753,51.264,18.454,66.835c9.718,8.549,22.872,13.351,34.602,18.58c13.184,5.716,26.804,9.852,40.655,13.635
	c-13.304,7.679-34.025,12.797-44.042,24.079c-10.632-2.177-21.082-4.611-31.55-7.485c-28.477-12.589-47.262-44.109-68.628-65.669
	c-15.472-18.519-30.864-24.902-52.465-34.055c-10.38-4.989-19.315-11.191-28.195-18.451c-30.733-35.95-41.801-36.443-84.202-53.455
	c-17.03-8.276-29.897-15.996-41.704-31.219l-1.617-3.231c5.303-21.457,11.109-89.2,7.708-110.212l2.499-7.061
	c2.215-31.752,9.237-64.242,16.688-95.127c27.451-113.801,66.829-194.18,119.537-296.866L466.462,837.645z"/>
<path style="fill:#0195D0;" d="M573.496,1425.227c-0.677-1.693-1.324-3.398-2.241-4.983c-10.298-17.848-24.692,1.061-38.924-4.099
	c-4.699-1.702-7.937-4.547-10.157-8.977c-8.297-16.556-0.823-46.641,4.333-63.568c1.131,8.684,8.048,16.714,14.364,22.406
	c10.14,0.964,25.723,0.407,32.93,9.032c8.159,9.773,3.565,27.964,1.898,39.331C575.151,1418.09,574.497,1421.603,573.496,1425.227z"
	/>
<path style="fill:#0195D0;" d="M424.99,1191.432c33.252-18.604,70.837-32.862,105.252-51.272c2.936,2.927,6.964,7.673,10.828,9.249
	c13.45,5.49,30.686-3.835,43.43-8.628c17.127,16.069,23.443,40.075,28.597,62.177c-8.575-3.249-16.146-8.473-23.865-13.342
	c-11.112,7.904-21.914,15.812-34.219,21.826c-42.337,20.689-62.813,18.973-87.586,65.326c-7.629,14.276-13.825,29.288-16.623,45.29
	c-1.655,9.451-1.225,18.773-0.873,28.313c-20.985-17.968-42.205-38.347-58.556-60.727
	C395.628,1264.302,412.093,1213.413,424.99,1191.432z"/>
<path style="fill:#FCF7CF;" d="M832.574,431.189c32.23-20.997,94.62-41.599,133.081-38.402c37.14,3.088,61.365,20.78,84.823,48.539
	c10.415,16.482,34.058,46.717,28.778,67.078c-0.967,3.733-2.757,7.638-6.296,9.557c-14.373,7.805-32.423-14.309-45.586,0.662
	c-3.938,13.084,20.895,32.596,5.253,41.66c-9.56,5.54-22.049,5.379-32.71,5.525c-12.032-0.018-23.276-3.688-33.797-9.36
	c-8.754-4.723-18.261-11.833-20.9-21.967c-3.384-12.981,6.425-25.726,12.343-36.668c-0.486-7.837-1.064-15.199-2.956-22.866
	c-13.772,5.719-29.578,10.925-41.435,20.089c-3.396,21.041-4.242,44.795-23.634,58.201c-18.996,13.137-34.843,30.34-54.75,41.979
	c-43.975,25.711-115.986,38.95-126.943,98.417c-0.533,2.897-0.744,5.862-0.914,8.798c10.699-2.801,21.73-5.194,32.241-8.599
	c13.33,6.504,24.07,11.824,31.881,25.084c9.58,9.51,19.313,18.902,28.295,28.989c9-17.742,20.291-33.958,31.099-50.593
	c19.746-30.39,19.005-47.613,11.792-81.621c12.858-13.113,32.355-20.578,49.538-26.183c13.072-4.263,40.869-13.978,53.455-6
	c3.932,2.49,4.854,6.747,6.018,10.916c8.484-1.348,16.456,5.115,23.174,10.008c6.984,5.086,13.181,10.081,17.772,17.505
	l20.232-6.422l6.419,12.885c8.47,17.476,20.367,32.124,32.189,47.4c31.151,40.248,55.857,71.953,71.206,121.515
	c3.721,12.015,8.206,26.519,3.677,38.868c-1.509,4.122-4.274,7.784-8.566,9.284c-9.132,3.199-20.622-3.422-28.157-8.086
	c-11.042-6.832-32.804-21.29-36.319-34.324c-1.248-4.635,0.085-9,2.678-12.85c5.247-7.793,19.321-14.484,18.929-24.237
	c-3.026-3.662-5.842-5.396-10.573-5.783c-23.268-1.898-46.298,21.583-67.465,28.093c-15.267,4.693-30.504-5.956-45.762-0.062
	c-13.104,5.065-26.458,15.592-36.665,25.116c-3.375,3.149-6.369,6.633-9.313,10.181c16.441-2.329,37.031-8.285,53.361-4.91
	c2.663,2.537,4.02,3.7,4.295,7.69c0.935,13.509-15.255,30.018-24.852,38.446c-14.3,12.557-41.493,35.414-57.123,45.229
	c-12.721,7.989-27.551,13.134-40.808,20.291c-20.467,11.051-61.046,45.85-73.014,65.997c-4.764-2.637-8.801-7.896-12.378-11.903
	c-39.51-44.271-45.135-101.367-101.898-132.85c-55.371-30.712-126.261-30.607-185.824-13.86l-3.817,1.875
	c-39.923,13.441-76.333,31.313-114.097,49.696c9.316-20.962,31.4-68.027,31.485-89.605c-2.572,1.318-4.869,3.19-7.213,4.878
	c14.358-26.326,33.495-51.273,51.182-75.416c64.263-87.721,136.339-170.725,220.74-239.725c0.905,4.151,1.831,8.273,3.583,12.167
	c1.594,3.539,3.806,6.932,7.784,8.063c26.142,7.447,107.575-44.572,134.839-33.762c5.672,8.095,5.531,13.11,6.952,22.588
	c4.459,0.844,12.375-4.102,16.228-6.841C828.783,481.146,830.072,447.724,832.574,431.189z"/>
<path style="fill:#0195D0;" d="M951.25,594.425c8.484-1.348,16.456,5.115,23.174,10.008c6.984,5.086,13.181,10.081,17.772,17.505
	c-3.012,1.014-6.032,2.019-9.103,2.833c-7.33,1.945-15.366,3.741-22.093-0.85C952.6,618.185,952.466,603.422,951.25,594.425z"/>
<path style="fill:#0195D0;" d="M771.053,718.917c9.58,9.51,19.313,18.902,28.295,28.989c-4.11,6.756-8.561,13.509-14.271,19.037
	c-4.544,4.4-8.915,8.273-15.442,8.124c-8.719-8.502,2.057-41.358,1.515-54.261L771.053,718.917z"/>
<path style="fill:#0195D0;" d="M873.299,459.22c2.482-2.588,5.167-4.945,8.054-7.072c2.887-2.127,5.933-3.993,9.138-5.599
	c11.458-5.686,24.65-7.717,36.829-3.085c14.871,5.654,21.088,17.95,27.287,31.482c-13.772,5.719-29.578,10.925-41.435,20.089
	c-3.396,21.041-4.242,44.795-23.634,58.201c-18.996,13.137-34.843,30.34-54.75,41.979c-43.975,25.711-115.986,38.95-126.943,98.417
	c-0.533,2.897-0.744,5.862-0.914,8.798c-7.145,1.143-15.225,3.425-21.817-0.428c-6.123-7.582-11.736-54.794-10.248-65.458
	c5.317-38.101,100.688-65.836,130.975-82.708c15.035-8.376,25.72-21.05,39.038-31.6c2.42,0.273,3.694,0.686,5.938,1.816
	c0.712,0.357,1.403,0.753,2.107,1.128c1.682-0.419,1.983-0.375,3.641-1.43C871.527,514.248,872.262,475.65,873.299,459.22z"/>
<path style="fill:#F5C92C;" d="M644.743,489.349c0.905,4.151,1.831,8.273,3.583,12.167c1.594,3.539,3.806,6.932,7.784,8.063
	c26.142,7.447,107.575-44.572,134.839-33.762c-4.591,6.061-8.443,12.68-13.471,18.378c-30.404,34.468-77.042,68.578-112.108,100.131
	c-63.75,57.366-123.987,125.417-171.615,196.767c-7.811,11.704-25.225,32.739-27.293,46.553l-3.817,1.875
	c-39.923,13.441-76.333,31.313-114.097,49.696c9.316-20.962,31.4-68.027,31.485-89.605c-2.572,1.318-4.869,3.19-7.213,4.878
	c14.358-26.326,33.495-51.273,51.182-75.416C488.265,641.353,560.341,558.349,644.743,489.349z"/>
<path style="fill:#99DC30;" d="M2117.562,430.456c11.188-1.948,21.99-1.813,33.293-1.266c10.318,7.351,21.437,13.503,31.969,20.552
	c11.765,7.878,25.884,20.253,38.751,25.708c19.758,17.405,40.667,33.879,60.012,51.671c16.362,17.505,34.096,33.732,50.135,51.536
	c9.797,10.691,19.363,21.586,28.697,32.684c9.336,11.098,18.431,22.388,27.287,33.87c8.858,11.482,17.468,23.147,25.831,34.995
	c8.361,11.848,16.469,23.866,24.322,36.056c7.854,12.191,15.445,24.544,22.772,37.058c7.33,12.512,14.392,25.174,21.185,37.986
	c6.793,12.811,13.312,25.76,19.556,38.848c6.246,13.09,12.211,26.305,17.894,39.645c9.648,22.808,24.782,55.307,27.577,79.611
	c-40.992-32.707-126.785-82.069-180.235-75.214c-11.426,1.465-21.653,6.58-28.623,15.908
	c-16.717,22.383-13.336,94.679-11.089,123.999l0.601,0.513l0.202,22.362c-12.123-5.153-24.483-16.901-35.399-24.662
	c-3.694,4.767-6.841,8.769-12.882,10.415c-8.016,2.18-90.557,9.976-96.481,9.287c-8.798-1.023-18.208-6.27-25.971-10.409
	c-12.615-6.73-39.671-18.642-43.758-32.259c-36.132-15.668-35.467-56.669-67.898-75.653c-15.079-8.824-33.68-9.445-50.282-5.323
	c-19.84,4.925-67.198,19.945-83.716,29.821c-6.712,4.011-11.429,8.467-15.434,15.161c-4.002,4.058-6.489,10.649-9.24,15.671
	c-10.227,18.677-23.291,35.599-43.019,44.936c-11.423,5.405-22.978,6.27-34.805,1.609c-16.655-6.566-31.843-22.069-38.689-38.526
	c-7.524-18.082-6.774-43.456,0.896-61.321c22.5-52.403,57.211-8.66,85.157-20.446c7.55-3.188,14.25-10.898,17.2-18.451
	c7.383-18.899-13.468-29.766-19.365-45.108c-2.159-5.613-1.298-10.913,1.318-16.198c12.993-26.259,39.39-22.058,59.666-36.844
	c36.885-26.9,40.125-49.854,88.863-67.512c1.828-2.218,3.299-3.639,5.842-4.951c0.773-0.398,1.556-0.782,2.335-1.172
	c0.741-3.624-1.266-5.317-3.088-8.399c3.806,0.352,8.391,0.882,12.097-0.396c8.314-2.862,11.066-10.805,14.429-18.1
	c-0.647-3.211-1.773-6.354-2.73-9.486l-5.065-2.479c-10.488-14.947-34.424-15.662-46.122-33.97
	c-3.343-2.077-7.406-4.233-9.987-7.236c-5.241-6.105-6.507-16.465-5.602-24.144c4.277-36.302,35.133-66.123,62.558-87.009
	c9.958-7.066,19.321-14.159,27.428-23.37C2077.862,465.563,2084.917,445.24,2117.562,430.456z"/>
<path style="fill:#0195D0;" d="M2035.475,678.147c8.036,8.285,16.055,17.927,18.372,29.566c-16.474,0.53-33.823,0.026-49.986,3.451
	c1.828-2.218,3.299-3.639,5.842-4.951c0.773-0.398,1.556-0.782,2.335-1.172c0.741-3.624-1.266-5.317-3.088-8.399
	c3.806,0.352,8.391,0.882,12.097-0.396C2029.361,693.384,2032.112,685.442,2035.475,678.147z"/>
<path style="fill:#016EAB;" d="M1981.557,632.212c24.873,7.732,50.657,5.133,75.363,13.638c7.155,7.348,11.959,15.144,15.988,24.539
	c-13.271,1.066-26.78-2.364-40.163-1.729l-5.065-2.479C2017.191,651.235,1993.256,650.52,1981.557,632.212z"/>
<path style="fill:#0195D0;" d="M2032.745,668.661c13.383-0.636,26.892,2.795,40.163,1.729c3.721,2.807,4.453,3.237,9.05,3.82
	c11.918,5.145,33.073,19.107,45.938,13.321c7.767-3.492,11.989-13.008,16.178-19.986c0.313,8.651,0.401,17.385,1.037,26.018
	c-2.599,5.107-5.379,8.136-10.942,9.97c-19.942,6.577-58.48,4.008-80.32,4.181c-2.317-11.64-10.336-21.281-18.372-29.566
	C2034.828,674.936,2033.703,671.792,2032.745,668.661z"/>
<path style="fill:#0195D0;" d="M2146.314,667.82c-2.232-7.664-1.749-15.7-3.167-23.549c-4.078-22.576-13.017-45.539-7.954-68.651
	c1.861-8.482,4.869-18.888,12.917-23.572c4.278-2.49,7.485-2.95,12.281-1.559c-4.119,17.071-5.912,32.813,3.99,48.484
	c6.633,10.494,16.266,18.568,25.356,26.862l-1.526,1.345C2172.781,640.591,2155.499,648.472,2146.314,667.82z"/>
<path style="fill:#016EAB;" d="M2081.958,674.209c11.716-3.911,23.643-9.554,30.448-20.364c11.883-18.885,2.52-42.867-1.526-62.774
	c-3.067-15.106-2.76-28.799,6.231-41.845c8.514-12.354,22.271-23.212,37.409-25.658c4.383-0.706,6.539,0.073,10.072,2.604
	c3.255,7.225-1.787,16.901-4.201,24.316c-4.796-1.392-8.004-0.932-12.281,1.559c-8.048,4.685-11.056,15.091-12.917,23.572
	c-5.063,23.112,3.876,46.075,7.954,68.651c1.418,7.849,0.935,15.885,3.167,23.549c-0.535,8.574-0.937,17.155-1.204,25.743
	c-0.636-8.634-0.724-17.367-1.037-26.018c-4.189,6.979-8.411,16.494-16.178,19.986
	C2115.031,693.317,2093.876,679.354,2081.958,674.209z"/>
<path style="fill:#0195D0;" d="M2113.209,989.35c0.434-0.152,0.87-0.302,1.301-0.46c8.704-3.231,16.646-10.43,20.713-18.858
	c1.617-3.354,2.115-7.178,0.771-10.732c-7.14-18.899-68.001-36.908-52.008-73.16c0.876-1.986,1.04-2.063,2.159-3.563
	c4.854-1.371,11.625,1.488,15.926,3.791c12.911,6.911,17.856,21.17,27.586,31.178c15.984,16.441,35.3,24.859,47.575,46.096
	c8.435,14.596,10.315,35.684,22.087,47.786c3.475,3.571,7.623,5.106,12.51,3.712c20.139-5.742,35.121-55.09,54.803-44.915
	c22.687,11.728,18.753,37.28,60.267,43.878l0.601,0.513l0.202,22.362c-12.123-5.153-24.483-16.901-35.399-24.662
	c-3.694,4.767-6.841,8.769-12.882,10.415c-8.016,2.18-90.557,9.976-96.481,9.287c-8.798-1.023-18.208-6.27-25.971-10.409
	C2144.351,1014.88,2117.296,1002.968,2113.209,989.35z"/>
<linearGradient id="SVGID_1_" gradientUnits="userSpaceOnUse" x1="1402.8011" y1="1920.7087" x2="1581.2423" y2="1728.9886" gradientTransform="matrix(2.9297 0 0 -2.9297 -2321.3491 6703.0469)">
	<stop  offset="0" style="stop-color:#A0E82E"/>
	<stop  offset="1" style="stop-color:#AECF65"/>
</linearGradient>
<path style="fill:url(#SVGID_1_);" d="M1916.032,1036.032c7.374-3.375,15.955-8.282,23.941-9.668
	c19.113-3.319,40.673-0.076,60.067-0.214c12.721-0.091,25.767-2.35,38.429-1.74c2.881,0.125,5.737,0.463,8.569,1.014
	c2.83,0.553,5.604,1.313,8.32,2.279c17.625,6.231,29.707,42.302,40.541,57.393c10.441,16.828,19.474,26.47,39.642,31.043
	c4.919,1.116,9.92,1.916,14.894,2.731c18.531,0.718,32.227,1.673,46.746-11.666c10.511-9.659,18.293-19.034,33.855-18.513
	c35.701,1.195,64.102,33.451,99.372,38.127l0.419,0.817c-0.103,58.928-1.743,116.54-6.899,175.31
	c-13.005,83.698-31.705,164.739-59.725,244.729c-20.892,65.045-49.474,126.199-79.984,187.236
	c-11.663,20.669-22.714,43.102-37.23,61.875c-6.973-14.194-15.384-27.996-24.346-41.01c-13.673-19.858-49.148-58.611-48.208-82.23
	c0.642-16.104,10.594-30.302,12.331-46.269c0.844-7.755-0.82-15.853-6.073-21.829c-9.021-10.26-23.991-10.503-36.583-11.221
	c-6.604-1.107-12.404-3.05-18.665-5.338l-1.09-0.809c-53.859,4.793-139.304,50.446-188.177,29.968
	c-14.848-6.22-64.734-46.421-70.749-60.604c-4.4-5.452-13.359-10.898-19.131-15.269c-26.895-20.373-64.383-41.303-81.398-71.068
	c-5.936-10.386-8.66-21.967-9.586-33.8c-2.786-35.637,5.367-71.883,5.154-107.663c-0.182-30.437-10.181-64.316-2.03-93.949
	c9.255-33.636,44.438-81.196,69.062-105.334c13.175-12.914,28.254-23.681,41.607-36.363c15.258-14.496,31.322-35.194,51.882-42.035
	c17.499-5.824,33.92,6.636,52.102,3.343C1888.545,1052.503,1902.655,1043.778,1916.032,1036.032z"/>
<path style="fill:#0195D0;" d="M1765.431,1557.444c41.936,23.124,81.867,21.606,127.272,8.681
	c19.517-5.555,80.824-33.331,97.954-24.39c18.208,9.504,19.79,33.006,33.7,46.345c-53.859,4.793-139.304,50.446-188.177,29.968
	C1821.333,1611.827,1771.446,1571.626,1765.431,1557.444z"/>
<path style="fill:#99DC30;" d="M1753.58,1408.574c5.089-15.879,9.932-32.054,12.592-48.536c4.424-27.399,5.719-55.468,13.251-82.298
	c15.428-54.955,54.009-93.328,102.8-120.158c22.854-12.568,65.376-33.319,92.279-30.806c7.579,0.709,16.734,4.468,23.646,7.629
	c25.11,11.482,48.466,27.445,73.676,39.366c52.169,24.665,105.404,45.155,156.015,73.348c14.403,8.024,29.136,15.697,43.345,24.032
	c11.795,6.92,40.383,28.819,50.795,31.368c0.647,0.158,1.301,0.284,1.951,0.425c-13.005,83.698-31.705,164.739-59.725,244.729
	c-14.868-16.192-29.543-32.751-45.082-48.299c-124.767-124.855-207.314-37.776-348.132-38.804
	C1827.473,1460.254,1783.868,1439.55,1753.58,1408.574z"/>
<path style="fill:#0195D0;" d="M2025.447,1588.888c6.261,2.288,12.062,4.23,18.665,5.338c12.592,0.718,27.563,0.961,36.583,11.221
	c5.253,5.976,6.917,14.074,6.073,21.829c-1.737,15.967-11.689,30.164-12.331,46.269c-0.94,23.619,34.535,62.373,48.208,82.23
	c8.962,13.014,17.373,26.815,24.346,41.01c20.215,59.165,5.32,109.907-12.943,167.08c-6.322,19.784-12.68,39.299-14.171,60.156
	c-4.591,64.348,41.291,193.776,70.743,252.984l-1.149,0.809c-18.914,13.53-35.859,30.352-54.158,44.786
	c-35.287,27.547-71.946,53.128-109.978,76.743c-6.887,4.248-13.82,8.419-20.801,12.513c-6.979,4.094-14.002,8.11-21.07,12.05
	c-7.068,3.937-14.178,7.798-21.331,11.581c-7.154,3.781-14.349,7.484-21.583,11.107c-7.237,3.623-14.511,7.166-21.823,10.629
	c-7.315,3.461-14.665,6.842-22.052,10.142c-7.389,3.299-14.813,6.517-22.271,9.653c-7.459,3.135-14.952,6.188-22.48,9.158
	c-7.527,2.97-15.086,5.857-22.676,8.66c-7.59,2.803-15.21,5.521-22.86,8.156c-7.652,2.636-15.332,5.188-23.039,7.652
	c-7.705,2.465-15.438,4.845-23.197,7.14c-7.76,2.295-15.544,4.503-23.352,6.624c-7.809,2.123-15.64,4.159-23.493,6.109
	s-15.727,3.811-23.619,5.587c-7.894,1.776-15.807,3.464-23.739,5.066c-7.932,1.599-15.88,3.112-23.845,4.538
	c-7.967,1.426-15.948,2.762-23.942,4.01c-7.994,1.25-16.001,2.41-24.021,3.481c-8.021,1.072-16.053,2.055-24.094,2.95
	c-8.043,0.895-16.094,1.7-24.153,2.417c-8.06,0.717-16.128,1.344-24.202,1.881c-8.072,0.539-16.151,0.988-24.234,1.347
	c-8.084,0.362-16.171,0.633-24.261,0.814c-8.09,0.18-16.181,0.271-24.272,0.275c-8.09,0.002-16.18-0.085-24.27-0.26
	c-8.09-0.178-16.177-0.444-24.261-0.797c-8.084-0.355-16.163-0.8-24.237-1.333c-8.074-0.533-16.142-1.156-24.202-1.869
	c-8.059-0.711-16.109-1.511-24.152-2.4c-8.043-0.891-16.075-1.869-24.097-2.936c-8.019-1.066-16.027-2.221-24.023-3.466
	c-24.762-3.804-49.34-8.556-73.734-14.253c-24.396-5.699-48.537-12.326-72.422-19.881c8.988-20.265,12.504-41.663,20.669-61.963
	c9.551-23.742,26.628-48.32,43.685-67.295c10.055-11.188,21.229-21.498,30.647-33.226l3.964-2.754
	c15.516-1.33,35.221-12.278,49.77-18.457c50.517-21.457,99.489-42.724,147.645-69.305
	c150.835-83.256,314.162-216.994,425.798-349.269c24.924-30.016,48.464-61.079,70.62-93.191
	c22.158-32.111,42.845-65.144,62.06-99.097c17.657-31.928,39.422-66.021,49.565-101.168c-3.703-3.897-7.142-8.768-9.788-13.438
	C2024.536,1600.129,2023.458,1596.066,2025.447,1588.888z"/>
<path style="fill:#99DC30;" d="M668.617,1538.272c0.445-0.229,0.926-0.396,1.333-0.686c5.903-4.242,11.355-21.855,15.07-28.655
	c8.016-14.672,18.498-28.743,33.607-36.662c27.724-14.537,87.176-6.938,118.412-4.822c37.4,2.537,93.882,7.318,120.176,37.652
	c26.25,30.284,3.589,76.526,55.289,82.239c32.654,3.61,68.3-8.713,92.666,21.656c3.964,4.939,7.046,10.48,10.102,16.002
	c34.805,15.853,52.931,55.904,74.833,85.617c58.614,16.527,121.336,24.536,169.064,66.501c7.172,6.305,11.713,14.956,18.451,21.305
	c27.401,19.529,59.66,43.254,65.936,78.624c4.641,26.141-2.78,50.719-18.357,71.812c-10.439,14.136-20.962,27.053-28.239,43.254
	c-21.935,48.826-22.925,132.152-49.046,173.139c-18.422,28.898-83.449,28.638-107.757,79.099
	c-4.374,9.076-5.323,19.298-3.806,29.191c4.69,30.554,13.368,46.998-3.858,76.913l-3.964,2.754
	c-35.382,3.39-110.262,37.535-140.358,30.492c-10.172,3.311-20.077,6.903-28.796,13.28c-1.225,13.805,1.664,27.044,2.663,40.731
	c-10.605,11.962-24.073,21.697-33.735,34.327c-37.061-15.385-72.861-33.29-107.402-53.716l-2.191,0.044
	c-16.468,1.954-33.776,2.988-50.364,2.968l-1.453-2.604c-3.393-8.736-5.763-17.827-8.326-26.833
	c-0.817-7.025-4.321-15.439-6.381-22.313c-11.745-46.544-16.948-92.578-13.503-140.596c2.912-40.635,9.466-82.064,5.622-122.851
	c-7.424-78.765-53.171-108.088-108.091-154.225c-76.919-64.611-151.937-148.969-111.797-256.717
	c12.967-34.808,28.951-62.777,25.57-101.206c-0.393-1.192-0.776-2.391-1.222-3.565c-5.06-13.304-10.96-22.263-24.188-28.072
	C634.591,1551.069,655.313,1545.95,668.617,1538.272z"/>
<path style="fill:#0195D0;" d="M1115.271,1624.996c34.805,15.853,52.931,55.904,74.833,85.617
	c-5.423-2.036-10.846-4.101-16.058-6.642C1141.6,1688.163,1126.773,1657.739,1115.271,1624.996z"/>
<path style="fill:#0195D0;" d="M1377.619,1798.419c27.401,19.529,59.66,43.254,65.936,78.624
	c4.641,26.141-2.78,50.719-18.357,71.812c-10.439,14.136-20.962,27.053-28.239,43.254c-21.935,48.826-22.925,132.152-49.046,173.139
	c-18.422,28.898-83.449,28.638-107.757,79.099c-4.374,9.076-5.323,19.298-3.806,29.191c4.69,30.554,13.368,46.998-3.858,76.913
	l-3.964,2.754c-35.382,3.39-110.262,37.535-140.358,30.492c37.896-20.531,23.985-51.964,48.726-75.721
	c12.024-11.546,35.625-17.391,40.488-34.94c8.918-32.179-19.538-54.835,0.413-92.06c12.621-23.549,42.987-45.076,66.126-57.076
	c14.842-7.699,34.304-12.867,44.619-26.736c30.864-41.499,21.205-109.397,39.308-157.254c11.341-29.971,36.893-50.347,49.558-79.319
	C1386.871,1838.943,1386.086,1820.275,1377.619,1798.419z"/>
</svg>
