<svg id="Layer_1" enable-background="new 0 0 510 510" height="300" viewBox="0 0 510 510" width="300" xmlns="http://www.w3.org/2000/svg" version="1.1" xmlns:xlink="http://www.w3.org/1999/xlink" xmlns:svgjs="http://svgjs.dev/svgjs"><g width="100%" height="100%" transform="matrix(1,0,0,1,0,0)"><g><path d="m465 390.14v-390.14c-10.459 0-451.521 0-465 0v465h70l60 45h331.5c26.743 0 48.5-21.757 48.5-48.5v-23c0-25.565-19.886-46.559-45-48.36zm-90 29.86h30v60h-30zm-30 60h-179.046c8.61-18.597 8.853-40.879 0-60h179.046zm-315-450h210l-22.5 30h-187.5zm202.5 60 45-60h157.5v90h-405v-30zm-202.5 60h405v240h-305l-60 45h-40zm103.803 274.647c11.6 14.803 11.611 35.887 0 50.705l-33.803-25.352zm346.197 36.853c0 10.201-8.299 18.5-18.5 18.5h-26.5v-60h26.5c10.201 0 18.5 8.299 18.5 18.5z" fill="#1764f4" fill-opacity="1" data-original-color="#000000ff" stroke="none" stroke-opacity="1"/><path d="m300 60h30v30h-30z" fill="#1764f4" fill-opacity="1" data-original-color="#000000ff" stroke="none" stroke-opacity="1"/><path d="m360 60h30v30h-30z" fill="#1764f4" fill-opacity="1" data-original-color="#000000ff" stroke="none" stroke-opacity="1"/><path d="m75 315h315v30h-315z" fill="#1764f4" fill-opacity="1" data-original-color="#000000ff" stroke="none" stroke-opacity="1"/><path d="m75 255h315v30h-315z" fill="#1764f4" fill-opacity="1" data-original-color="#000000ff" stroke="none" stroke-opacity="1"/><path d="m75 195h150v30h-150z" fill="#1764f4" fill-opacity="1" data-original-color="#000000ff" stroke="none" stroke-opacity="1"/></g></g></svg>