<?xml version="1.0" encoding="utf-8"?>
<!-- Generator: Adobe Illustrator 27.5.0, SVG Export Plug-In . SVG Version: 6.00 Build 0)  -->
<svg version="1.1" xmlns="http://www.w3.org/2000/svg" xmlns:xlink="http://www.w3.org/1999/xlink" x="0px" y="0px"
	 viewBox="0 0 500 500" style="enable-background:new 0 0 500 500;" xml:space="preserve">
<g id="BACKGROUND">
	<g>
		<g>
			<rect style="fill:#FBF8F5;" width="500" height="500"/>
		</g>
		<path style="opacity:0.27;fill:#AFCAB7;" d="M469.36,156.055c-14,26-12,56-21,83c-13,42-61,46-99,48c-6,0-11,5-17,9
			c-24,18-38,48-69,51c-37,4-67-20-89-50c-28-41-44-84-86-111C61.015,169.082,31.003,161.895,0,165.321V500h500V118.381
			C487.443,128.408,476.893,140.989,469.36,156.055z"/>
		<polygon style="opacity:0.27;fill:#AFCAB7;" points="310.925,271.35 314.319,274.743 310.925,278.137 312.936,280.148 
			316.33,276.754 319.723,280.148 321.734,278.137 318.341,274.743 321.734,271.35 319.723,269.339 316.33,272.733 312.936,269.339 
					"/>
		<g style="opacity:0.22;">
			<path style="fill:#465A94;" d="M87.794,14.612c-0.888,0-1.608-0.72-1.608-1.608s0.72-1.608,1.608-1.608s1.608,0.72,1.608,1.608
				S88.683,14.612,87.794,14.612z"/>
			<path style="fill:#465A94;" d="M72.019,14.612c-0.888,0-1.608-0.72-1.608-1.608s0.72-1.608,1.608-1.608
				c0.888,0,1.608,0.72,1.608,1.608S72.907,14.612,72.019,14.612z"/>
			<circle style="fill:#465A94;" cx="72.019" cy="33.528" r="1.608"/>
			<path style="fill:#465A94;" d="M56.243,14.612c-0.888,0-1.608-0.72-1.608-1.608s0.72-1.608,1.608-1.608
				c0.888,0,1.608,0.72,1.608,1.608S57.131,14.612,56.243,14.612z"/>
			<circle style="fill:#465A94;" cx="56.243" cy="33.528" r="1.608"/>
			<path style="fill:#465A94;" d="M56.243,55.66c-0.888,0-1.608-0.72-1.608-1.608c0-0.888,0.72-1.608,1.608-1.608
				c0.888,0,1.608,0.72,1.608,1.608C57.851,54.94,57.131,55.66,56.243,55.66z"/>
			<path style="fill:#465A94;" d="M40.467,14.612c-0.888,0-1.608-0.72-1.608-1.608s0.72-1.608,1.608-1.608s1.608,0.72,1.608,1.608
				S41.355,14.612,40.467,14.612z"/>
			<path style="fill:#465A94;" d="M40.467,35.136c-0.888,0-1.608-0.72-1.608-1.608s0.72-1.608,1.608-1.608s1.608,0.72,1.608,1.608
				S41.355,35.136,40.467,35.136z"/>
			<path style="fill:#465A94;" d="M40.467,55.66c-0.888,0-1.608-0.72-1.608-1.608c0-0.888,0.72-1.608,1.608-1.608
				s1.608,0.72,1.608,1.608C42.075,54.94,41.355,55.66,40.467,55.66z"/>
			<path style="fill:#465A94;" d="M40.467,76.184c-0.888,0-1.608-0.72-1.608-1.608c0-0.888,0.72-1.608,1.608-1.608
				s1.608,0.72,1.608,1.608C42.075,75.464,41.355,76.184,40.467,76.184z"/>
			<path style="fill:#465A94;" d="M24.691,14.612c-0.888,0-1.608-0.72-1.608-1.608s0.72-1.608,1.608-1.608s1.608,0.72,1.608,1.608
				S25.579,14.612,24.691,14.612z"/>
			<circle style="fill:#465A94;" cx="24.691" cy="33.528" r="1.608"/>
			<path style="fill:#465A94;" d="M24.691,55.66c-0.888,0-1.608-0.72-1.608-1.608c0-0.888,0.72-1.608,1.608-1.608
				s1.608,0.72,1.608,1.608C26.299,54.94,25.579,55.66,24.691,55.66z"/>
			<circle style="fill:#465A94;" cx="24.691" cy="74.576" r="1.608"/>
			<circle style="fill:#465A94;" cx="24.691" cy="95.1" r="1.608"/>
			<path style="fill:#465A94;" d="M8.915,14.612c-0.888,0-1.608-0.72-1.608-1.608s0.72-1.608,1.608-1.608s1.608,0.72,1.608,1.608
				S9.803,14.612,8.915,14.612z"/>
			<circle style="fill:#465A94;" cx="8.915" cy="33.528" r="1.608"/>
			<path style="fill:#465A94;" d="M8.915,55.66c-0.888,0-1.608-0.72-1.608-1.608c0-0.888,0.72-1.608,1.608-1.608
				s1.608,0.72,1.608,1.608C10.523,54.94,9.803,55.66,8.915,55.66z"/>
			<circle style="fill:#465A94;" cx="8.915" cy="74.576" r="1.608"/>
			<circle style="fill:#465A94;" cx="8.915" cy="95.1" r="1.608"/>
			<path style="fill:#465A94;" d="M8.915,117.232c-0.888,0-1.608-0.72-1.608-1.608s0.72-1.608,1.608-1.608s1.608,0.72,1.608,1.608
				S9.803,117.232,8.915,117.232z"/>
		</g>
		<g>
			<path style="fill:#F46136;" d="M438.582,482.395c0.491,0,0.889,0.398,0.889,0.889c0,0.491-0.398,0.889-0.889,0.889
				c-0.491,0-0.889-0.398-0.889-0.889C437.693,482.793,438.091,482.395,438.582,482.395z"/>
			<path style="fill:#F46136;" d="M447.305,482.395c0.491,0,0.889,0.398,0.889,0.889c0,0.491-0.398,0.889-0.889,0.889
				s-0.889-0.398-0.889-0.889C446.416,482.793,446.814,482.395,447.305,482.395z"/>
			<circle style="fill:#F46136;" cx="447.305" cy="471.936" r="0.889"/>
			<path style="fill:#F46136;" d="M456.028,482.395c0.491,0,0.889,0.398,0.889,0.889c0,0.491-0.398,0.889-0.889,0.889
				s-0.889-0.398-0.889-0.889C455.139,482.793,455.537,482.395,456.028,482.395z"/>
			<circle style="fill:#F46136;" cx="456.028" cy="471.936" r="0.889"/>
			<circle style="fill:#F46136;" cx="456.028" cy="460.587" r="0.889"/>
			<path style="fill:#F46136;" d="M464.751,482.395c0.491,0,0.889,0.398,0.889,0.889c0,0.491-0.398,0.889-0.889,0.889
				c-0.491,0-0.889-0.398-0.889-0.889C463.861,482.793,464.26,482.395,464.751,482.395z"/>
			<circle style="fill:#F46136;" cx="464.751" cy="471.936" r="0.889"/>
			<circle style="fill:#F46136;" cx="464.751" cy="460.587" r="0.889"/>
			<circle style="fill:#F46136;" cx="464.751" cy="449.239" r="0.889"/>
			<path style="fill:#F46136;" d="M473.473,482.395c0.491,0,0.889,0.398,0.889,0.889c0,0.491-0.398,0.889-0.889,0.889
				c-0.491,0-0.889-0.398-0.889-0.889C472.584,482.793,472.982,482.395,473.473,482.395z"/>
			<circle style="fill:#F46136;" cx="473.473" cy="471.936" r="0.889"/>
			<circle style="fill:#F46136;" cx="473.473" cy="460.587" r="0.889"/>
			<circle style="fill:#F46136;" cx="473.473" cy="449.239" r="0.889"/>
			<circle style="fill:#F46136;" cx="473.473" cy="437.891" r="0.889"/>
			<path style="fill:#F46136;" d="M482.196,482.395c0.491,0,0.889,0.398,0.889,0.889c0,0.491-0.398,0.889-0.889,0.889
				s-0.889-0.398-0.889-0.889C481.307,482.793,481.705,482.395,482.196,482.395z"/>
			<circle style="fill:#F46136;" cx="482.196" cy="471.936" r="0.889"/>
			<circle style="fill:#F46136;" cx="482.196" cy="460.587" r="0.889"/>
			<circle style="fill:#F46136;" cx="482.196" cy="449.239" r="0.889"/>
			<circle style="fill:#F46136;" cx="482.196" cy="437.891" r="0.889"/>
			<path style="fill:#F46136;" d="M482.196,425.654c0.491,0,0.889,0.398,0.889,0.889c0,0.491-0.398,0.889-0.889,0.889
				s-0.889-0.398-0.889-0.889C481.307,426.052,481.705,425.654,482.196,425.654z"/>
		</g>
		<g>
			<polygon style="fill:#FBF8F5;" points="46.081,257.771 37.147,267.973 45.313,277.298 37.147,286.623 45.349,295.99 
				37.147,305.356 46.081,315.558 46.081,313.781 38.725,305.381 47.003,295.929 38.801,286.563 47.003,277.196 38.814,267.845 
				46.081,259.548 			"/>
		</g>
		<g style="opacity:0.32;">
			<path style="fill:#FEBC10;" d="M156.222,43.492c-1.303,6.993-8.029,11.605-15.022,10.301
				c-6.993-1.303-11.605-8.029-10.301-15.022c1.304-6.993,8.029-11.605,15.022-10.301C152.914,29.774,157.526,36.499,156.222,43.492
				z"/>
			<g>
				<g>
					<path style="fill:#211F1C;" d="M150.985,22.68c6.688,0,12.129,5.441,12.129,12.13s-5.441,12.129-12.129,12.129
						c-6.688,0-12.13-5.441-12.13-12.129S144.297,22.68,150.985,22.68 M150.985,21.93c-7.113,0-12.88,5.766-12.88,12.88
						c0,7.113,5.766,12.879,12.88,12.879c7.113,0,12.879-5.766,12.879-12.879C163.864,27.696,158.098,21.93,150.985,21.93
						L150.985,21.93z"/>
				</g>
			</g>
		</g>
		<g>
			<path style="fill:#465A94;" d="M472.584,292.334c-1.972,0-3.57,1.599-3.57,3.57c0,1.972,1.599,3.57,3.57,3.57
				c1.972,0,3.57-1.599,3.57-3.57C476.155,293.933,474.556,292.334,472.584,292.334z M472.584,298.297
				c-1.321,0-2.393-1.071-2.393-2.392c0-1.321,1.071-2.393,2.393-2.393c1.321,0,2.393,1.071,2.393,2.393
				C474.977,297.226,473.906,298.297,472.584,298.297z"/>
		</g>
		<g style="opacity:0.22;">
			<polygon style="fill:#AFCAB7;" points="436.787,121.557 451.77,100.754 464.785,121.557 			"/>
			<g>
				<path style="fill:#211F1C;" d="M461.329,97.774l11.706,18.708h-25.18L461.329,97.774 M461.373,96.43l-14.983,20.802h27.999
					L461.373,96.43L461.373,96.43z"/>
			</g>
		</g>
		<path style="opacity:0.32;fill:#FF941E;" d="M187.791,402.121c-7.899,0-14.302,6.403-14.302,14.302h28.604
			C202.093,408.525,195.689,402.121,187.791,402.121z"/>
		<path style="opacity:0.32;fill:#465A94;" d="M401.344,29.861c4.479,0,8.111,3.631,8.111,8.111h3.993
			c0-6.684-5.419-12.103-12.103-12.103c-6.685,0-12.104,5.419-12.104,12.103h3.993C393.233,33.492,396.864,29.861,401.344,29.861z"
			/>
		<path style="opacity:0.32;fill:#465A94;" d="M55.792,383.318c0-4.479,3.631-8.111,8.111-8.111v-3.993
			c-6.684,0-12.103,5.419-12.103,12.103c0,6.684,5.419,12.103,12.103,12.103v-3.993C59.423,391.428,55.792,387.797,55.792,383.318z"
			/>
	</g>
</g>
<g id="OBJECTS">
	<g>
		<g>
			<path style="fill:#1D253D;" d="M230.521,96.034v65.939h-28.967c-2.568,0-4.654-2.087-4.654-4.661v-56.624
				c0-2.574,2.086-4.654,4.654-4.654H230.521z"/>
			<path style="fill:#FEA30A;" d="M343.293,127.254c-2.979,28.036-18.9,34.719-18.9,34.719h-93.872V96.034
				c26.341-5.065,38.885-37.505,36.17-53.773c0.481-3.659,0.488-7.056,0.019-9.944c1.862-5.566,7.351-4.449,7.351-4.449
				c18.111,2.838,19.144,40.413,19.003,52.663c-0.026,2.125,1.605,3.903,3.73,4.051c6.921,0.469,22.014,1.836,35.239,5.297
				c8.68,2.273,12.281,4.545,13.347,9.514C346.51,104.63,344.822,112.867,343.293,127.254z"/>
		</g>
		<g>
			<path style="fill:#465A94;" d="M230.521,96.034v55.898h-28.967c-2.568,0-4.654-2.086-4.654-4.654v-46.589
				c0-2.574,2.086-4.654,4.654-4.654H230.521z"/>
			<path style="fill:#FEB12F;" d="M345.38,99.392c-0.462,4.584-1.297,10.381-2.087,17.822c-2.979,28.036-18.9,34.719-18.9,34.719
				h-93.872c0,0,0-55.898,0-55.898c13.13-2.525,23.351-12.234,29.545-23.706c4.468-8.275,5.865-17.611,6.457-26.88
				c0.346-5.416-1.764-19.474,7.538-17.581c18.111,2.838,19.144,40.413,19.003,52.663c-0.026,2.125,1.605,3.903,3.73,4.051
				c6.921,0.469,22.014,1.836,35.239,5.297C340.713,92.15,344.314,94.423,345.38,99.392z"/>
		</g>
		<path style="fill:#BF6D3E;" d="M307.861,161.971h14.129l-6.827,7.456v8.079h-10.041v-6.98c0-1.599,0.337-3.181,0.99-4.641
			L307.861,161.971z"/>
		<g>
			<path style="fill:#BF6D3E;" d="M307.458,168.426c1.542-0.751,2.567-2.456,2.508-4.171c-0.059-1.715-1.2-3.344-2.791-3.987
				c-0.276-2.762-2.776-4.925-5.509-5.41c1.958,4.517,3.226,9.332,3.747,14.227L307.458,168.426z"/>
			<path style="fill:#80410E;" d="M305.245,156.198c0.998,0.374,1.337,1.465,1.555,2.409c0.125,0.543,0.241,1.14,0.599,1.587
				c0.369,0.46,0.97,0.668,1.444,0.996c0.957,0.663,1.616,1.634,1.741,2.805c0.137,1.28-0.327,2.544-0.768,3.721
				c-0.144,0.386-0.711,0.084-0.568-0.299c0.414-1.107,0.86-2.328,0.678-3.529c-0.18-1.183-1.026-1.952-2.016-2.514
				c-0.43-0.244-0.835-0.512-1.119-0.927c-0.263-0.383-0.406-0.84-0.518-1.286c-0.218-0.876-0.358-2.031-1.326-2.394
				C304.56,156.622,304.863,156.055,305.245,156.198z"/>
		</g>
		<path style="fill:#BF6D3E;" d="M216.318,161.971h-14.129l6.827,7.456v8.079h10.041v-6.98c0-1.599-0.337-3.181-0.99-4.641
			L216.318,161.971z"/>
		<g>
			<path style="fill:#465A94;" d="M276.412,235.346c8.426-5.483,16.107-12.108,22.769-19.637
				c2.348-13.269,3.711-27.494,4.685-40.934c4.117-0.415,8.742-0.631,12.863-0.25c3.097,18.07,4.309,36.195,3.075,54.487
				c-11.344,11.214-23.451,23.732-34.795,34.946L276.412,235.346z"/>
			<path style="fill:#1D253D;" d="M318.557,220.779c0.678-0.949,1.235-1.928,1.696-2.928c-0.053,3.714-0.198,7.434-0.449,11.16
				c-11.344,11.214-23.451,23.732-34.795,34.946l-1.998-6.649C295.568,246.004,307.972,234.453,318.557,220.779z"/>
			<path style="fill:#1D253D;" d="M304.902,181.145c2.861,0.068,5.721,0.136,8.582,0.204c0.411,0.01,0.442,0.651,0.028,0.641
				c-2.861-0.068-5.721-0.136-8.582-0.204C304.52,181.777,304.488,181.135,304.902,181.145z"/>
		</g>
		<g>
			<path style="fill:#465A94;" d="M247.648,235.346c-8.426-5.483-16.107-12.108-22.769-19.637
				c-2.348-13.269-3.711-27.494-4.685-40.934c-4.117-0.415-8.742-0.631-12.863-0.25c-3.097,18.07-4.309,36.195-3.075,54.487
				c11.344,11.214,23.451,23.732,34.795,34.946L247.648,235.346z"/>
			<path style="fill:#1D253D;" d="M239.592,254.163c0.191,2.147,0.342,4.298,0.463,6.45l-1.005,3.344
				c-11.344-11.214-23.451-23.732-34.795-34.946c-0.327-4.851-0.478-9.69-0.471-14.52
				C210.01,231.116,224.11,243.842,239.592,254.163z"/>
			<path style="fill:#1D253D;" d="M208.026,181.634c3.788-0.192,7.576-0.384,11.364-0.575c0.413-0.021,0.441,0.62,0.028,0.641
				c-3.788,0.192-7.576,0.384-11.364,0.575C207.642,182.296,207.613,181.655,208.026,181.634z"/>
		</g>
		<g>
			<g>
				<g>
					<path style="fill:#001E4A;" d="M234.108,435.35c0.004,1.571,0.014,3.099,0.034,4.566h9.114l0.509-4.566H234.108z"/>
					<path style="fill:#001E4A;" d="M279.231,435.35c0.004,1.571,0.014,3.099,0.034,4.566h9.114l0.509-4.566H279.231z"/>
					<path style="fill:#1D253D;" d="M289.205,311.121c-24.145,2.656-27.642,16.471-27.642,16.471l9.751,57.584l5.119,52.742h16.246
						C297.585,371.969,289.205,311.121,289.205,311.121z"/>
					<path style="fill:#465A94;" d="M268.051,326.8c0,0,10.741-6.881,11.999-12.903l-43.528,1.434c0,0-6.061,77.764-5.889,120.019
						h16.608L268.051,326.8z"/>
					<path style="fill:#465A94;" d="M266.829,333.176L247.24,437.918h-16.608c-0.128-31.442,3.195-85.105,4.904-109.2
						C245.658,331.977,256.232,333.621,266.829,333.176z"/>
					<path style="fill:#1D253D;" d="M235.536,328.718c0.588-8.286,0.985-13.387,0.985-13.387l43.528-1.434
						c-1.258,6.021-11.999,12.903-11.999,12.903l-1.222,6.375C256.232,333.621,245.658,331.977,235.536,328.718z"/>
					<path style="fill:#1D253D;" d="M276.356,319.948c2.132-2.141,3.998-4.583,4.482-6.901l-40.745-1.927c0,0-0.331,4.38-0.487,6.2
						C251.754,320.148,264.18,321.204,276.356,319.948z"/>
				</g>
				<g>
					<path style="fill:#001E4A;" d="M243.771,439.232l-10.667-0.293c-2.972,3.093-5.091,6.985-6.128,11.146h19.259
						C245.846,446.382,245.052,442.738,243.771,439.232z"/>
					<path style="fill:#A86114;" d="M226.976,450.085c-0.099,0.399-0.201,0.796-0.28,1.199c-0.124,0.632,0.349,1.225,0.993,1.225
						h17.657c0.588,0,1.061-0.5,1.015-1.086c-0.035-0.447-0.079-0.893-0.126-1.338H226.976z"/>
				</g>
				<g>
					<path style="fill:#001E4A;" d="M278.655,439.232l10.667-0.293c2.972,3.093,20.872,6.985,21.909,11.146h-35.04
						C276.58,446.382,277.375,442.738,278.655,439.232z"/>
					<path style="fill:#A86114;" d="M311.231,450.085c0.099,0.399,0.202,0.796,0.281,1.199c0.124,0.632-0.349,1.225-0.993,1.225
						H277.08c-0.588,0-1.061-0.5-1.015-1.086c0.035-0.447,0.079-0.893,0.126-1.338H311.231z"/>
				</g>
			</g>
			<path style="fill:#1D253D;" d="M242.561,389.397c-1.323-2.273-2.706-4.487-3.802-6.884c-1.108-2.423-1.899-4.943-2.7-7.478
				c-0.098-0.31-0.539-0.181-0.482,0.133c0.48,2.632,1.433,5.194,2.515,7.634c1.079,2.434,2.332,4.87,3.999,6.957
				C242.306,390.029,242.727,389.684,242.561,389.397z"/>
			<path style="fill:#1D253D;" d="M233.282,433.797h10.586c0.412,0,0.442,0.641,0.028,0.641H233.31
				C232.898,434.438,232.867,433.797,233.282,433.797z"/>
		</g>
		<g>
			<path style="fill:#A6F3FF;" d="M284.892,243.124c-0.133-2.831-2.103-5.278-5.026-6.342c-6.202-2.256-13.156-2.95-19.932-2.499
				c-6.219,0.414-12.324,1.739-18.287,3.494c-3.886,1.144-6.316,4.617-5.72,8.19c3.555,21.294,4.767,43.219,3.391,64.75
				c15.956,4.629,31.873,5.979,46.958,0.709C286.792,289.387,285.926,265.198,284.892,243.124z"/>
			<path style="fill:#47BED1;" d="M262.41,240.415c-1.744,0.886-3.388,1.974-4.878,3.244c-0.645-1.199-1.244-2.427-1.865-3.638
				c-0.341-0.665-0.683-1.329-1.027-1.992c-0.334-0.645-0.635-1.378-1.09-1.947c-0.188-0.235-0.552,0.021-0.482,0.281
				c0.182,0.677,0.595,1.338,0.906,1.963c0.345,0.693,0.691,1.385,1.04,2.077c0.683,1.357,1.409,2.701,2.048,4.079
				c0.117,0.252,0.449,0.231,0.627,0.081c1.583-1.337,3.273-2.518,5.098-3.502C263.213,240.831,262.837,240.198,262.41,240.415z"/>
			<path style="fill:#47BED1;" d="M268.709,240.426c-0.025-0.581-0.041-1.163-0.049-1.744c-0.007-0.517,0.118-1.209-0.131-1.677
				c-0.093-0.174-0.36-0.168-0.455,0c-0.25,0.446-0.135,1.114-0.129,1.61c0.007,0.604,0.022,1.208,0.047,1.812
				c0.039,0.967,0.108,1.931,0.192,2.895c-0.798-0.455-1.596-0.91-2.395-1.363c-0.49-0.278-0.983-0.549-1.476-0.82
				c-0.489-0.269-0.971-0.599-1.527-0.7c-0.194-0.035-0.322,0.174-0.19,0.327c0.37,0.428,0.895,0.673,1.375,0.957
				c0.484,0.287,0.969,0.573,1.457,0.854c0.996,0.572,1.992,1.143,2.99,1.711c0.219,0.125,0.573-0.029,0.544-0.312
				C268.845,242.794,268.76,241.611,268.709,240.426z"/>
			<polygon style="fill:#DD4F05;" points="262.596,240.765 260.33,242.557 261.463,244.33 261.253,304.666 265.753,307.01 
				269.576,304.666 264.303,244.674 264.953,242.299 			"/>
			<path style="fill:#465A94;" d="M234.555,250.246c-0.765-5.152,1.344-10.734,5.501-12.245c3.111-1.131,7.039-2.197,10.504-2.447
				c2.814,11.726,14.393,35.693,14.393,35.693s9.006-27.427,3.709-36.88c3.383-0.175,9.832,0.781,13.224,2.51
				c3.192,1.627,5.193,6.878,5.432,10.947c1.478,25.165,6.18,51.322,8.161,76.847c-2.456,1.149-5.671,1.176-8.317,1.414
				c-4.309,0.388-8.637,0.585-12.96,0.745c-14.021,0.519-27.882,0.069-41.137-5.027
				C234.989,297.897,238.092,274.058,234.555,250.246z"/>
			<path style="fill:#1D253D;" d="M239.592,254.163c2.02,22.731,0.065,45.858-4.3,68.446c-0.744-0.256-1.486-0.521-2.227-0.806
				c1.91-23.747,4.982-47.428,1.556-71.083C236.258,251.896,237.915,253.045,239.592,254.163z"/>
			<g>
				<path style="fill:#1D253D;" d="M273.125,255.555l4.754-1.628c0.396-0.136,0.792-0.271,1.188-0.407
					c0.345-0.118,0.73-0.208,1.051-0.386c0.684-0.379,0.418-1.189,0.223-1.786c-1.052-3.219-2.117-6.433-3.176-9.649
					c-0.129-0.393,0.482-0.59,0.611-0.198c0.9,2.735,1.8,5.47,2.7,8.205c0.21,0.637,0.456,1.274,0.62,1.925
					c0.118,0.47,0.183,1.001-0.044,1.45c-0.23,0.453-0.682,0.666-1.138,0.826c-0.66,0.232-1.324,0.454-1.986,0.68
					c-1.535,0.526-3.07,1.051-4.606,1.577C272.931,256.3,272.734,255.689,273.125,255.555z"/>
				<path style="fill:#1D253D;" d="M273.532,255.721c1.789,1.855,3.577,3.71,5.366,5.565c0.286,0.296-0.146,0.772-0.434,0.473
					c-1.789-1.855-3.577-3.71-5.366-5.565C272.813,255.898,273.245,255.423,273.532,255.721z"/>
				<path style="fill:#1D253D;" d="M266.273,276.557c4.057-5.09,8.114-10.179,12.171-15.269c0.258-0.324,0.73,0.112,0.474,0.434
					c-4.057,5.09-8.114,10.18-12.171,15.269C266.488,277.315,266.016,276.879,266.273,276.557z"/>
			</g>
			<g>
				<path style="fill:#1D253D;" d="M253.536,256.68l-4.934-0.95c-0.411-0.079-0.822-0.158-1.234-0.238
					c-0.358-0.069-0.752-0.104-1.094-0.236c-0.73-0.28-0.579-1.119-0.469-1.738c0.593-3.334,1.201-6.665,1.802-9.997
					c0.073-0.407-0.559-0.517-0.632-0.111c-0.511,2.834-1.021,5.668-1.532,8.501c-0.119,0.66-0.274,1.325-0.346,1.992
					c-0.052,0.482-0.042,1.017,0.246,1.43c0.29,0.416,0.768,0.564,1.242,0.66c0.686,0.138,1.374,0.265,2.061,0.397
					c1.593,0.307,3.187,0.614,4.78,0.921C253.831,257.391,253.941,256.758,253.536,256.68z"/>
				<path style="fill:#1D253D;" d="M253.155,256.901c-1.513,2.086-3.026,4.172-4.539,6.257c-0.242,0.333,0.252,0.744,0.495,0.408
					c1.513-2.086,3.026-4.172,4.539-6.257C253.892,256.976,253.398,256.566,253.155,256.901z"/>
				<path style="fill:#1D253D;" d="M263.244,276.525c-4.726-4.475-9.452-8.951-14.178-13.427c-0.301-0.285-0.707,0.212-0.409,0.495
					c4.726,4.475,9.452,8.951,14.178,13.427C263.136,277.304,263.543,276.808,263.244,276.525z"/>
			</g>
			<path style="fill:#1D253D;" d="M265.261,272.313c0.458,7.184,0.816,14.374,1.072,21.568c0.256,7.194,0.411,14.392,0.465,21.59
				c0.03,4.052,0.028,8.105-0.005,12.158c-0.003,0.412-0.645,0.442-0.641,0.028c0.059-7.198,0.019-14.397-0.123-21.595
				c-0.142-7.197-0.386-14.392-0.73-21.583c-0.194-4.048-0.421-8.094-0.678-12.139C264.594,271.929,265.235,271.901,265.261,272.313
				z"/>
			<path style="fill:#1D253D;" d="M276.397,304.978c3.779,1.059,7.818,0.896,11.498-0.465c0.388-0.143,0.584,0.468,0.198,0.611
				c-3.78,1.397-7.959,1.566-11.839,0.479C275.857,305.493,275.997,304.866,276.397,304.978z"/>
			<path style="fill:#1D253D;" d="M241.884,305.821c3.779,1.059,7.818,0.896,11.498-0.464c0.388-0.144,0.584,0.468,0.198,0.611
				c-3.78,1.397-7.959,1.566-11.839,0.479C241.345,306.336,241.485,305.709,241.884,305.821z"/>
		</g>
		<g>
			<path style="fill:#7A2923;" d="M274.029,214.147c1.135-3.898,0.855-8.192-0.778-11.91c0.217-0.911,0.041-1.965-0.423-2.778
				c-0.464-0.813-1.188-1.46-2.004-1.918c-1.098-0.615-2.429-0.896-3.634-0.534c-1.205,0.362-2.22,1.454-2.273,2.711
				c-0.934-0.557-1.712-1.114-2.739-1.47c-1.027-0.356-2.159-0.498-3.204-0.2c-1.046,0.298-1.985,1.086-2.281,2.132
				c-0.296,1.046,0.179,2.309,1.171,2.753c-0.801-0.975-2.644-1.161-3.802-0.659c-1.158,0.502-1.989,1.574-2.482,2.735
				c-0.392,0.923-0.6,1.95-0.42,2.937c0.18,0.987,0.79,1.923,1.701,2.343c-1.723,0.859-2.281,2.953-1.924,4.845
				c0.358,1.891,1.547,3.512,2.803,4.971c1.256,1.458,2.632,2.855,3.494,4.576L274.029,214.147z"/>
			<path style="fill:#3B1411;" d="M273.477,214.542c1.009-3.752,0.76-7.885-0.691-11.463c0.193-0.876,0.036-1.891-0.376-2.674
				c-0.413-0.782-1.055-1.406-1.781-1.846c-0.976-0.592-2.159-0.863-3.23-0.514c-1.071,0.348-1.973,1.4-2.02,2.609
				c-0.83-0.536-1.521-1.072-2.434-1.415c-0.913-0.343-1.919-0.479-2.848-0.193c-0.929,0.286-1.764,1.045-2.027,2.052
				c-0.263,1.007,0.159,2.223,1.041,2.65c-0.712-0.938-2.35-1.117-3.379-0.635c-1.029,0.483-1.768,1.514-2.206,2.632
				c-0.348,0.889-0.534,1.877-0.373,2.827c0.16,0.95,0.702,1.851,1.512,2.255c-1.531,0.827-2.028,2.843-1.71,4.663
				c0.318,1.82,1.375,3.38,2.492,4.784c1.117,1.404,2.339,2.748,3.106,4.405L273.477,214.542z"/>
			<g>
				<g>
					<g>
						<g>
							<path style="fill:#BF6D3E;" d="M255.717,219.488c0.406,5.19,0.286,10.421-0.357,15.588c-0.13,1.045,0.313,2.079,1.176,2.683
								c2.381,1.667,5.418,2.404,8.273,1.975c1.452-0.218,2.471-1.553,2.35-3.016c-0.278-3.357-0.363-6.546-0.283-10.02
								C264.033,223.094,260.087,220.893,255.717,219.488z"/>
							<path style="fill:#80410E;" d="M266.876,226.698c-2.842-3.604-6.789-5.805-11.158-7.21c0.107,1.366,0.175,2.734,0.209,4.104
								c1.718,5.771,6.202,9.359,11.081,10.774C266.863,231.843,266.815,229.352,266.876,226.698z"/>
						</g>
						<g>
							<path style="fill:#BF6D3E;" d="M274.087,211.026c0.967,7.248-0.548,19.663-6.02,20.226
								c-6.434,0.662-10.382-5.063-11.817-10.335c0.025,0.09-0.589,0.432-1.216,0.395c-0.619-0.036-1.441-0.766-1.78-1.274
								c-0.655-0.981-1.321-2.509-0.617-3.63c0.847-1.349,2.723-1.625,3.515-0.04c-0.059-2.637,0.798-5.079,1.713-7.542
								c0.3-0.807,0.934-1.454,1.747-1.737c3.716-1.292,8.283-1.374,12.061-0.245c0.941,0.281,1.654,1.047,1.928,1.99
								C273.825,209.603,274.007,210.423,274.087,211.026z"/>
							<path style="fill:#3B1411;" d="M266.332,211.477c-1.167-1.481-4.376-0.459-5.557,0.492c-0.216,0.174-0.476,0.396-0.45,0.703
								c0.014,0.159,0.101,0.297,0.261,0.343c0.363,0.104,0.707-0.197,1.01-0.355c0.4-0.209,0.823-0.367,1.264-0.465
								c0.543-0.121,1.107-0.154,1.66-0.095c0.536,0.057,1.049,0.307,1.589,0.226C266.53,212.262,266.537,211.737,266.332,211.477z"
								/>
							<path style="fill:#3B1411;" d="M264.625,214.074c-0.029-0.088-0.078-0.165-0.147-0.229c-0.065-0.07-0.141-0.118-0.229-0.147
								c-0.085-0.045-0.176-0.065-0.274-0.061c-0.063,0.008-0.126,0.017-0.189,0.025c-0.121,0.034-0.225,0.095-0.314,0.183
								c-0.037,0.048-0.074,0.096-0.111,0.144c-0.064,0.111-0.097,0.231-0.097,0.359v0.076c-0.004,0.098,0.017,0.19,0.061,0.275
								c0.029,0.088,0.078,0.165,0.147,0.229c0.064,0.069,0.141,0.118,0.229,0.147c0.085,0.045,0.176,0.065,0.274,0.061l0.189-0.025
								c0.121-0.034,0.225-0.095,0.314-0.183c0.037-0.048,0.074-0.096,0.111-0.144c0.064-0.111,0.097-0.231,0.097-0.36v-0.076
								C264.69,214.25,264.67,214.159,264.625,214.074z"/>
							<path style="fill:#3B1411;" d="M272.421,214.515c-0.029-0.088-0.078-0.165-0.147-0.229c-0.064-0.07-0.141-0.119-0.229-0.147
								c-0.085-0.045-0.176-0.065-0.275-0.061c-0.063,0.008-0.126,0.017-0.189,0.025c-0.121,0.034-0.225,0.095-0.314,0.183
								c-0.037,0.048-0.074,0.096-0.111,0.144c-0.064,0.111-0.097,0.231-0.097,0.359v0.076c-0.004,0.098,0.017,0.19,0.061,0.274
								c0.029,0.088,0.078,0.165,0.147,0.229c0.065,0.07,0.141,0.119,0.229,0.147c0.085,0.045,0.176,0.065,0.274,0.061l0.189-0.025
								c0.121-0.034,0.225-0.095,0.314-0.183c0.037-0.048,0.074-0.096,0.111-0.144c0.064-0.111,0.097-0.231,0.097-0.359v-0.076
								C272.486,214.691,272.466,214.6,272.421,214.515z"/>
							<path style="fill:#3B1411;" d="M273.831,212.505c-0.276-0.536-0.87-0.813-1.441-0.963c-0.557-0.147-1.126-0.171-1.686-0.032
								c-0.258,0.064-0.416,0.331-0.382,0.585c0.058,0.433,0.425,0.448,0.769,0.452c0.463,0.005,0.903,0.066,1.333,0.248
								c0.288,0.122,1.799,0.878,1.496-0.077C273.895,212.643,273.866,212.572,273.831,212.505z"/>
							<path style="fill:#804E26;" d="M267.182,226.698c-0.211-0.065-0.473-0.001-0.692-0.001c-0.198,0-0.443-0.014-0.61-0.038
								c-0.212-0.03-0.424-0.075-0.632-0.128c-0.227-0.058-0.441-0.159-0.679-0.138c-0.252,0.022-0.342,0.277-0.194,0.468
								c0.16,0.206,0.42,0.282,0.658,0.363c0.226,0.077,0.456,0.132,0.692,0.168c0.246,0.037,0.493,0.063,0.742,0.068
								c0.253,0.005,0.578,0.027,0.802-0.104C267.541,227.196,267.474,226.789,267.182,226.698z"/>
							<path style="fill:#804E26;" d="M255.568,219.089c-0.223,0.076-0.538-0.038-0.589-0.299c-0.026-0.133,0.042-0.243,0.125-0.346
								c0.079-0.1,0.197-0.158,0.313-0.16c0.184-0.002,0.325-0.18,0.275-0.36c-0.214-0.762-0.822-1.54-1.701-1.452
								c-0.389,0.039-0.743,0.259-0.908,0.621c-0.077,0.169-0.094,0.355-0.047,0.535c0.027,0.104,0.157,0.371,0.304,0.238
								c0.087-0.08,0.06-0.197,0.089-0.3c0.031-0.109,0.076-0.213,0.14-0.307c0.13-0.191,0.351-0.264,0.575-0.242
								c0.448,0.043,0.735,0.396,0.902,0.786c-0.402,0.181-0.66,0.626-0.538,1.085c0.133,0.498,0.699,0.824,1.193,0.674
								C256.001,219.47,255.867,218.987,255.568,219.089z"/>
						</g>
					</g>
					<path style="fill:#80410E;" d="M270.629,218.181c-0.332-0.309-0.74-0.509-1.107-0.771c-0.405-0.29-0.568-0.611-0.517-1.105
						c0.035-0.338-0.421-0.379-0.58-0.157c-0.484,0.677,0.176,1.521,0.717,1.913c0.325,0.236,0.696,0.405,0.983,0.691
						c0.253,0.253,0.441,0.573,0.549,0.913c0.221,0.699,0.111,1.457-0.351,2.033c-0.495,0.618-1.158,0.782-1.885,0.968
						c-0.231,0.059-0.217,0.389,0,0.455c0.756,0.229,1.61-0.181,2.169-0.672c0.61-0.536,0.955-1.331,0.942-2.143
						C271.535,219.518,271.21,218.722,270.629,218.181z"/>
				</g>
				<path style="fill:#3B1411;" d="M268.192,225.231c-2.308,0.679-4.796-0.221-6.122-2.228c-0.228-0.346,0.311-0.694,0.539-0.35
					c1.166,1.765,3.352,2.566,5.384,1.967C268.389,224.504,268.589,225.114,268.192,225.231z"/>
			</g>
		</g>
		<path style="fill:#1D253D;" d="M287.44,246.954c0.495,9.596,1.364,19.172,2.611,28.699c0.349,2.67,0.729,5.335,1.136,7.997
			c0.063,0.408-0.579,0.433-0.641,0.028c-1.455-9.498-2.539-19.052-3.243-28.635c-0.197-2.685-0.365-5.373-0.503-8.062
			C286.778,246.569,287.419,246.54,287.44,246.954z"/>
		<g>
			<path style="fill:#BF6D3E;" d="M216.72,168.426c-1.542-0.751-2.567-2.456-2.508-4.171c0.059-1.715,1.2-3.344,2.791-3.987
				c0.276-2.762,2.776-4.925,5.509-5.41c-1.958,4.517-3.226,9.332-3.747,14.227L216.72,168.426z"/>
			<path style="fill:#80410E;" d="M218.933,156.198c-0.998,0.374-1.337,1.465-1.555,2.409c-0.125,0.543-0.241,1.14-0.598,1.587
				c-0.369,0.46-0.97,0.668-1.444,0.996c-0.957,0.663-1.616,1.634-1.741,2.805c-0.137,1.28,0.327,2.544,0.768,3.721
				c0.144,0.386,0.711,0.084,0.568-0.299c-0.414-1.107-0.86-2.328-0.677-3.529c0.18-1.183,1.026-1.952,2.016-2.514
				c0.431-0.244,0.835-0.512,1.119-0.927c0.263-0.383,0.406-0.84,0.518-1.286c0.218-0.876,0.358-2.031,1.326-2.394
				C219.618,156.622,219.316,156.055,218.933,156.198z"/>
		</g>
	</g>
	<g>
		<path style="fill:#96432A;" d="M379.572,211.276c4.601,1.308,8.269,5.442,9.02,10.166c0.173,1.089,0.223,2.256,0.846,3.167
			c0.661,0.966,1.914,1.559,2.173,2.701c0.276,1.214-0.727,2.562-0.15,3.666c0.588,1.125,2.404,1.126,2.968,2.264
			c0.624,1.259-0.793,2.825-0.22,4.109c0.521,1.169,2.176,1.143,3.273,1.801c1.014,0.608,1.524,1.848,1.518,3.03
			c-0.005,1.182-0.451,2.318-0.985,3.373c-3.159,6.253-9.588,10.509-16.451,11.912c-6.864,1.403-14.086,0.167-20.546-2.542
			c-1.537-0.644-3.095-1.414-4.127-2.722c-1.032-1.308-1.382-3.294-0.391-4.634c0.372-0.503,0.908-0.891,1.173-1.458
			c0.936-1.998-2.04-4.028-1.599-6.19c0.239-1.17,1.382-1.884,2.36-2.569c0.978-0.686,1.98-1.73,1.727-2.897
			c-0.125-0.575-0.542-1.051-0.677-1.623c-0.351-1.484,1.2-2.627,2.18-3.796c1.746-2.082,1.849-5.026,2.188-7.723
			C364.786,213.87,372.283,209.203,379.572,211.276z"/>
		<path style="fill:#6C301E;" d="M379.452,213.926c4.34,1.234,7.8,5.134,8.509,9.59c0.164,1.027,0.211,2.128,0.798,2.987
			c0.623,0.911,1.806,1.471,2.05,2.547c0.26,1.146-0.685,2.417-0.141,3.458c0.555,1.061,2.268,1.063,2.799,2.136
			c0.589,1.188-0.748,2.665-0.208,3.876c0.492,1.102,2.053,1.078,3.088,1.699c0.956,0.573,1.437,1.743,1.432,2.858
			c-0.005,1.115-0.426,2.186-0.929,3.182c-2.981,5.898-9.045,9.913-15.519,11.236c-6.475,1.323-13.287,0.158-19.382-2.398
			c-1.45-0.608-2.92-1.334-3.893-2.568c-0.974-1.234-1.303-3.107-0.368-4.371c0.351-0.475,0.856-0.841,1.107-1.376
			c0.883-1.885-1.925-3.8-1.508-5.84c0.225-1.104,1.304-1.777,2.226-2.424c0.922-0.647,1.868-1.632,1.629-2.733
			c-0.117-0.542-0.511-0.991-0.639-1.531c-0.331-1.4,1.132-2.478,2.056-3.581c1.647-1.964,1.744-4.742,2.064-7.285
			C365.504,216.374,372.576,211.971,379.452,213.926z"/>
		<g>
			<path style="fill:#FF941E;" d="M422.471,229.645c0.026-0.82-0.517-1.576-1.207-2.02c-0.69-0.444-1.511-0.629-2.317-0.782
				c-2.358-0.447-4.756-0.686-7.157-0.712c-1.242-0.014-2.313,0.874-2.554,2.092c-0.124,0.625-0.242,1.248-0.273,1.839
				c-1.629,1.116-1.567,3.644-1.292,5.599c-3.795,3.352-9.998,8.104-14.907,9.345c-4.909,1.24-10.154,3.293-12.515,7.772
				c-1.637,3.106-1.56,6.8-1.411,10.308c0.109,2.554,0.37,5.444,3.729,6.281c1.055,0.263,2.16,0.223,3.228,0.017
				c6.873-1.329,11.262-7.275,17.24-10.867c5.709-3.43,11.525-7.097,15.353-12.548C422.215,240.521,426.109,235.224,422.471,229.645
				z"/>
			<path style="fill:#FF941E;" d="M423.07,238.262c1.143-2.837,1.311-5.688-0.599-8.617c0.026-0.82-0.517-1.576-1.207-2.02
				c-0.69-0.444-1.511-0.629-2.317-0.782c-2.358-0.447-4.757-0.686-7.157-0.712c-1.242-0.014-2.313,0.874-2.554,2.092
				c-0.124,0.625-0.242,1.248-0.273,1.839c-1.629,1.116-1.567,3.644-1.292,5.599c-3.795,3.352-9.998,8.104-14.907,9.345
				c-4.909,1.24-10.154,3.293-12.515,7.772c-1.637,3.106-1.56,6.8-1.411,10.308c0.024,0.571,0.059,1.158,0.131,1.736
				C395.112,259.495,411.582,251.107,423.07,238.262z"/>
			<path style="fill:#A86114;" d="M378.97,264.823c0.251,2.007,0.99,3.895,3.598,4.545c1.055,0.263,2.16,0.223,3.228,0.017
				c6.873-1.329,11.262-7.275,17.24-10.867c5.709-3.43,11.525-7.097,15.353-12.548c1.818-2.588,3.649-5.142,4.683-7.708
				C411.582,251.107,395.112,259.495,378.97,264.823z"/>
			<path style="fill:#FFC9B9;" d="M410.497,205.157l-0.584,22.462c-0.043,1.658,1.204,3.09,2.857,3.217
				c1.332,0.102,3.012-0.053,4.808-0.91c1.229-0.587,1.908-1.936,1.707-3.283l-3.268-21.895
				C416.017,204.748,413.093,204.505,410.497,205.157z"/>
			<path style="fill:#A86114;" d="M415.184,240.477c-2.579-0.385-4.919-1.852-6.433-3.967c-0.24-0.336-0.711,0.101-0.474,0.434
				c1.617,2.26,4.136,3.766,6.878,4.175C415.564,241.179,415.589,240.537,415.184,240.477z"/>
			<path style="fill:#A86114;" d="M416.853,232.614c-1.954,0.006-3.874-0.512-5.554-1.512c-0.355-0.211-0.704,0.328-0.348,0.54
				c1.774,1.055,3.808,1.619,5.874,1.613C417.237,233.254,417.268,232.613,416.853,232.614z"/>
		</g>
		<path style="fill:#FF941E;" d="M377.109,242.895c-4.285-1.144-8.934-0.878-13.061,0.747c-1.932,0.761-4.004,2.232-3.926,4.307
			c0.068,1.8,1.736,3.087,3.321,3.942c5.857,3.159,12.875,4.105,19.36,2.609c3.156-0.728,6.297-3.343,3.466-6.411
			C383.924,245.549,380.408,243.776,377.109,242.895z"/>
		<path style="fill:#FF941E;" d="M363.334,250.723c-4.583,0.732-8.293,4.46-10.985,8.554c-2.692,4.094-4.688,8.715-7.64,12.591
			c-2.425,3.184-5.458,5.811-7.628,9.205c-2.17,3.394-3.363,7.994-1.6,11.656c1.679,3.488,5.575,5.103,9.199,5.147
			c2.636,0.032,5.459-0.732,7.171-2.908c1.276-1.622,1.77-3.844,1.696-5.977c-0.015-0.432-0.051-0.861-0.105-1.287
			c-0.313-2.468,0.617-4.89,2.291-6.593c0.531-0.539,1.009-1.143,1.416-1.712c2.958-4.136,5.72-8.558,7.144-13.562
			C365.718,260.833,365.792,255.229,363.334,250.723z"/>
		<path style="fill:#FF941E;" d="M363.877,267.135c0.145-0.431,0.292-0.86,0.417-1.299c1.424-5.004,1.498-10.608-0.961-15.114
			c-4.583,0.732-8.293,4.46-10.985,8.554c-2.692,4.094-4.688,8.715-7.64,12.591c-2.425,3.184-5.458,5.811-7.628,9.205
			c-2.17,3.394-3.363,7.994-1.6,11.656c1.679,3.488,5.575,5.103,9.199,5.147c2.636,0.031,5.459-0.732,7.171-2.908
			c1.276-1.622,1.77-3.844,1.696-5.977c-0.015-0.432-0.051-0.861-0.105-1.287c-0.012-0.097-0.01-0.192-0.019-0.289
			c-0.908-1.916-1.909-3.644-3.201-5.366C355.403,277.839,360.255,272.813,363.877,267.135z"/>
		<path style="fill:#A86114;" d="M350.223,282.048c1.292,1.723,2.293,3.45,3.201,5.366c-0.208-2.367,0.701-4.668,2.31-6.304
			c0.53-0.539,1.009-1.143,1.416-1.712c2.699-3.773,5.222-7.79,6.727-12.263C360.255,272.813,355.403,277.839,350.223,282.048z"/>
		<path style="fill:#1D253D;" d="M383.118,322.69c2.471-2.99,4.537-6.065,4.905-8.331l-33.046-6.096
			c-1.034,2.69-2.573,5.422-3.367,8.182C361.559,320.167,372.682,322.824,383.118,322.69z"/>
		<g>
			<g>
				<path style="fill:#FFFFFF;" d="M378.347,443.976l6.856-0.188c1.91,1.988,13.415,4.489,14.081,7.164h-22.52
					C377.013,448.571,377.524,446.229,378.347,443.976z"/>
				<path style="fill:#465A94;" d="M399.283,450.951c0.064,0.256,0.129,0.512,0.18,0.771c0.08,0.407-0.224,0.787-0.638,0.787
					h-21.491c-0.378,0-0.682-0.322-0.652-0.698c0.022-0.287,0.051-0.574,0.081-0.86H399.283z"/>
			</g>
			<path style="fill:#1D253D;" d="M395.128,312.219c-9.949,3.723-14.554,2.274-24.99,2.139c-0.912,5.889,2.736,18.459,2.736,18.459
				l0.423,9.206h25.497C398.689,331.586,397.689,321.123,395.128,312.219z"/>
			<path style="fill:#006CB0;" d="M373.297,342.023l0.293,4.373l24.934,0.287c0.211-1.525,0.313-3.091,0.27-4.659H373.297z"/>
			<g>
				<path style="fill:#FFFFFF;" d="M367.613,443.976l-6.855-0.188c-1.911,1.988-5.069,4.489-5.735,7.164h14.174
					C368.947,448.571,368.436,446.229,367.613,443.976z"/>
				<path style="fill:#465A94;" d="M355.022,450.951c-0.064,0.256-0.129,0.512-0.18,0.771c-0.08,0.407,0.224,0.787,0.639,0.787
					h13.145c0.378,0,0.682-0.322,0.652-0.698c-0.023-0.287-0.051-0.574-0.081-0.86H355.022z"/>
			</g>
			<path style="fill:#465A94;" d="M373.312,332.817c0,0,5.516-4.936,9.806-10.127c-10.437,0.135-21.559-2.523-31.507-6.246
				c-2.391,8.311-3.564,16.906-3.917,25.58h25.195L373.312,332.817z"/>
			<path style="fill:#0081C9;" d="M347.694,342.023c-0.171,1.549-0.152,3.105,0.019,4.659h25.177v-4.659H347.694z"/>
		</g>
		<path style="fill:#FF941E;" d="M392.444,289.685c0.042-12.228,1.329-22.155,1.819-34.377c0.054-1.345-0.362-2.874-1.534-3.472
			c-17.475-8.921-30.387-1.69-33.23,0.372c-1.452,1.053-2.081,2.961-1.533,4.71c3.178,10.147,2.912,19.534,1.221,30.026
			c-1.321,8.197-10.148,17.827-7.927,28.408c14.07,6.303,30.93,5.678,46.358,2.738C401.714,310.743,392.418,296.357,392.444,289.685
			z"/>
		<g>
			<path style="fill:#FFC9B9;" d="M371.751,232.276c0.642,5.079,0.935,10.224,0.873,15.33c-0.012,1.033,0.358,2.027,0.978,2.579
				c1.711,1.522,3.795,2.099,5.675,1.538c0.956-0.285,1.542-1.646,1.356-3.077c-0.425-3.285-0.71-6.413-0.904-9.829
				C377.571,235.414,374.774,233.444,371.751,232.276z"/>
			<path style="fill:#FFAB90;" d="M379.729,238.816c-2.158-3.402-4.956-5.372-7.978-6.54c0.169,1.337,0.312,2.678,0.432,4.021
				c2.061,4.104,4.989,8.181,8.181,10.046C380.088,243.872,379.878,241.426,379.729,238.816z"/>
		</g>
		<path style="fill:#A86114;" d="M392.065,316.317c-4.676,1.347-9.514,2.105-14.379,2.253c-4.861,0.148-9.745-0.297-14.495-1.343
			c-2.684-0.591-5.324-1.373-7.898-2.337c-0.388-0.145-0.584,0.467-0.198,0.611c4.589,1.717,9.389,2.849,14.258,3.383
			c4.893,0.536,9.852,0.463,14.727-0.214c2.746-0.381,5.462-0.96,8.127-1.727C392.603,316.829,392.464,316.202,392.065,316.317z"/>
		<g>
			<g>
				<path style="fill:#FFC9B9;" d="M385.376,222.789c1.789,7.894-0.263,17.083-2.345,17.405c-6.905,1.069-11.497-5.382-11.542-5.463
					c0.045,0.081-0.99,0.648-1.598,0.758c-0.601,0.109-1.557-0.398-2-0.805c-0.855-0.786-1.848-2.094-1.435-3.331
					c0.497-1.488,2.746-2.216,3.873-0.884c2.102-4.077,0.283-6.198,0.197-9.163c3.417-2.673,7.851-3.839,12.276-3.513
					C383.539,217.848,385.211,222.06,385.376,222.789z"/>
				<path style="fill:#3B1411;" d="M377.386,226.331c-0.048-0.078-0.113-0.139-0.194-0.185c-0.078-0.051-0.163-0.081-0.254-0.088
					c-0.092-0.023-0.184-0.021-0.277,0.005c-0.058,0.023-0.117,0.046-0.175,0.068c-0.108,0.06-0.194,0.143-0.258,0.248
					c-0.024,0.055-0.049,0.109-0.073,0.164c-0.036,0.121-0.039,0.244-0.009,0.367l0.018,0.073c0.019,0.095,0.06,0.178,0.123,0.248
					c0.048,0.078,0.113,0.14,0.194,0.185c0.078,0.051,0.162,0.081,0.254,0.088c0.092,0.023,0.184,0.021,0.277-0.005l0.175-0.068
					c0.108-0.06,0.194-0.143,0.258-0.248c0.024-0.055,0.049-0.109,0.073-0.164c0.036-0.121,0.039-0.244,0.009-0.367l-0.018-0.073
					C377.489,226.485,377.448,226.402,377.386,226.331z"/>
				<path style="fill:#3B1411;" d="M384.13,225.139c-0.048-0.078-0.113-0.139-0.194-0.185c-0.078-0.051-0.162-0.081-0.254-0.088
					c-0.092-0.023-0.184-0.021-0.277,0.005c-0.058,0.023-0.117,0.046-0.175,0.068c-0.108,0.06-0.194,0.143-0.258,0.248
					c-0.024,0.055-0.049,0.109-0.073,0.164c-0.036,0.121-0.039,0.243-0.009,0.367l0.018,0.073c0.019,0.095,0.06,0.178,0.122,0.248
					c0.048,0.078,0.113,0.139,0.194,0.185c0.078,0.051,0.163,0.081,0.254,0.088c0.092,0.023,0.184,0.021,0.277-0.005l0.175-0.068
					c0.108-0.061,0.194-0.143,0.258-0.248c0.024-0.055,0.049-0.109,0.073-0.164c0.036-0.121,0.039-0.243,0.009-0.367l-0.018-0.073
					C384.233,225.293,384.192,225.21,384.13,225.139z"/>
				<path style="fill:#FFAB90;" d="M369.883,233.238c-0.196,0.125-0.524,0.089-0.633-0.149c-0.056-0.121-0.016-0.242,0.039-0.36
					c0.053-0.114,0.152-0.197,0.263-0.226c0.175-0.045,0.269-0.248,0.179-0.409c-0.382-0.679-1.145-1.283-1.966-0.994
					c-0.364,0.128-0.651,0.421-0.725,0.806c-0.035,0.18-0.007,0.362,0.079,0.523c0.05,0.093,0.237,0.319,0.346,0.157
					c0.065-0.096,0.011-0.202,0.015-0.307c0.004-0.112,0.023-0.221,0.062-0.326c0.08-0.213,0.275-0.334,0.494-0.365
					c0.439-0.063,0.795,0.208,1.046,0.542c-0.343,0.267-0.486,0.753-0.262,1.164c0.243,0.445,0.861,0.626,1.298,0.368
					C370.386,233.502,370.146,233.071,369.883,233.238z"/>
			</g>
			<path style="fill:#6C301E;" d="M378.384,222.178c-1.448,0.132-2.827,0.68-3.989,1.551c-0.33,0.248,0.096,0.728,0.425,0.481
				c1.073-0.805,2.355-1.281,3.688-1.402c0.173-0.016,0.284-0.219,0.253-0.377C378.724,222.246,378.557,222.162,378.384,222.178z"/>
			<path style="fill:#6C301E;" d="M384.885,222.34c-0.696-0.658-1.685-0.956-2.627-0.755c-0.164,0.035-0.294,0.206-0.253,0.377
				c0.041,0.167,0.201,0.29,0.377,0.253c0.098-0.021,0.198-0.037,0.298-0.046c0.007-0.001,0.041-0.003,0.044-0.003
				c0.015-0.001,0.03-0.001,0.044-0.002c0.048-0.001,0.095-0.001,0.143,0.001c0.101,0.003,0.201,0.012,0.301,0.027
				c0.026,0.004,0.052,0.008,0.078,0.013c0.004,0.001,0.025,0.005,0.033,0.007c0.011,0.003,0.051,0.012,0.056,0.013
				c0.026,0.006,0.051,0.013,0.077,0.02c0.092,0.026,0.182,0.056,0.271,0.092c0.044,0.018,0.088,0.037,0.131,0.057
				c0.012,0.006,0.014,0.006,0.019,0.008c0.002,0.001,0,0.001,0.007,0.004c0.023,0.012,0.047,0.025,0.07,0.038
				c0.083,0.047,0.164,0.098,0.241,0.153c0.043,0.031,0.085,0.063,0.126,0.096c0.012,0.01,0.025,0.021,0.037,0.031
				c0.004,0.004,0.044,0.041,0.044,0.041c0.126,0.119,0.315,0.15,0.453,0.028C384.978,222.686,385.012,222.46,384.885,222.34z"/>
			<path style="fill:#FFAB90;" d="M382.573,236.188c-0.7,0.102-1.4,0.204-2.101,0.306c-0.166,0.024-0.293,0.214-0.253,0.377
				c0.043,0.176,0.199,0.279,0.377,0.253c0.7-0.102,1.4-0.204,2.101-0.306c0.166-0.024,0.293-0.214,0.253-0.377
				C382.907,236.265,382.751,236.162,382.573,236.188z"/>
			<path style="fill:#FFAB90;" d="M383.465,230.057c-0.235-0.364-0.6-0.578-0.972-0.777c-0.304-0.163-0.628-0.334-0.752-0.676
				c-0.059-0.163-0.288-0.215-0.431-0.144c-0.17,0.085-0.203,0.267-0.144,0.431c0.26,0.715,1.045,0.843,1.565,1.29
				c0.221,0.19,0.352,0.441,0.19,0.711c-0.193,0.32-0.556,0.505-0.811,0.769c-0.12,0.125-0.149,0.316-0.028,0.453
				c0.108,0.122,0.332,0.154,0.453,0.028c0.297-0.308,0.689-0.522,0.919-0.893C383.684,230.878,383.705,230.43,383.465,230.057z"/>
			<path style="fill:#3B1411;" d="M382.493,234.386c-0.084-0.168-0.268-0.206-0.431-0.144c-0.923,0.352-1.958,0.394-2.908,0.128
				c-0.167-0.047-0.349,0.027-0.409,0.198c-0.054,0.156,0.03,0.362,0.198,0.409c1.128,0.316,2.312,0.257,3.406-0.16
				C382.511,234.755,382.564,234.531,382.493,234.386z"/>
		</g>
		<g>
			<path style="fill:#A86114;" d="M368.214,298.17c-0.609,3.865-2.821,7.382-6.002,9.648c-0.336,0.24,0.101,0.711,0.434,0.474
				c3.327-2.37,5.576-6.065,6.21-10.093C368.92,297.791,368.278,297.766,368.214,298.17z"/>
			<path style="fill:#A86114;" d="M388.188,297.27c-6.568,0.191-13.135,0.381-19.703,0.572c-0.41,0.012-0.442,0.653-0.028,0.641
				c6.568-0.191,13.136-0.381,19.703-0.572C388.57,297.899,388.601,297.258,388.188,297.27z"/>
			<path style="fill:#A86114;" d="M392.166,305.389c-2.528-1.711-3.986-4.755-3.751-7.796c0.032-0.412-0.61-0.44-0.641-0.028
				c-0.252,3.265,1.335,6.53,4.044,8.364C392.161,306.161,392.508,305.62,392.166,305.389z"/>
		</g>
		<path style="fill:#FFC9B9;" d="M367.473,300.972L347.572,285.9c0,0-4.742,2.454-4.511,8.752l21.527,11.044
			C364.589,305.696,366.49,303.462,367.473,300.972z"/>
		<path style="fill:#A86114;" d="M347.738,285.669c-3.733,1.729-6.012,5.923-5.499,9.991c0.052,0.409,0.677,0.264,0.626-0.143
			c-0.478-3.79,1.718-7.68,5.172-9.28C348.413,286.064,348.113,285.496,347.738,285.669z"/>
		<path style="fill:#A86114;" d="M351.035,285.589c-1.673-2.029-4.612-2.741-7.041-1.768c-0.383,0.153-0.082,0.721,0.299,0.568
			c2.168-0.868,4.791-0.157,6.268,1.634C350.825,286.342,351.297,285.907,351.035,285.589z"/>
		<path style="fill:#A86114;" d="M360.387,265.559c-0.029-0.407-0.671-0.44-0.641-0.028c0.433,6.132,0.273,12.297-0.479,18.398
			c-0.051,0.41,0.591,0.436,0.641,0.028C360.66,277.856,360.82,271.691,360.387,265.559z"/>
		<path style="fill:#A86114;" d="M382.398,247.952c-0.13-0.388-0.757-0.249-0.626,0.143c0.505,1.511-0.27,2.96-1.164,4.145
			c-0.413,0.548-0.837,1.154-1.38,1.583c-0.612,0.484-1.246,0.393-1.862-0.031c-0.565-0.389-1.065-0.871-1.615-1.279
			c-0.578-0.429-1.181-0.826-1.803-1.188c-1.229-0.716-2.534-1.292-3.885-1.734c-1.39-0.455-3.234-1.004-3.465-2.704
			c-0.056-0.409-0.681-0.264-0.626,0.143c0.209,1.537,1.632,2.39,2.967,2.865c1.587,0.564,3.132,1.087,4.6,1.935
			c0.704,0.406,1.383,0.857,2.03,1.348c0.615,0.467,1.175,1.06,1.872,1.405c1.492,0.739,2.552-0.529,3.396-1.594
			C381.954,251.579,383.019,249.807,382.398,247.952z"/>
		<path style="fill:#FFFFFF;" d="M372.026,255.87c-0.135-0.385-0.763-0.247-0.626,0.143c1.393,3.976,1.776,8.243,1.115,12.403
			c-0.065,0.407,0.577,0.432,0.641,0.028C373.826,264.237,373.435,259.891,372.026,255.87z"/>
		<path style="fill:#FFFFFF;" d="M383.259,254.95c-0.123-0.391-0.751-0.252-0.626,0.143c1.449,4.589,1.706,9.512,0.712,14.223
			c-0.085,0.401,0.526,0.602,0.611,0.198C384.974,264.69,384.744,259.653,383.259,254.95z"/>
		<path style="fill:#FFC9B9;" d="M360.758,443.788l-3.926-21.361c-1.331-7.245-1.917-22.311-1.748-29.675l0.179-7.784l-6.369-38.285
			h22.714l-6.133,39.449l0.817,3.943c1.796,8.669,2.517,25.23,2.148,34.075l-0.827,19.827L360.758,443.788z"/>
		<path style="fill:#FFC9B9;" d="M398.524,346.682l-13.322,97.105h-6.856l-1.161-26.247c-0.334-7.544,0.774-22.786,3.263-29.916l0,0
			l-5.885-41.218L398.524,346.682z"/>
		<polygon style="fill:#FFAB90;" points="371.609,346.682 348.895,346.682 349.238,348.744 371.289,348.744 		"/>
		<path style="fill:#FFC9B9;" d="M365.476,386.132l5.813-37.388h-22.051l6.026,36.223l-0.179,7.784
			c-0.169,7.364,0.416,22.431,1.748,29.675l3.926,21.361l6.856,0.188l0.827-19.827c0.369-8.845-0.352-25.406-2.148-34.075
			L365.476,386.132z"/>
		<polygon style="fill:#FFAB90;" points="398.524,346.682 374.564,346.407 374.897,348.744 398.242,348.744 		"/>
		<path style="fill:#FFC9B9;" d="M374.897,348.744l5.551,38.881l0,0c-2.489,7.129-3.597,22.372-3.263,29.916l1.161,26.247h6.856
			l13.039-95.044H374.897z"/>
		<path style="fill:#FFC9B9;" d="M416.104,206.046v-0.058l3.903-7.307l-4.189-3.18l-4.146,1.587l-0.743,6.097
			c-0.293,0.907-0.335,1.546-0.399,2.532L416.104,206.046z"/>
		<polygon style="fill:#FEB12F;" points="415.351,122.802 429.777,152.033 462.036,156.721 438.694,179.474 444.204,211.603 
			415.351,196.434 386.498,211.603 392.008,179.474 368.666,156.721 400.924,152.033 		"/>
		<path style="fill:#FEA30A;" d="M381.558,154.847l-12.893,1.873l23.343,22.753l-5.51,32.128l28.853-15.169l28.853,15.169
			l-4.677-27.266C417.079,183.38,394.779,172.888,381.558,154.847z"/>
		<g>
			<path style="fill:#FFC9B9;" d="M411.699,205.196c0.882-0.595,1.468-1.944,1.434-3.3c-0.034-1.357-0.686-2.646-1.595-3.155
				c-0.158-2.186-1.587-3.897-3.15-4.281c1.119,3.574,1.844,7.385,2.142,11.258L411.699,205.196z"/>
			<path style="fill:#FFAB90;" d="M410.434,195.52c0.571,0.296,0.764,1.16,0.889,1.906c0.072,0.43,0.138,0.902,0.342,1.256
				c0.211,0.364,0.555,0.529,0.826,0.788c0.547,0.524,0.924,1.293,0.995,2.22c0.078,1.013-0.187,2.013-0.439,2.945
				c-0.082,0.305-0.407,0.066-0.325-0.237c0.237-0.876,0.491-1.842,0.387-2.792c-0.103-0.936-0.587-1.545-1.153-1.99
				c-0.246-0.193-0.477-0.405-0.64-0.733c-0.151-0.303-0.232-0.664-0.296-1.018c-0.125-0.693-0.205-1.608-0.758-1.895
				C410.042,195.855,410.215,195.406,410.434,195.52z"/>
		</g>
		<path style="fill:#6C301E;" d="M379.708,218.299c-0.589,0.734-1.503,1.255-2.351,1.805c-0.849,0.55-1.685,1.184-2.013,2.014
			c-0.371,0.937-0.031,1.95-0.071,2.932c-0.054,1.292-0.808,2.556-2.034,3.405c-1.225,0.85-2.903,1.273-4.52,1.139
			c-0.173-3.079-0.3-6.332,1.536-9.046c1.198-1.771,3.227-3.156,5.566-3.903C377.793,216.015,381.976,215.475,379.708,218.299z"/>
	</g>
	<g>
		<path style="fill:#465A94;" d="M153.648,226.981c-0.994,1.271-1.946,2.483-2.817,3.535c-5.713,1.21-7.495,2.989-9.878,8.32
			l4.166,20.333c8.291-2.882,14.614-11.055,20.132-17.881c0.473-0.585,0.936-1.161,1.388-1.732c-0.43-0.022-0.866-0.072-1.311-0.153
			C159.444,238.423,154.314,232.946,153.648,226.981z"/>
		<path style="fill:#FFAB91;" d="M172.457,220.355c-0.878-2.731-2.881-5.646-5.749-5.579c-1.56,0.037-2.945,0.976-4.144,1.975
			c-2.732,2.279-6.009,6.512-8.916,10.229c0.667,5.965,5.797,11.441,11.681,12.422c0.444,0.081,0.881,0.131,1.311,0.153
			C171.467,233.459,174.914,227.996,172.457,220.355z"/>
		<path style="fill:#FFAB91;" d="M116.178,240.362c0.038-1.644-0.77-3.234-1.945-4.385c-1.175-1.151-2.689-1.902-4.247-2.429
			c-3.339-1.127-7.095-1.121-10.517-0.278c-6.097-4.149-11.971-8.624-17.59-13.401c-3.473,2.565-7.085,8.01-9.807,11.361
			c10.652,13.047,24.555,21.681,40.365,27.49L116.178,240.362z"/>
		<path style="fill:#465A94;" d="M116.178,240.362c0.038-1.644-0.77-3.234-1.945-4.385c-1.175-1.151-2.689-1.902-4.247-2.429
			c-3.339-1.127-7.095-1.121-10.517-0.278c-1.85-1.259-3.672-2.557-5.479-3.876c-3.741,4.781-5.457,10.531-6.155,16.579
			c7.44,5.328,15.719,9.484,24.601,12.747L116.178,240.362z"/>
		<path style="fill:#1D253D;" d="M109.424,257.566c-7.042-5.486-13.793-11.378-20.612-17.099c-0.442,1.794-0.761,3.635-0.977,5.507
			C94.426,250.694,101.679,254.491,109.424,257.566z"/>
		<g>
			<g>
				<g>
					<path style="fill:#A86114;" d="M108.502,312.896c21.895,2.623,21.573,16.265,21.573,16.265l-8.842,56.86l-6.317,49.544h-10.443
						C100.024,370.444,108.502,312.896,108.502,312.896z"/>
					<path style="fill:#FF941E;" d="M124.192,328.379c0,0-9.74-6.795-10.88-12.741l36.561,1.416c0,0,6.113,76.788,5.957,118.512
						h-10.357L124.192,328.379z"/>
					<path style="fill:#FFAB91;" d="M154.971,435.565c-0.003,1.551-0.013,3.06-0.03,4.508h-8.264l-0.462-4.508H154.971z"/>
					<path style="fill:#FFAB91;" d="M114.053,435.565c-0.003,1.551-0.013,3.06-0.03,4.508h-8.264l-0.462-4.508H114.053z"/>
					<path style="fill:#A86114;" d="M116.66,321.613c-1.933-2.114-3.625-4.526-4.064-6.814l36.948-1.903c0,0,0.3,4.325,0.441,6.122
						C138.97,321.81,127.702,322.853,116.66,321.613z"/>
				</g>
				<g>
					<path style="fill:#465A94;" d="M146.208,439.399l9.673-0.289c2.695,3.054,4.617,6.897,5.557,11.006h-17.464
						C144.327,446.459,145.047,442.861,146.208,439.399z"/>
					<path style="fill:#A86114;" d="M161.438,450.116c0.09,0.393,0.183,0.786,0.254,1.184c0.112,0.624-0.316,1.209-0.901,1.209
						H144.78c-0.533,0-0.962-0.494-0.92-1.073c0.032-0.441,0.072-0.881,0.114-1.321H161.438z"/>
				</g>
				<g>
					<path style="fill:#465A94;" d="M114.575,439.399l-9.673-0.289c-2.695,3.054-18.927,6.897-19.867,11.006h31.774
						C116.457,446.459,115.737,442.861,114.575,439.399z"/>
					<path style="fill:#A86114;" d="M85.036,450.116c-0.09,0.393-0.183,0.786-0.254,1.184c-0.112,0.624,0.317,1.209,0.901,1.209
						h30.322c0.533,0,0.962-0.494,0.92-1.073c-0.032-0.441-0.072-0.881-0.114-1.321H85.036z"/>
				</g>
			</g>
			<path style="fill:#A86114;" d="M147.306,390.19c1.199-2.244,2.454-4.43,3.447-6.798c1.004-2.393,1.722-4.88,2.449-7.384
				c0.089-0.306,0.488-0.178,0.437,0.131c-0.436,2.599-1.3,5.129-2.281,7.538c-0.979,2.404-2.115,4.809-3.626,6.87
				C147.537,390.814,147.155,390.473,147.306,390.19z"/>
		</g>
		<path style="fill:#465A94;" d="M109.4,243.004c0.156-2.997,2.038-5.609,4.806-6.767c5.883-2.461,12.46-3.273,18.856-2.869
			c5.867,0.37,11.617,1.707,17.229,3.501c3.674,1.175,5.903,4.883,5.298,8.693c-3.455,21.781-4.861,44.16-4,66.159
			c0.056,1.43,0.189,3.49-1.177,3.916c-12.573,3.922-30.498,4.568-42.462,1.381c-2.968-0.79-0.63-3.527-0.638-6.598
			C107.253,288.441,108.268,264.755,109.4,243.004z"/>
		<g>
			<g>
				<g>
					<path style="fill:#FFAB91;" d="M137.041,219.411c-0.383,4.896-0.269,9.83,0.337,14.702c0.123,0.986-0.295,1.961-1.109,2.531
						c-2.245,1.573-5.11,2.268-7.803,1.862c-1.369-0.206-2.331-1.465-2.216-2.845c0.262-3.167,0.342-6.174,0.267-9.451
						C129.197,222.812,132.92,220.736,137.041,219.411z"/>
				</g>
				<g>
					<path style="fill:#FF8A65;" d="M126.516,226.211c2.681-3.399,6.404-5.475,10.525-6.8c-0.163,2.087-0.231,4.181-0.214,6.275
						c-1.865,5.104-5.241,9.969-9.79,12.092c-0.542-0.538-0.855-1.303-0.787-2.116C126.512,232.495,126.592,229.488,126.516,226.211
						z"/>
				</g>
				<path style="fill:#3E2410;" d="M137.984,218.202c0.566-2.127,1.132-4.255,1.697-6.382c0.296-1.111,0.593-2.27,0.371-3.398
					c-0.222-1.129-1.131-2.211-2.281-2.227c-3.049-4.484-8.561-7.01-13.945-6.359c-1.852,0.224-3.745,0.852-5.001,2.231
					c-1.451,1.592-1.808,3.894-1.794,6.048c0.018,2.566,1.166,2.842,2.924,4.711c1.674,1.78,3.556,4.941,5.964,5.353
					C130.002,218.875,133.892,218.835,137.984,218.202z"/>
				<path style="fill:#170D05;" d="M137.395,218.245c0.512-1.94,1.025-3.88,1.537-5.82c0.268-1.014,0.537-2.07,0.336-3.099
					c-0.201-1.029-1.024-2.016-2.065-2.031c-2.761-4.09-7.752-6.392-12.626-5.799c-1.676,0.204-3.391,0.777-4.528,2.034
					c-1.313,1.451-1.637,3.551-1.624,5.515c0.016,2.34,1.056,2.591,2.647,4.296c1.515,1.623,3.22,4.505,5.4,4.881
					C130.168,218.859,133.691,218.822,137.395,218.245z"/>
				<g>
					<path style="fill:#FFAB91;" d="M119.714,211.429c-0.912,6.836,1.9,18.94,5.678,19.077c8.066,0.292,9.793-4.775,11.146-9.748
						c-0.023,0.085,0.555,0.408,1.147,0.373c0.584-0.034,1.359-0.722,1.679-1.201c0.617-0.925,1.246-2.366,0.582-3.424
						c-0.799-1.273-2.568-1.533-3.316-0.038c0.056-2.5-0.761-4.813-1.628-7.148c-0.275-0.74-0.856-1.331-1.601-1.592
						c-3.591-1.258-8.032-1.314-11.653-0.168c-0.711,0.225-1.262,0.787-1.484,1.499C120.013,209.865,119.801,210.78,119.714,211.429
						z"/>
					<path style="opacity:0.37;fill:#170D05;" d="M133.007,222.654c-3.995-1.08-8.465-0.651-12.081,1.286
						c1.063,3.675,2.653,6.501,4.466,6.566c7.69,0.278,9.618-4.315,10.953-9.053l0.527-5.241
						C135.584,218.359,134.296,220.507,133.007,222.654z"/>
					<path style="fill:#FFAB91;" d="M139.946,216.505c-0.667-1.063-2.009-1.415-2.869-0.634c-0.068,0.113-0.136,0.227-0.204,0.34
						l-0.527,5.241c0.065-0.231,0.13-0.463,0.193-0.695c-0.023,0.085,0.555,0.408,1.147,0.373c0.584-0.034,1.359-0.723,1.679-1.201
						C139.981,219.005,140.61,217.563,139.946,216.505z"/>
					<path style="fill:#FFAB91;" d="M136.63,216.467c0.056-2.5-0.761-4.813-1.628-7.148c-0.275-0.739-0.856-1.331-1.601-1.592
						c-3.591-1.258-8.032-1.314-11.653-0.168c-0.711,0.225-1.262,0.787-1.484,1.499c-0.252,0.807-0.463,1.722-0.55,2.371
						c-0.474,3.555,0.06,8.531,1.212,12.511c3.617-1.937,8.086-2.366,12.081-1.286c1.288-2.147,2.577-4.295,3.865-6.442l0.013-0.132
						C136.792,216.194,136.705,216.318,136.63,216.467z"/>
					<path style="fill:#FFAB91;" d="M136.886,216.081l-0.013,0.132c0.068-0.113,0.136-0.227,0.204-0.34
						C137.009,215.933,136.947,216.006,136.886,216.081z"/>
					<path style="fill:#170D05;" d="M127.029,211.855c1.101-1.397,4.127-0.433,5.242,0.464c0.204,0.164,0.449,0.374,0.424,0.663
						c-0.013,0.15-0.095,0.28-0.246,0.323c-0.342,0.098-0.667-0.186-0.952-0.335c-0.377-0.197-0.776-0.346-1.192-0.439
						c-0.512-0.114-1.044-0.146-1.566-0.09c-0.505,0.054-0.989,0.289-1.499,0.213C126.842,212.596,126.836,212.1,127.029,211.855z"
						/>
					<path style="fill:#3B1411;" d="M128.639,214.304c0.027-0.083,0.073-0.155,0.139-0.216c0.061-0.066,0.133-0.112,0.216-0.139
						c0.08-0.042,0.166-0.061,0.259-0.058c0.06,0.008,0.119,0.016,0.179,0.024c0.114,0.032,0.213,0.089,0.296,0.173
						c0.035,0.045,0.07,0.091,0.105,0.136c0.061,0.105,0.091,0.218,0.092,0.339v0.072c0.003,0.092-0.016,0.179-0.058,0.259
						c-0.027,0.083-0.073,0.155-0.139,0.216c-0.061,0.066-0.133,0.112-0.216,0.139c-0.08,0.042-0.166,0.061-0.259,0.058
						l-0.179-0.024c-0.114-0.032-0.213-0.09-0.297-0.173c-0.035-0.045-0.07-0.091-0.105-0.136c-0.061-0.105-0.091-0.218-0.092-0.339
						v-0.072C128.578,214.471,128.597,214.384,128.639,214.304z"/>
					<path style="fill:#3B1411;" d="M121.286,214.72c0.027-0.083,0.073-0.155,0.139-0.216c0.061-0.066,0.133-0.112,0.216-0.139
						c0.08-0.042,0.166-0.061,0.259-0.058c0.06,0.008,0.119,0.016,0.179,0.024c0.114,0.032,0.213,0.09,0.297,0.173
						c0.035,0.045,0.07,0.091,0.105,0.136c0.061,0.105,0.091,0.218,0.092,0.339v0.072c0.003,0.093-0.016,0.179-0.058,0.259
						c-0.027,0.083-0.073,0.155-0.139,0.216c-0.061,0.066-0.133,0.112-0.216,0.139c-0.08,0.042-0.166,0.061-0.259,0.058
						l-0.179-0.024c-0.114-0.032-0.213-0.09-0.296-0.173c-0.035-0.045-0.07-0.091-0.105-0.136c-0.061-0.105-0.091-0.218-0.092-0.339
						v-0.072C121.225,214.887,121.244,214.8,121.286,214.72z"/>
					<path style="fill:#170D05;" d="M119.956,212.824c0.26-0.506,0.82-0.766,1.359-0.909c0.525-0.139,1.062-0.161,1.59-0.03
						c0.243,0.061,0.393,0.312,0.36,0.552c-0.055,0.409-0.401,0.423-0.725,0.427c-0.437,0.005-0.852,0.062-1.257,0.234
						c-0.272,0.115-1.697,0.828-1.411-0.073C119.896,212.954,119.924,212.887,119.956,212.824z"/>
					<path style="fill:#FF8A65;" d="M137.182,219.034c0.211,0.072,0.508-0.036,0.556-0.282c0.025-0.126-0.04-0.229-0.117-0.327
						c-0.075-0.094-0.186-0.149-0.296-0.151c-0.173-0.002-0.307-0.17-0.259-0.34c0.202-0.718,0.776-1.453,1.604-1.37
						c0.367,0.037,0.701,0.244,0.857,0.586c0.073,0.16,0.088,0.335,0.045,0.504c-0.025,0.098-0.148,0.35-0.287,0.224
						c-0.083-0.075-0.057-0.186-0.084-0.283c-0.029-0.103-0.072-0.201-0.132-0.289c-0.122-0.18-0.331-0.249-0.542-0.228
						c-0.422,0.041-0.693,0.374-0.85,0.741c0.379,0.171,0.623,0.59,0.507,1.023c-0.125,0.469-0.66,0.777-1.125,0.636
						C136.774,219.394,136.9,218.939,137.182,219.034z"/>
				</g>
			</g>
		</g>
		<path style="fill:#1D253D;" d="M117.069,312.924c5.203,0.49,10.513-0.421,15.271-2.577c4.396-1.991,8.254-5.089,11.213-8.895
			c1.637-2.105,2.984-4.427,4.011-6.888c0.15-0.359,0.685-0.076,0.536,0.282c-1.869,4.48-4.819,8.486-8.523,11.62
			c-3.933,3.328-8.7,5.604-13.755,6.6c-2.929,0.577-5.917,0.727-8.888,0.447C116.548,313.478,116.686,312.887,117.069,312.924z"/>
		<path style="fill:#1D253D;" d="M126.72,239.654c4.139,1.18,8.798,0.071,11.939-2.882c0.283-0.266,0.731,0.142,0.447,0.409
			c-3.294,3.096-8.167,4.304-12.521,3.063C126.212,240.138,126.343,239.547,126.72,239.654z"/>
		<path style="fill:#FF8A65;" d="M122.924,217.653c0.461-0.564,1.003-1.11,1.132-1.856c0.066-0.384,0.657-0.249,0.59,0.135
			c-0.225,1.301-1.494,1.977-1.93,3.163c-0.238,0.65-0.088,1.425,0.391,1.929c0.501,0.526,1.279,0.691,1.961,0.469
			c0.371-0.121,0.557,0.455,0.187,0.576c-1.617,0.526-3.344-0.717-3.254-2.445C122.042,218.856,122.45,218.232,122.924,217.653z"/>
		<path style="fill:#3B1411;" d="M129.622,223.855c-1.122,1.493-3.126,2.264-4.96,1.892c-0.401-0.081-0.602,0.529-0.198,0.611
			c2.134,0.433,4.386-0.411,5.697-2.155C130.41,223.872,129.869,223.527,129.622,223.855z"/>
		<g>
			<polygon style="fill:#FEB12F;" points="120.8,104.684 135.226,133.915 167.485,138.603 144.142,161.356 149.653,193.485 
				120.8,178.316 91.946,193.485 97.457,161.356 74.114,138.603 106.373,133.915 			"/>
			<path style="fill:#FEA30A;" d="M87.007,136.73l-12.893,1.873l23.343,22.753l-5.51,32.128l28.853-15.169l28.853,15.169
				l-4.676-27.266C122.527,165.262,100.228,154.77,87.007,136.73z"/>
		</g>
		<g>
			<g>
				<path style="fill:#FFAB91;" d="M100.584,180.77c0.384-0.043,0.78-0.074,1.149,0.037c0.369,0.111,0.711,0.397,0.778,0.777
					c0.081,0.458-0.259,0.904-0.673,1.115c-0.414,0.211-0.892,0.248-1.352,0.316c-1.574,0.232-3.085,0.876-4.342,1.849
					c-0.649,0.502-1.235,1.093-1.951,1.494c-2.472,1.387-4.404-1.278-1.83-2.861C94.817,181.99,97.735,181.09,100.584,180.77z"/>
				<path style="fill:#FFAB91;" d="M102.054,183.157c0.384-0.043,0.779-0.074,1.149,0.037c0.37,0.111,0.711,0.397,0.778,0.777
					c0.081,0.458-0.259,0.904-0.673,1.115c-0.414,0.211-0.892,0.248-1.352,0.316c-1.573,0.232-3.084,0.876-4.342,1.849
					c-0.649,0.502-1.236,1.093-1.951,1.494c-2.472,1.387-4.404-1.278-1.83-2.861C96.286,184.376,99.205,183.476,102.054,183.157z"/>
				<path style="fill:#FFAB91;" d="M101.617,185.851c0.384-0.043,0.779-0.074,1.149,0.037c0.369,0.111,0.711,0.397,0.778,0.777
					c0.081,0.458-0.259,0.903-0.673,1.115c-0.414,0.211-0.892,0.248-1.352,0.316c-1.573,0.232-3.084,0.876-4.342,1.849
					c-0.649,0.502-1.235,1.093-1.951,1.494c-2.472,1.387-4.404-1.278-1.83-2.861C95.849,187.07,98.767,186.17,101.617,185.851z"/>
				<path style="fill:#FFAB91;" d="M100.329,188.603c0.313-0.035,0.636-0.061,0.938,0.03c0.302,0.091,0.58,0.324,0.635,0.634
					c0.066,0.374-0.211,0.738-0.55,0.91c-0.338,0.173-0.728,0.203-1.104,0.258c-1.285,0.189-2.518,0.715-3.545,1.51
					c-0.53,0.41-1.009,0.892-1.593,1.22c-2.018,1.132-3.595-1.043-1.494-2.335C95.62,189.598,98.003,188.863,100.329,188.603z"/>
				<path style="fill:#FFAB91;" d="M92.059,183.707c-1.347,1.158-2.052,1.924-3.032,3.406c-0.98,1.482-1.558,3.315-1.187,5.052
					c0.371,1.738,1.857,3.287,3.631,3.37c1.057,0.049,2.088-0.402,2.935-1.037c1.754-1.314,2.847-3.468,2.872-5.66
					c0.026-2.191-1.017-4.37-2.739-5.725L92.059,183.707z"/>
			</g>
			<path style="fill:#FFAB91;" d="M89.59,188.571c-3.999,4.816-19.56,29.177-19.651,35.353c-0.047,3.241,1.052,6.684,3.535,8.872
				c2.764,2.436,6.025,1.822,7.848-1.355c3.294-5.741,9.822-31.132,11.377-38.921L89.59,188.571z"/>
		</g>
		<g>
			<g>
				<path style="fill:#FFAB91;" d="M141.391,178.389c-0.383-0.043-0.779-0.074-1.149,0.037c-0.37,0.111-0.711,0.397-0.778,0.777
					c-0.081,0.458,0.259,0.904,0.673,1.115c0.415,0.211,0.892,0.248,1.352,0.316c1.573,0.232,3.084,0.876,4.342,1.849
					c0.649,0.502,1.236,1.093,1.951,1.494c2.472,1.387,4.404-1.278,1.83-2.861C147.158,179.609,144.24,178.708,141.391,178.389z"/>
				<path style="fill:#FFAB91;" d="M139.921,180.776c-0.384-0.043-0.779-0.074-1.149,0.037c-0.369,0.111-0.711,0.397-0.778,0.777
					c-0.081,0.458,0.259,0.904,0.673,1.115c0.414,0.211,0.892,0.248,1.352,0.316c1.574,0.232,3.084,0.876,4.342,1.849
					c0.649,0.502,1.235,1.093,1.951,1.494c2.472,1.387,4.404-1.278,1.83-2.861C145.689,181.995,142.77,181.095,139.921,180.776z"/>
				<path style="fill:#FFAB91;" d="M140.358,183.469c-0.384-0.043-0.78-0.074-1.149,0.037c-0.369,0.111-0.711,0.397-0.778,0.777
					c-0.081,0.458,0.259,0.903,0.673,1.115c0.414,0.211,0.892,0.248,1.352,0.316c1.574,0.232,3.084,0.876,4.342,1.849
					c0.649,0.502,1.236,1.093,1.951,1.494c2.472,1.387,4.404-1.278,1.83-2.861C146.126,184.689,143.208,183.789,140.358,183.469z"/>
				<path style="fill:#FFAB91;" d="M141.646,186.221c-0.313-0.035-0.636-0.061-0.938,0.03c-0.302,0.091-0.58,0.324-0.635,0.635
					c-0.066,0.374,0.211,0.738,0.55,0.91c0.338,0.173,0.728,0.203,1.104,0.258c1.285,0.19,2.518,0.715,3.545,1.51
					c0.53,0.41,1.009,0.892,1.593,1.22c2.018,1.132,3.595-1.043,1.494-2.335C146.355,187.217,143.972,186.482,141.646,186.221z"/>
				<path style="fill:#FFAB91;" d="M149.916,181.326c1.347,1.158,2.052,1.924,3.032,3.406c0.98,1.482,1.558,3.315,1.187,5.052
					c-0.371,1.737-1.857,3.287-3.631,3.37c-1.058,0.049-2.088-0.403-2.935-1.037c-1.754-1.314-2.847-3.468-2.873-5.66
					c-0.026-2.191,1.017-4.37,2.739-5.725L149.916,181.326z"/>
			</g>
			<path style="fill:#FFAB91;" d="M152.385,186.189c3.999,4.816,19.56,29.177,19.651,35.353c0.048,3.241-1.052,6.684-3.535,8.872
				c-2.764,2.436-6.025,1.822-7.848-1.355c-3.294-5.741-9.823-31.132-11.377-38.921L152.385,186.189z"/>
		</g>
		<path style="fill:#1D253D;" d="M165.786,239.898c-3.921,4.635-7.842,9.27-11.763,13.905c-1.123,1.327-2.245,2.654-3.368,3.982
			c-0.264,0.312,0.167,0.789,0.434,0.473c3.921-4.635,7.842-9.27,11.763-13.905l3.368-3.981
			C166.483,240.06,166.052,239.583,165.786,239.898z"/>
		<path style="fill:#1D253D;" d="M108.624,242.414c-0.351,5.422-0.638,10.847-0.86,16.276c-0.223,5.455-0.381,10.913-0.474,16.372
			c-0.052,3.062-0.083,6.125-0.095,9.188c-0.002,0.412,0.64,0.442,0.641,0.028c0.02-5.433,0.104-10.866,0.252-16.297
			c0.149-5.458,0.364-10.913,0.644-16.366c0.157-3.059,0.335-6.116,0.532-9.173C109.292,242.03,108.651,242.002,108.624,242.414z"/>
		<g>
			<g>
				<path style="fill:#170D05;" d="M120.736,218.78c-1.738,0-3.152-1.414-3.152-3.152c0-1.738,1.414-3.152,3.152-3.152
					s3.152,1.414,3.152,3.152C123.888,217.366,122.474,218.78,120.736,218.78z M120.736,212.797c-1.561,0-2.831,1.27-2.831,2.831
					c0,1.561,1.27,2.831,2.831,2.831c1.561,0,2.831-1.27,2.831-2.831C123.567,214.067,122.297,212.797,120.736,212.797z"/>
			</g>
			<g>
				<path style="fill:#170D05;" d="M128.449,218.78c-1.738,0-3.152-1.414-3.152-3.152c0-1.738,1.414-3.152,3.152-3.152
					c1.738,0,3.152,1.414,3.152,3.152C131.6,217.366,130.186,218.78,128.449,218.78z M128.449,212.797
					c-1.561,0-2.831,1.27-2.831,2.831c0,1.561,1.27,2.831,2.831,2.831c1.561,0,2.831-1.27,2.831-2.831
					C131.279,214.067,130.01,212.797,128.449,212.797z"/>
			</g>
			<g>
				<path style="fill:#170D05;" d="M123.773,214.651l-0.222-0.232c0.558-0.535,1.501-0.575,2.102-0.088l-0.202,0.249
					C124.98,214.199,124.212,214.231,123.773,214.651z"/>
			</g>
			<g>
				<path style="fill:#170D05;" d="M137.559,215.633c-1.965-0.745-4.101-0.976-6.183-0.668l-0.046-0.318
					c2.133-0.315,4.327-0.078,6.343,0.686L137.559,215.633z"/>
			</g>
		</g>
	</g>
	<rect x="63.206" y="452.509" style="fill:#001E4A;" width="373.587" height="2.404"/>
</g>
</svg>
