<?xml version="1.0" encoding="UTF-8"?>
<svg version="1.1" xmlns="http://www.w3.org/2000/svg" width="300" height="149">
<path d="M0 0 C2.45364159 1.51536904 4.39550096 2.83300096 6.4375 4.875 C5.93013982 9.46907397 2.75235828 12.07491083 -0.375 15.1875 C-0.90931641 15.75017578 -1.44363281 16.31285156 -1.99414062 16.89257812 C-3.58203125 18.48828125 -3.58203125 18.48828125 -6.5625 20.875 C-10.14840231 20.36996116 -12.74956771 18.68663087 -15.78125 16.8125 C-21.6073198 13.74614747 -29.10361242 13.97608006 -35.328125 15.59375 C-40.45512329 17.49718649 -44.01624533 19.59863407 -47.5625 23.875 C-48.26375 24.6175 -48.965 25.36 -49.6875 26.125 C-54.20254094 32.74706005 -55.48080251 39.97015268 -54.5625 47.875 C-53.32363928 53.52169125 -51.4070669 57.50014801 -47.5625 61.875 C-47.5625 62.535 -47.5625 63.195 -47.5625 63.875 C-46.7890625 64.24625 -46.7890625 64.24625 -46 64.625 C-43.37843523 65.96939219 -40.86682796 67.45307521 -38.34375 68.97265625 C-31.96179897 72.20561829 -23.59812388 71.71505068 -16.875 69.8125 C-11.96509877 67.93492556 -7.89052471 64.94091254 -4.5625 60.875 C-3.5725 58.565 -2.5825 56.255 -1.5625 53.875 C-10.1425 53.875 -18.7225 53.875 -27.5625 53.875 C-27.5625 46.945 -27.5625 40.015 -27.5625 32.875 C-11.7225 32.875 4.1175 32.875 20.4375 32.875 C23.93794234 43.37632702 21.53448781 57.00498574 17.11328125 66.8125 C10.86998618 78.87303851 2.72209225 86.20206973 -10 91.3125 C-23.74275852 95.45145335 -38.46744215 93.81002828 -51.19140625 87.58984375 C-61.66804114 81.84768814 -68.69603287 73.71394951 -73.5625 62.875 C-74.10132812 61.68390625 -74.64015625 60.4928125 -75.1953125 59.265625 C-77.11952099 53.99299561 -77.09698443 48.74734978 -77.0625 43.1875 C-77.05391968 41.59119751 -77.05391968 41.59119751 -77.04516602 39.96264648 C-76.69842294 24.67442886 -70.70097175 14.6165861 -59.8125 4.125 C-42.82875697 -10.68730557 -18.81144874 -10.88662565 0 0 Z " fill="#34A853" transform="translate(76.5625,24.125)"/>
<path d="M0 0 C41.73214286 0 41.73214286 0 50.58984375 8.53125 C56.54754196 14.94050969 58.6967542 21.45597787 58.40625 30.1953125 C57.27274245 38.02087423 53.12397119 43.74283316 47.046875 48.59765625 C39.32070089 53.89097019 31.19088616 54.15055614 22.125 54.0625 C19.11375 54.041875 16.1025 54.02125 13 54 C13 65.22 13 76.44 13 88 C8.71 88 4.42 88 0 88 C0 58.96 0 29.92 0 0 Z M13 13 C13 22.24 13 31.48 13 41 C18.259375 41.12375 18.259375 41.12375 23.625 41.25 C25.265896 41.30462402 25.265896 41.30462402 26.93994141 41.36035156 C32.98598076 41.42911958 36.41918529 41.05225916 41 37 C44.39090366 33.0736905 45.6746341 30.05027553 45.3828125 24.953125 C44.50360587 20.4673769 41.88305505 17.78116408 38.5625 14.84375 C34.0122027 11.90115945 28.84111449 12.57636001 23.625 12.75 C20.11875 12.8325 16.6125 12.915 13 13 Z " fill="#BABABA" transform="translate(130,23)"/>
<path d="M0 0 C2.45364159 1.51536904 4.39550096 2.83300096 6.4375 4.875 C5.93013982 9.46907397 2.75235828 12.07491083 -0.375 15.1875 C-0.90931641 15.75017578 -1.44363281 16.31285156 -1.99414062 16.89257812 C-3.58203125 18.48828125 -3.58203125 18.48828125 -6.5625 20.875 C-10.14840231 20.36996116 -12.74956771 18.68663087 -15.78125 16.8125 C-21.6073198 13.74614747 -29.10361242 13.97608006 -35.328125 15.59375 C-40.45512329 17.49718649 -44.01624533 19.59863407 -47.5625 23.875 C-48.26375 24.6175 -48.965 25.36 -49.6875 26.125 C-54.08228632 32.57068661 -54.62486849 37.48708099 -53.75 45.1875 C-53.6140625 49.03647334 -53.55874224 51.66875508 -56.08740234 54.70751953 C-61.00448115 59.14578168 -66.63680613 62.91215307 -72.5625 65.875 C-75.89693924 58.12097715 -77.24908435 51.42485255 -77.125 43 C-77.11476807 41.9493335 -77.10453613 40.89866699 -77.09399414 39.81616211 C-76.678963 24.61755711 -70.63275617 14.55085697 -59.8125 4.125 C-42.82875697 -10.68730557 -18.81144874 -10.88662565 0 0 Z " fill="#EA4334" transform="translate(76.5625,24.125)"/>
<path d="M0 0 C4.58930459 3.4681731 7.13874827 8.10447158 8.25 13.75 C8.33337107 15.21524039 8.36784187 16.68376319 8.36352539 18.15136719 C8.36344986 19.0119574 8.36337433 19.87254761 8.36329651 20.75921631 C8.35813522 21.67914368 8.35297394 22.59907104 8.34765625 23.546875 C8.3462413 24.49564514 8.34482635 25.44441528 8.34336853 26.42193604 C8.33777742 29.44798962 8.32522652 32.47396883 8.3125 35.5 C8.30748385 37.55338435 8.30292115 39.60676986 8.29882812 41.66015625 C8.28781089 46.69013276 8.27055233 51.72005378 8.25 56.75 C4.29 56.75 0.33 56.75 -3.75 56.75 C-4.08 55.1 -4.41 53.45 -4.75 51.75 C-5.56404297 52.38228516 -5.56404297 52.38228516 -6.39453125 53.02734375 C-7.10996094 53.57519531 -7.82539063 54.12304688 -8.5625 54.6875 C-9.27019531 55.23277344 -9.97789062 55.77804688 -10.70703125 56.33984375 C-15.99233959 59.98802025 -22.61086172 59.36461225 -28.75 58.75 C-36.42119209 56.35468834 -41.12759313 52.37043116 -45.0625 45.4375 C-46.42164284 40.12448709 -46.2043294 35.39694407 -44.75 30.125 C-40.91118864 23.64700583 -36.33767418 19.86711418 -29.0625 17.75 C-20.3806019 15.95640128 -12.0496813 16.73981708 -3.75 19.75 C-5.96545333 13.66270058 -5.96545333 13.66270058 -10 8.75 C-16.29362227 6.46141008 -20.9226777 6.18071883 -27.05078125 8.78125 C-29.27594461 10.04984888 -30.5189826 11.51878096 -31.75 13.75 C-34.96852831 13.11934243 -37.25801069 11.96979305 -40 10.1875 C-40.70640625 9.73246094 -41.4128125 9.27742188 -42.140625 8.80859375 C-42.67171875 8.45925781 -43.2028125 8.10992187 -43.75 7.75 C-41.16537158 1.94085943 -36.75817148 -1.17419385 -31.25 -4.125 C-20.59089773 -7.62251793 -9.27827946 -5.90613167 0 0 Z M-31.1875 33 C-33.03411641 35.73925117 -33.03411641 35.73925117 -32.8125 39.3125 C-31.52243597 43.48623656 -30.55591992 44.64459749 -26.75 46.75 C-20.73779036 48.22841221 -16.14481368 47.9499216 -10.75 44.75 C-7.32182311 41.72105383 -5.05487423 38.1391224 -3.75 33.75 C-3.75 32.76 -3.75 31.77 -3.75 30.75 C-13.32450411 26.4143755 -23.02929586 25.46935002 -31.1875 33 Z " fill="#B9B9B9" transform="translate(231.75,54.25)"/>
<path d="M0 0 C4.62 0 9.24 0 14 0 C14.47945068 1.145896 14.95890137 2.29179199 15.45288086 3.47241211 C17.22644733 7.70945465 19.00323017 11.94514196 20.78100586 16.18041992 C21.55109554 18.01631241 22.32030353 19.85257498 23.08862305 21.68920898 C24.19089812 24.32372457 25.29630078 26.95690821 26.40234375 29.58984375 C26.74716293 30.41588608 27.09198212 31.24192841 27.44725037 32.09300232 C28.79317616 35.81325203 28.79317616 35.81325203 31 39 C31.44915771 37.88963379 31.89831543 36.77926758 32.36108398 35.63525391 C34.02448839 31.52375601 35.68896082 27.41269121 37.35375977 23.30175781 C38.07475556 21.5209518 38.79545992 19.74002776 39.51586914 17.95898438 C40.55018113 15.40203415 41.58553337 12.84550733 42.62109375 10.2890625 C42.94403915 9.49005524 43.26698456 8.69104797 43.59971619 7.86782837 C45.88612829 2.22774341 45.88612829 2.22774341 47 0 C51.29 0 55.58 0 60 0 C58.87501087 6.74993476 58.87501087 6.74993476 57.27270508 10.39599609 C56.91708496 11.21427887 56.56146484 12.03256165 56.19506836 12.87564087 C55.80714111 13.74941376 55.41921387 14.62318665 55.01953125 15.5234375 C54.61444336 16.45046478 54.20935547 17.37749207 53.79199219 18.33261108 C52.47186952 21.34958123 51.14228541 24.36227805 49.8125 27.375 C48.90326571 29.44796849 47.9946591 31.5212124 47.08666992 33.59472656 C45.2631198 37.75643785 43.43593344 41.91652077 41.60546875 46.07519531 C39.25878238 51.40800562 36.92327811 56.74561298 34.59375 62.0859375 C33.94166884 63.58024894 33.28956991 65.07455262 32.63745117 66.56884766 C32.17971817 67.61773163 32.17971817 67.61773163 31.71273804 68.68780518 C30.29594795 71.93327699 28.87727106 75.17791074 27.45703125 78.421875 C27.00303955 79.45924805 26.54904785 80.49662109 26.08129883 81.56542969 C25.41849084 83.0577578 24.73025443 84.53949115 24 86 C19.71 86 15.42 86 11 86 C13.31233854 78.5149301 16.42579961 71.78075759 20.03515625 64.84179688 C20.43089844 64.04451172 20.82664062 63.24722656 21.234375 62.42578125 C21.59756836 61.71848877 21.96076172 61.01119629 22.33496094 60.2824707 C23.9104046 54.87541387 21.29854709 49.95152002 19.12109375 45.046875 C18.83300339 44.39294769 18.54491302 43.73902039 18.24809265 43.0652771 C17.31759136 40.95730203 16.37759606 38.85371104 15.4375 36.75 C14.79801513 35.30481229 14.15918227 33.8593359 13.52099609 32.41357422 C10.79829809 26.25375018 8.04983378 20.10553887 5.29296875 13.9609375 C4.91793213 13.12336914 4.54289551 12.28580078 4.15649414 11.42285156 C3.48668876 9.93073127 2.81292137 8.44038088 2.13452148 6.95214844 C0 2.2182779 0 2.2182779 0 0 Z " fill="#B9B9B9" transform="translate(240,51)"/>
<path d="M0 0 C15.84 0 31.68 0 48 0 C51.49994086 10.49982257 49.11593073 24.18613999 44.640625 33.97265625 C41.93297896 39.15765884 38.95585514 43.69509882 35 48 C31.25730754 46.32754081 28.14960383 44.01241859 24.875 41.5625 C23.82054688 40.78003906 22.76609375 39.99757812 21.6796875 39.19140625 C19 37 19 37 17 34 C17.72316406 33.22076172 17.72316406 33.22076172 18.4609375 32.42578125 C19.40839844 31.37970703 19.40839844 31.37970703 20.375 30.3125 C21.00148438 29.62800781 21.62796875 28.94351563 22.2734375 28.23828125 C24.37321479 25.72677622 24.37321479 25.72677622 26 21 C17.42 21 8.84 21 0 21 C0 14.07 0 7.14 0 0 Z " fill="#4285F3" transform="translate(49,57)"/>
<path d="M0 0 C2.15749345 1.39566666 4.28984096 2.80802013 6.3984375 4.27734375 C8.93286288 6.03995151 8.93286288 6.03995151 11.6015625 7.25390625 C15.18818045 9.25216482 17.39235005 11.04401165 18.64453125 15.07470703 C19.84841615 21.08312039 20.1529398 27.1867098 18 33 C13.46490791 38.97380128 6.60820248 42.69589876 0 46 C-3.37876651 38.18034904 -4.63097763 31.49171628 -4.5 23 C-4.51546875 21.99710938 -4.5309375 20.99421875 -4.546875 19.9609375 C-4.50899302 12.63077526 -2.90000002 6.71161736 0 0 Z " fill="#FABB04" transform="translate(4,44)"/>
</svg>
