<svg id="Capa_1" enable-background="new 0 0 511.967 511.967" height="300" viewBox="0 0 511.967 511.967" width="300" xmlns="http://www.w3.org/2000/svg" version="1.1" xmlns:xlink="http://www.w3.org/1999/xlink" xmlns:svgjs="http://svgjs.dev/svgjs"><g width="100%" height="100%" transform="matrix(1,0,0,1,0,0)"><g><path d="m336.085 356.903c-6.811-6.811-16.208-10.083-25.771-8.955-9.566 1.119-17.952 6.463-23.007 14.661l-14.598 23.677c-4.216 6.838-12.624 9.597-19.989 6.558-18.918-7.804-36.796-17.922-53.138-30.073-3.323-2.472-8.022-1.782-10.494 1.543-2.472 3.324-1.781 8.022 1.543 10.494 17.337 12.892 36.303 23.625 56.369 31.903 14.199 5.855 30.382.578 38.477-12.552l6.446-10.456 79.85 79.849c-25.76 26.925-64.096 39.143-101.372 30.841-54.983-12.25-111.627-45.359-159.498-93.23-47.875-47.875-80.987-104.522-93.235-159.507-8.304-37.278 3.914-75.612 30.837-101.372l79.859 79.859-10.447 6.441c-13.143 8.103-18.405 24.327-12.513 38.577 13.912 33.645 34.162 63.4 60.189 88.439 2.985 2.874 7.733 2.781 10.604-.204s2.78-7.733-.205-10.605c-24.525-23.595-43.611-51.643-56.727-83.361-3.065-7.414-.322-15.857 6.523-20.078l23.668-14.592c8.199-5.055 13.543-13.44 14.662-23.008 1.119-9.566-2.146-18.959-8.956-25.77l-57.921-57.921c-10.302-10.3-26.158-12.156-38.561-4.51-44.155 27.223-67.14 79.81-55.655 131.366 12.86 57.731 47.405 116.987 97.27 166.853 49.86 49.86 109.113 84.402 166.843 97.264 8.863 1.975 17.776 2.932 26.603 2.932 42.064.192 82.664-22.418 104.765-58.59 7.646-12.401 5.791-28.258-4.511-38.561zm-269.531-230.584c6.459-3.981 14.717-3.016 20.082 2.35l57.921 57.921c3.547 3.546 5.247 8.438 4.664 13.42s-3.366 9.35-7.636 11.982l-.098.06-81.402-81.402c2.095-1.509 4.246-2.96 6.469-4.331zm319.203 319.158c-.006.011-.013.021-.019.03-1.37 2.222-2.82 4.372-4.328 6.467l-81.394-81.393.061-.099c2.632-4.27 6.999-7.053 11.981-7.635 4.979-.59 9.874 1.116 13.421 4.664l57.912 57.912c5.357 5.357 6.328 13.599 2.366 20.054zm118.019-231.852c1.329-3.924-.774-8.181-4.697-9.51-3.924-1.33-8.181.774-9.51 4.697-.008.022-.046.137-.053.16-1.289 3.929.849 8.145 4.774 9.443 3.831 1.268 8.159-.794 9.476-4.761m6.888-29.741c.56-4.104-2.313-7.885-6.418-8.445-4.105-.564-7.885 2.314-8.444 6.418-.004.028-.02.151-.023.179-.552 4.413 2.954 8.411 7.448 8.411 3.708 0 6.934-2.762 7.434-6.534m-200.047 135.491c3.356 0 6.407-2.275 7.261-5.681 1.003-4-1.422-8.059-5.41-9.088-3.966-1.068-8.055 1.252-9.168 5.212-1.338 4.758 2.371 9.557 7.317 9.557zm28.705 4.667c3.932 0 7.225-3.064 7.469-7.042.252-4.116-2.876-7.661-6.985-7.941-4.082-.349-7.685 2.702-8.057 6.798-.401 4.418 3.142 8.185 7.573 8.185zm-56.029-14.654c2.82 0 5.521-1.603 6.795-4.329 1.745-3.733.142-8.176-3.572-9.948-3.673-1.803-8.126-.325-9.987 3.335-2.498 4.914 1.249 10.942 6.764 10.942zm209.553-182.552c1.012 4.048 5.065 6.516 9.014 5.59 4.033-.945 6.536-4.98 5.591-9.014-.009-.035-.04-.165-.049-.201-1.004-4.018-5.076-6.467-9.097-5.464-4.019 1.005-6.464 5.07-5.459 9.089zm11.114 19.493c-4.124.234-7.281 3.784-7.063 7.909.001.02.005.086.006.105.207 4.148 3.821 7.242 7.911 7.01 4.124-.234 7.281-3.784 7.063-7.909-.001-.02-.005-.086-.006-.105-.25-4.125-3.797-7.228-7.911-7.01zm-20.221-45.567c1.757 3.758 6.149 5.389 9.837 3.775 3.794-1.66 5.525-6.082 3.865-9.877-.017-.039-.04-.09-.061-.135-1.69-3.733-6.072-5.421-9.837-3.775-3.794 1.66-5.525 6.082-3.865 9.877.018.04.04.09.061.135zm-230.082 192.04c.001.001.002.001.003.002.036.028.111.085.147.111 3.317 2.421 8.042 1.818 10.526-1.536 2.465-3.328 1.801-7.999-1.528-10.464-.022-.017-.045-.03-.067-.046-.021-.016-.039-.034-.06-.049-18.22-13.41-33.328-31.092-43.691-51.134-10.858-20.999-16.364-43.72-16.364-67.533 0-38.812 14.97-75.438 42.153-103.133 27.146-27.658 63.409-43.313 102.109-44.08 4.141-.082 7.432-3.506 7.35-7.646-.083-4.091-3.424-7.352-7.497-7.352-.05 0-.101 0-.151.001-42.647.846-82.606 18.095-112.517 48.569-29.952 30.517-46.447 70.875-46.447 113.641 0 25.864 6.238 51.6 18.04 74.423 11.391 22.031 27.986 41.469 47.994 56.226zm225.468-273.381c0-4.143-3.358-7.5-7.5-7.5s-7.5 3.357-7.5 7.5v27.561c-22.703-22.528-51.602-37.958-83.134-44.087-4.068-.786-8.003 1.865-8.793 5.932-.79 4.065 1.865 8.003 5.932 8.793 29.273 5.689 56.054 20.217 76.87 41.448h-30.521c-4.142 0-7.5 3.357-7.5 7.5s3.358 7.5 7.5 7.5h46.583c2.691.375 8.087-2.244 8.063-7.5zm-136.761 153.485v-33.99c0-4.143-3.358-7.5-7.5-7.5s-7.5 3.357-7.5 7.5v33.99c0 4.143 3.358 7.5 7.5 7.5s7.5-3.358 7.5-7.5zm109.231 25.976v-25.254c0-8.64-6.392-15.795-14.692-17.037v-10.64c0-47.993-39.045-87.039-87.039-87.039s-87.039 39.046-87.039 87.039v10.64c-8.3 1.242-14.692 8.397-14.692 17.037v25.254c0 9.511 7.738 17.249 17.249 17.249h14.635c6.893 0 12.5-5.607 12.5-12.5v-34.751c-.014-7.775-7.034-13.45-14.692-12.5v-10.428c0-39.723 32.316-72.039 72.039-72.039s72.039 32.316 72.039 72.039v10.429c-7.658-.986-14.694 4.732-14.692 12.5v38.277c-2.474 5.844-7.035 13.743-15.18 20.463-3.339 2.754-6.976 5.068-10.867 6.923-3.544-6.493-10.436-10.909-18.341-10.909h-16.235c-11.514 0-20.88 9.366-20.88 20.88s9.367 20.88 20.88 20.88h16.235c9.581 0 17.655-6.494 20.102-15.306 6.78-2.629 13.043-6.271 18.651-10.896 9.049-7.465 14.64-16.043 18.03-23.06h14.74c9.511-.002 17.249-7.74 17.249-17.251zm-174.078 2.249h-12.135c-1.24 0-2.249-1.009-2.249-2.249v-25.254c0-1.239 1.009-2.248 2.249-2.248h12.135zm85.307 49.262h-16.235c-3.243 0-5.88-2.638-5.88-5.88s2.638-5.88 5.88-5.88h16.235c3.236 0 5.868 2.626 5.879 5.859v.038c-.009 3.235-2.642 5.863-5.879 5.863zm73.771-51.511c0 1.24-1.009 2.249-2.249 2.249h-12.135v-29.751h12.135c1.24 0 2.249 1.009 2.249 2.248zm-64.231-25.976v-33.99c0-4.143-3.358-7.5-7.5-7.5s-7.5 3.357-7.5 7.5v33.99c0 4.143 3.358 7.5 7.5 7.5s7.5-3.358 7.5-7.5zm100.902 83.066c-3.14-2.701-7.875-2.345-10.577.796-.05.059-.162.192-.21.252-2.603 3.223-2.101 7.944 1.122 10.548 3.173 2.564 7.807 2.092 10.48-1.041 2.681-3.141 2.318-7.86-.815-10.555zm-78.839 46.562c-3.948 1.253-6.132 5.47-4.879 9.418 1.268 3.994 5.559 6.111 9.418 4.879l.092-.029c3.948-1.253 6.086-5.455 4.833-9.403-1.253-3.949-5.516-6.117-9.464-4.865zm48.403-26.192c-3.198 2.633-3.655 7.359-1.022 10.557 2.646 3.212 7.378 3.642 10.557 1.021l.075-.062c3.198-2.633 3.618-7.329.984-10.526-2.632-3.196-7.396-3.623-10.594-.99zm-22.895 15.345c-3.63 1.923-5.041 6.416-3.149 10.072 1.925 3.721 6.501 5.109 10.107 3.217.06-.031.204-.108.262-.142 3.625-1.999 4.933-6.553 2.937-10.179-1.991-3.613-6.535-4.932-10.157-2.968zm-50.654 31.558c4.112-.498 7.042-4.235 6.543-8.348-.498-4.112-4.237-7.042-8.348-6.543-.005 0-.105.013-.11.014-4.111.506-7.034 4.248-6.528 8.359.509 4.133 4.313 7.041 8.36 6.527m119.361-92.006c-3.596-2.016-8.17-.708-10.208 2.876-2.048 3.601-.791 8.18 2.81 10.228 3.538 2.012 8.111.801 10.228-2.81.017-.028.08-.143.096-.171 1.99-3.611.671-8.109-2.926-10.123z" fill="#1764f4" fill-opacity="1" data-original-color="#000000ff" stroke="none" stroke-opacity="1"/></g></g></svg>