<svg id="Layer_1" enable-background="new 0 0 66 66" height="300" viewBox="0 0 66 66" width="300" xmlns="http://www.w3.org/2000/svg" version="1.1" xmlns:xlink="http://www.w3.org/1999/xlink" xmlns:svgjs="http://svgjs.dev/svgjs"><g width="100%" height="100%" transform="matrix(1,0,0,1,0,0)"><g><path d="m59.83 10.7h-4.52c-.51 0-.93.42-.93.93s.42.93.93.93h4.52c1.02 0 1.86.83 1.86 1.86v33.66h-57.38v-33.67c0-1.02.83-1.86 1.86-1.86h4.52c.51 0 .93-.42.93-.93s-.42-.93-.93-.93h-4.52c-2.05 0-3.71 1.67-3.71 3.71v38.11c0 2.05 1.67 3.71 3.71 3.71h18.5v5.54h-5.24c-.51 0-.93.42-.93.93s.42.93.93.93h27.15c.51 0 .93-.42.93-.93s-.42-.93-.93-.93h-5.24v-5.54h18.5c2.05 0 3.71-1.67 3.71-3.71v-38.1c0-2.05-1.67-3.71-3.72-3.71zm-20.35 51.07h-12.96v-5.54h12.96zm20.35-7.4h-53.66c-1.02 0-1.86-.83-1.86-1.86v-2.59h57.38v2.59c0 1.03-.83 1.86-1.86 1.86z" fill="#1764f4" fill-opacity="1" data-original-color="#000000ff" stroke="none" stroke-opacity="1"/><path d="m14.55 30.99c6.58-1.06 12.61.34 17.9 4.15.02.01.04.02.05.03.02.01.04.03.07.05.02.01.03 0 .05.01.12.05.24.09.37.09s.25-.04.37-.09c.02-.01.03 0 .05-.01s.04-.03.07-.05c.02-.01.04-.01.05-.03 5.3-3.82 11.32-5.21 17.9-4.15.27.04.54-.03.75-.21s.33-.43.33-.71v-26.2c0-.45-.32-.83-.76-.91-7.81-1.49-14.11-.14-18.75 3.97-4.64-4.11-10.95-5.45-18.77-3.97-.44.08-.76.47-.76.91v26.21c0 .27.12.53.33.71.21.17.48.24.75.2zm36.12-26.35v24.36c-6.07-.75-11.69.47-16.74 3.64v-24.06c4.12-3.84 9.61-5.13 16.74-3.94zm-35.34 0c7.13-1.2 12.62.09 16.74 3.94v24.07c-4.08-2.57-8.54-3.86-13.31-3.86-1.13 0-2.27.07-3.43.22z" fill="#1764f4" fill-opacity="1" data-original-color="#000000ff" stroke="none" stroke-opacity="1"/><path d="m18.69 10.31h.03c3.87 0 7.29.86 10.14 2.55.15.09.31.13.47.13.32 0 .63-.16.8-.46.26-.44.12-1.01-.33-1.27-3.15-1.87-6.88-2.81-11.09-2.81-.52 0-.96.41-.96.93.02.51.43.93.94.93z" fill="#1764f4" fill-opacity="1" data-original-color="#000000ff" stroke="none" stroke-opacity="1"/><path d="m18.69 17.2h.03c3.87 0 7.29.86 10.15 2.55.15.09.31.13.47.13.32 0 .63-.16.8-.46.26-.44.12-1.01-.33-1.27-3.15-1.87-6.88-2.81-11.09-2.81-.52 0-.96.41-.96.93.01.51.42.93.93.93z" fill="#1764f4" fill-opacity="1" data-original-color="#000000ff" stroke="none" stroke-opacity="1"/><path d="m29.34 26.77c.32 0 .63-.16.8-.46.26-.44.12-1.01-.33-1.27-3.15-1.87-6.88-2.81-11.09-2.81-.57 0-.96.41-.96.93 0 .51.42.93.93.93h.03c3.87 0 7.29.86 10.15 2.55.15.09.31.13.47.13z" fill="#1764f4" fill-opacity="1" data-original-color="#000000ff" stroke="none" stroke-opacity="1"/><path d="m36.66 12.99c.16 0 .32-.04.47-.13 2.95-1.75 6.5-2.61 10.51-2.55h.01c.51 0 .92-.41.93-.92s-.4-.93-.92-.94c-4.4-.07-8.24.89-11.48 2.81-.44.26-.59.83-.33 1.27.18.3.49.46.81.46z" fill="#1764f4" fill-opacity="1" data-original-color="#000000ff" stroke="none" stroke-opacity="1"/><path d="m36.66 19.88c.16 0 .32-.04.47-.13 2.95-1.75 6.47-2.61 10.51-2.55h.01c.51 0 .92-.41.93-.92s-.4-.93-.92-.94c-4.4-.07-8.24.89-11.48 2.81-.44.26-.59.83-.33 1.27.18.3.49.46.81.46z" fill="#1764f4" fill-opacity="1" data-original-color="#000000ff" stroke="none" stroke-opacity="1"/><path d="m47.67 22.24c-4.4-.07-8.24.89-11.48 2.81-.44.26-.59.83-.33 1.27.17.29.48.46.8.46.16 0 .32-.04.47-.13 2.95-1.75 6.5-2.61 10.51-2.55h.01c.51 0 .92-.41.93-.92.01-.52-.4-.94-.91-.94z" fill="#1764f4" fill-opacity="1" data-original-color="#000000ff" stroke="none" stroke-opacity="1"/><path d="m23.38 42.97c.51 0 .93-.42.93-.93v-.85h33.19c.51 0 .93-.42.93-.93s-.42-.93-.93-.93h-33.2v-.85c0-.51-.42-.93-.93-.93s-.93.42-.93.93v.85h-4.64c-.51 0-.93.42-.93.93s.42.93.93.93h4.64v.85c.01.51.42.93.94.93z" fill="#1764f4" fill-opacity="1" data-original-color="#000000ff" stroke="none" stroke-opacity="1"/><path d="m14.2 39.12-4.28-3.33c-.44-.34-1.02-.41-1.53-.16-.5.25-.81.75-.81 1.3v6.67c0 .56.31 1.06.81 1.3.2.1.42.15.64.15.32 0 .63-.1.89-.31l4.28-3.33c.35-.28.56-.69.56-1.14s-.21-.88-.56-1.15zm-4.77 3.65v-5.01l3.21 2.5z" fill="#1764f4" fill-opacity="1" data-original-color="#000000ff" stroke="none" stroke-opacity="1"/></g></g></svg>