<svg version="1.1" id="Capa_1" xmlns="http://www.w3.org/2000/svg" xmlns:xlink="http://www.w3.org/1999/xlink" x="0px" y="0px" viewBox="0 0 512.003 512.003" style="enable-background:new 0 0 512.003 512.003;" xml:space="preserve" width="300" height="300" xmlns:svgjs="http://svgjs.dev/svgjs"><g width="100%" height="100%" transform="matrix(1,0,0,1,0,0)"><g>
	
		<polyline style="stroke-linecap: round; stroke-linejoin: round; stroke-miterlimit: 10;" points="&#10;&#9;&#9;466.932,149.692 466.932,410.792 164.572,410.792 164.572,356.044 &#9;" fill="none" fill-opacity="1" stroke="#1764f4" stroke-opacity="1" data-original-stroke-color="#000000ff" stroke-width="15" data-original-stroke-width="15"/>
	<path style="stroke-linecap: round; stroke-linejoin: round; stroke-miterlimit: 10;" d="&#10;&#9;&#9;M164.572,142.142V28.952c0-11.85,9.61-21.45,21.45-21.45H375.79" fill="none" fill-opacity="1" stroke="#1764f4" stroke-opacity="1" data-original-stroke-color="#000000ff" stroke-width="15" data-original-stroke-width="15"/>
	<path style="stroke-linecap: round; stroke-linejoin: round; stroke-miterlimit: 10;" d="&#10;&#9;&#9;M491.03,149.688h-95.107c-1.98,0-3.887,0.747-5.34,2.092l-17.316,16.028c-4.175,3.865-10.951,0.903-10.951-4.786V20.975&#10;&#9;&#9;c0-7.441,6.032-13.473,13.473-13.473h115.24c7.441,0,13.473,6.032,13.473,13.473v115.24&#10;&#9;&#9;C504.503,143.656,498.471,149.688,491.03,149.688z" fill="none" fill-opacity="1" stroke="#1764f4" stroke-opacity="1" data-original-stroke-color="#000000ff" stroke-width="15" data-original-stroke-width="15"/>
	<path style="stroke-linecap: round; stroke-linejoin: round; stroke-miterlimit: 10;" d="&#10;&#9;&#9;M465.904,58.619c-8.032-8.625-21.541-8.806-29.804-0.544c-8.263-8.263-21.771-8.081-29.804,0.543&#10;&#9;&#9;c-7.651,8.215-7.063,21.149,0.875,29.087l21.129,21.129c4.307,4.307,11.291,4.307,15.599,0l21.129-21.129&#10;&#9;&#9;C472.967,79.768,473.555,66.834,465.904,58.619z" fill="none" fill-opacity="1" stroke="#1764f4" stroke-opacity="1" data-original-stroke-color="#000000ff" stroke-width="15" data-original-stroke-width="15"/>
	<path style="stroke-linecap: round; stroke-linejoin: round; stroke-miterlimit: 10;" d="&#10;&#9;&#9;M360.105,39.81h-88.706c-17.843,0-32.309-14.465-32.309-32.309v0h153.323" fill="none" fill-opacity="1" stroke="#1764f4" stroke-opacity="1" data-original-stroke-color="#000000ff" stroke-width="15" data-original-stroke-width="15"/>
	<path style="stroke-linecap: round; stroke-linejoin: round; stroke-miterlimit: 10;" d="&#10;&#9;&#9;M466.932,410.792v72.26c0,11.85-9.61,21.45-21.45,21.45h-259.46c-11.84,0-21.45-9.6-21.45-21.45v-72.26H466.932z" fill="none" fill-opacity="1" stroke="#1764f4" stroke-opacity="1" data-original-stroke-color="#000000ff" stroke-width="15" data-original-stroke-width="15"/>
	<path style="stroke-linecap: round; stroke-linejoin: round; stroke-miterlimit: 10;" d="&#10;&#9;&#9;M339.999,475.916h-48.874c-10.09,0-18.269-8.179-18.269-18.269v0c0-10.09,8.179-18.269,18.269-18.269h48.874&#10;&#9;&#9;c10.09,0,18.269,8.179,18.269,18.269v0C358.268,467.736,350.088,475.916,339.999,475.916z" fill="none" fill-opacity="1" stroke="#1764f4" stroke-opacity="1" data-original-stroke-color="#000000ff" stroke-width="15" data-original-stroke-width="15"/>
	<path style="stroke-linecap: round; stroke-linejoin: round; stroke-miterlimit: 10;" d="&#10;&#9;&#9;M57.401,282.527h-37.53c-6.832,0-12.371-5.539-12.371-12.371v-80.188c0-6.832,5.539-12.371,12.371-12.371h37.53V282.527z" fill="none" fill-opacity="1" stroke="#1764f4" stroke-opacity="1" data-original-stroke-color="#000000ff" stroke-width="15" data-original-stroke-width="15"/>
	<path style="stroke-linecap: round; stroke-linejoin: round; stroke-miterlimit: 10;" d="&#10;&#9;&#9;M341.361,264.184h-20.96V195.94h20.96c6.349,0,11.495,5.146,11.495,11.495v45.254C352.856,259.037,347.71,264.184,341.361,264.184z&#10;&#9;&#9;" fill="none" fill-opacity="1" stroke="#1764f4" stroke-opacity="1" data-original-stroke-color="#000000ff" stroke-width="15" data-original-stroke-width="15"/>
	<path style="stroke-linecap: round; stroke-linejoin: round; stroke-miterlimit: 10;" d="&#10;&#9;&#9;M127.762,305.806v73.965c0,5.924-4.802,10.726-10.726,10.726H97.027c-5.924,0-10.726-4.802-10.726-10.726v-87.68" fill="none" fill-opacity="1" stroke="#1764f4" stroke-opacity="1" data-original-stroke-color="#000000ff" stroke-width="15" data-original-stroke-width="15"/>
	
		<polygon style="stroke-linecap: round; stroke-linejoin: round; stroke-miterlimit: 10;" points="&#10;&#9;&#9;239.587,117.327 239.587,342.796 57.4,282.53 57.4,177.593 &#9;" fill="none" fill-opacity="1" stroke="#1764f4" stroke-opacity="1" data-original-stroke-color="#000000ff" stroke-width="15" data-original-stroke-width="15"/>
	<path style="stroke-linecap: round; stroke-linejoin: round; stroke-miterlimit: 10;" d="&#10;&#9;&#9;M320.405,323.008v14.823c0,15.604-15.278,26.643-30.092,21.741l-50.726-16.775V117.327l50.726-16.775&#10;&#9;&#9;c14.815-4.902,30.092,6.136,30.092,21.741v165.426" fill="none" fill-opacity="1" stroke="#1764f4" stroke-opacity="1" data-original-stroke-color="#000000ff" stroke-width="15" data-original-stroke-width="15"/>
	
		<polyline style="stroke-linecap: round; stroke-linejoin: round; stroke-miterlimit: 10;" points="&#10;&#9;&#9;425.869,149.692 425.869,410.792 205.635,410.792 205.635,331.565 &#9;" fill="none" fill-opacity="1" stroke="#1764f4" stroke-opacity="1" data-original-stroke-color="#000000ff" stroke-width="15" data-original-stroke-width="15"/>
	<path style="stroke-linecap: round; stroke-linejoin: round; stroke-miterlimit: 10;" d="&#10;&#9;&#9;M205.635,128.544V86.543c0-7.904,6.407-14.311,14.311-14.311h104.059" fill="none" fill-opacity="1" stroke="#1764f4" stroke-opacity="1" data-original-stroke-color="#000000ff" stroke-width="15" data-original-stroke-width="15"/>
</g><g>
</g><g>
</g><g>
</g><g>
</g><g>
</g><g>
</g><g>
</g><g>
</g><g>
</g><g>
</g><g>
</g><g>
</g><g>
</g><g>
</g><g>
</g></g></svg>