<svg id="Layer_5" enable-background="new 0 0 64 64" height="300" viewBox="0 0 64 64" width="300" xmlns="http://www.w3.org/2000/svg" version="1.1" xmlns:xlink="http://www.w3.org/1999/xlink" xmlns:svgjs="http://svgjs.dev/svgjs"><g width="100%" height="100%" transform="matrix(1,0,0,1,0,0)"><g><path d="m11 45h2v2h-2z" fill="#1764f4" fill-opacity="1" data-original-color="#000000ff" stroke="none" stroke-opacity="1"/><path d="m15 45h2v2h-2z" fill="#1764f4" fill-opacity="1" data-original-color="#000000ff" stroke="none" stroke-opacity="1"/><path d="m7 45h2v2h-2z" fill="#1764f4" fill-opacity="1" data-original-color="#000000ff" stroke="none" stroke-opacity="1"/><path d="m58 9h-3.056c.03-.255.056-.51.056-.769v-.231c0-2.061-1.566-3.762-3.57-3.977-2.072-1.952-4.766-3.023-7.625-3.023-2.016 0-3.996.548-5.725 1.586-1.9 1.14-3.08 3.224-3.08 5.44v.205c0 .259.026.514.056.769h-29.056c-2.757 0-5 2.243-5 5v32c0 2.757 2.243 5 5 5h17.962c-.168 1.595-.997 3.041-2.296 4h-4.666c-1.654 0-3 1.346-3 3v2c0 1.654 1.346 3 3 3h30c1.654 0 3-1.346 3-3v-2c0-1.654-1.346-3-3-3h-4.666c-1.299-.959-2.128-2.405-2.296-4h17.962c2.757 0 5-2.243 5-5v-32c0-2.757-2.243-5-5-5zm0 2c1.654 0 3 1.346 3 3v27h-2v-12.403c0-2.6-1.445-4.938-3.77-6.1-.608-.304-1.257-.516-1.929-.628l-4.301-.716v-1.701c.987-.886 1.677-2.09 1.909-3.452h1.091c1.654 0 3-1.346 3-3 0-.714-.261-1.361-.679-1.877.02-.042.045-.081.065-.123zm-9.565 12.086.413.069-.586 4.692-1.941-1.941zm-3.435-4.093c-2.206 0-4-1.794-4-4v-3.043c1.466-.153 2.843-.712 4-1.622 1.157.91 2.534 1.469 4 1.622v3.043c0 2.205-1.794 4-4 4zm0 2c.702 0 1.373-.128 2-.35v1.024l-2 2.667-2-2.667v-1.024c.627.222 1.298.35 2 .35zm-3.435 2.093 2.115 2.82-1.941 1.941-.586-4.692zm-2.387.398 1.083 8.669 4.739-4.739 4.739 4.739 1.083-8.669 2.15.358c.476.08.934.229 1.364.444 1.643.822 2.664 2.474 2.664 4.311v12.403h-24v-12.403c0-1.837 1.021-3.489 2.665-4.312.429-.215.888-.364 1.363-.443zm11.822-11.484h1c.551 0 1 .449 1 1s-.449 1-1 1h-1zm-14-3.974c0-1.517.808-2.944 2.109-3.725 1.418-.851 3.042-1.301 4.696-1.301 2.438 0 4.73.949 6.488 2.707l.293.293h.414c1.103 0 2 .897 2 2v.231c0 .637-.138 1.257-.391 1.832-.197-.041-.4-.063-.609-.063h-1v-.007h-1.171c-1.557 0-3.021-.606-4.122-1.707l-.707-.707-.707.707c-1.101 1.101-2.564 1.707-4.122 1.707h-1.171v.007h-1c-.209 0-.412.022-.609.063-.253-.575-.391-1.195-.391-1.832zm1 5.974c-.551 0-1-.449-1-1s.449-1 1-1h1v2zm-32-3h29.614c.02.042.044.081.065.123-.418.515-.679 1.163-.679 1.877 0 1.654 1.346 3 3 3h1.091c.232 1.362.922 2.566 1.909 3.452v1.701l-4.302.717c-.672.112-1.321.324-1.928.627-2.325 1.163-3.77 3.5-3.77 6.1v12.403h-28v-27c0-1.654 1.346-3 3-3zm42 47v2c0 .551-.449 1-1 1h-30c-.551 0-1-.449-1-1v-2c0-.551.449-1 1-1h30c.551 0 1 .449 1 1zm-8.47-3h-15.06c.858-1.155 1.378-2.536 1.492-4h12.075c.115 1.464.635 2.845 1.493 4zm18.47-6h-52c-1.654 0-3-1.346-3-3v-3h58v3c0 1.654-1.346 3-3 3z" fill="#1764f4" fill-opacity="1" data-original-color="#000000ff" stroke="none" stroke-opacity="1"/><path d="m13.618 27c.404 0 .809-.096 1.171-.276l4.763-2.382c.893-.446 1.448-1.343 1.448-2.342s-.555-1.896-1.447-2.342l-4.764-2.382c-.362-.18-.767-.276-1.171-.276-1.444 0-2.618 1.174-2.618 2.618v4.764c0 1.444 1.174 2.618 2.618 2.618zm-.618-7.382c0-.341.277-.618.618-.618.095 0 .191.022.276.065l4.764 2.382c.211.106.342.317.342.553s-.131.447-.342.553l-4.764 2.382c-.39.195-.894-.117-.894-.553z" fill="#1764f4" fill-opacity="1" data-original-color="#000000ff" stroke="none" stroke-opacity="1"/><path d="m8 31h16c1.654 0 3-1.346 3-3v-12c0-1.654-1.346-3-3-3h-16c-1.654 0-3 1.346-3 3v12c0 1.654 1.346 3 3 3zm-1-15c0-.551.449-1 1-1h16c.551 0 1 .449 1 1v12c0 .551-.449 1-1 1h-16c-.551 0-1-.449-1-1z" fill="#1764f4" fill-opacity="1" data-original-color="#000000ff" stroke="none" stroke-opacity="1"/><path d="m5 33h2v2h-2z" fill="#1764f4" fill-opacity="1" data-original-color="#000000ff" stroke="none" stroke-opacity="1"/><path d="m9 33h18v2h-18z" fill="#1764f4" fill-opacity="1" data-original-color="#000000ff" stroke="none" stroke-opacity="1"/><path d="m5 37h22v2h-22z" fill="#1764f4" fill-opacity="1" data-original-color="#000000ff" stroke="none" stroke-opacity="1"/></g></g></svg>