<svg xmlns="http://www.w3.org/2000/svg" xmlns:xlink="http://www.w3.org/1999/xlink" version="1.1" id="Capa_1" x="0px" y="0px" viewBox="0 0 512 512" style="enable-background:new 0 0 512 512;" xml:space="preserve" width="300" height="300" xmlns:svgjs="http://svgjs.dev/svgjs"><g width="100%" height="100%" transform="matrix(1,0,0,1,0,0)"><g>
	<path style="stroke-miterlimit: 10;" d="M226,287c0-16.569,13.431-30,30-30&#10;&#9;&#9;s30,13.431,30,30c0,9.918-4.813,18.713-12.231,24.174C262.621,319.382,256,332.449,256,346.292V347" fill="none" fill-opacity="1" stroke="#1764f4" stroke-opacity="1" data-original-stroke-color="#000000ff" stroke-width="30" data-original-stroke-width="30"/>
	<line style="stroke-miterlimit: 10;" x1="256" y1="392" x2="256" y2="362" fill="none" fill-opacity="1" stroke="#1764f4" stroke-opacity="1" data-original-stroke-color="#000000ff" stroke-width="30" data-original-stroke-width="30"/>
	<circle style="stroke-miterlimit: 10;" cx="256" cy="317" r="120" fill="none" fill-opacity="1" stroke="#1764f4" stroke-opacity="1" data-original-stroke-color="#000000ff" stroke-width="30" data-original-stroke-width="30"/>
	<path style="stroke-miterlimit: 10;" d="M75,407H45c-16.569,0-30-13.431-30-30V257&#10;&#9;&#9;c0-16.569,13.431-30,30-30h30V407z" fill="none" fill-opacity="1" stroke="#1764f4" stroke-opacity="1" data-original-stroke-color="#000000ff" stroke-width="30" data-original-stroke-width="30"/>
	<path style="stroke-miterlimit: 10;" d="M497,377c0,16.569-13.431,30-30,30h-30V227h30&#10;&#9;&#9;c16.569,0,30,13.431,30,30V377z" fill="none" fill-opacity="1" stroke="#1764f4" stroke-opacity="1" data-original-stroke-color="#000000ff" stroke-width="30" data-original-stroke-width="30"/>
	<path style="stroke-miterlimit: 10;" d="M45,227v-92C45,68.726,98.726,15,165,15h182&#10;&#9;&#9;c66.274,0,120,53.726,120,120v92" fill="none" fill-opacity="1" stroke="#1764f4" stroke-opacity="1" data-original-stroke-color="#000000ff" stroke-width="30" data-original-stroke-width="30"/>
	<path style="stroke-miterlimit: 10;" d="M467,165h-60v-30c0-33.091-26.909-60-60-60H165&#10;&#9;&#9;c-33.091,0-60,26.909-60,60v30H45" fill="none" fill-opacity="1" stroke="#1764f4" stroke-opacity="1" data-original-stroke-color="#000000ff" stroke-width="30" data-original-stroke-width="30"/>
	<path style="stroke-miterlimit: 10;" d="M467,407v30c0,33.137-26.863,60-60,60H241" fill="none" fill-opacity="1" stroke="#1764f4" stroke-opacity="1" data-original-stroke-color="#000000ff" stroke-width="30" data-original-stroke-width="30"/>
</g></g></svg>