<svg id="Capa_1" enable-background="new 0 0 512 512" height="300" viewBox="0 0 512 512" width="300" xmlns="http://www.w3.org/2000/svg" version="1.1" xmlns:xlink="http://www.w3.org/1999/xlink" xmlns:svgjs="http://svgjs.dev/svgjs"><g width="100%" height="100%" transform="matrix(1,0,0,1,0,0)"><path d="m0 410.155h512v-78.66h-512zm256-54.642c8.409 0 14.636 6.873 15 15 .363 8.101-7.154 15-15 15-8.409 0-14.636-6.873-15-15-.363-8.101 7.154-15 15-15z" fill="#1764f4" fill-opacity="1" data-original-color="#000000ff" stroke="none" stroke-opacity="1"/><path d="m256 108.121c-31.416 0-56.975 25.559-56.975 56.975s25.559 56.974 56.975 56.974 56.975-25.559 56.975-56.975-25.559-56.974-56.975-56.974zm-12.88 87.248v-63.911l46.867 34.087z" fill="#1764f4" fill-opacity="1" data-original-color="#000000ff" stroke="none" stroke-opacity="1"/><path d="m471.997.155v176.575l-44.192-33.129-44.192 33.128v-176.574h-383.613v301.34h512v-301.34zm-215.997 251.915c-47.958 0-86.975-39.017-86.975-86.975s39.017-86.974 86.975-86.974 86.975 39.017 86.975 86.975-39.017 86.974-86.975 86.974z" fill="#1764f4" fill-opacity="1" data-original-color="#000000ff" stroke="none" stroke-opacity="1"/><path d="m413.613 116.747 14.192-10.64 14.192 10.639v-116.591h-28.384z" fill="#1764f4" fill-opacity="1" data-original-color="#000000ff" stroke="none" stroke-opacity="1"/><path d="m323.893 440.155h-136.48c-2.612 23.418-22.521 41.69-46.625 41.69h-26.274v30h282.278v-30h-26.274c-24.105 0-44.013-18.272-46.625-41.69z" fill="#1764f4" fill-opacity="1" data-original-color="#000000ff" stroke="none" stroke-opacity="1"/></g></svg>