<svg id="Layer_1" enable-background="new 0 0 128 128" viewBox="0 0 128 128" xmlns="http://www.w3.org/2000/svg" width="300" height="300" version="1.1" xmlns:xlink="http://www.w3.org/1999/xlink" xmlns:svgjs="http://svgjs.dev/svgjs"><g width="100%" height="100%" transform="matrix(1,0,0,1,0,0)"><g id="XMLID_25_" fill="#363636"><path id="XMLID_526_" d="m4.8 124h28c1.3 0 2.3-1.2 1.9-2.5-1.8-7.1-8.3-12.4-15.9-12.4-7.7 0-14.1 5.3-15.9 12.4-.4 1.2.6 2.5 1.9 2.5z" fill="#1764f4" fill-opacity="1" data-original-color="#363636ff" stroke="none" stroke-opacity="1"/><path id="XMLID_527_" d="m38.7 121.5c-.3 1.3.6 2.5 1.9 2.5h28c1.3 0 2.3-1.2 1.9-2.5-1.8-7.1-8.3-12.4-15.9-12.4-7.7-.1-14.1 5.2-15.9 12.4z" fill="#1764f4" fill-opacity="1" data-original-color="#363636ff" stroke="none" stroke-opacity="1"/><path id="XMLID_528_" d="m74.5 121.5c-.3 1.3.6 2.5 1.9 2.5h28c1.3 0 2.3-1.2 1.9-2.5-1.8-7.1-8.3-12.4-15.9-12.4-7.6-.1-14.1 5.2-15.9 12.4z" fill="#1764f4" fill-opacity="1" data-original-color="#363636ff" stroke="none" stroke-opacity="1"/><path id="XMLID_531_" d="m74.1 37.9c0 1.2-.4 2.9-1.5 4-1 1-2.3 1.5-3.7 1.5h-1.2v4.8c0 1.1.9 2 2 2h53.5c1.1 0 2-.9 2-2v-42.2c0-1.1-.9-2-2-2h-53.4c-1.1 0-2 .9-2 2v26.5h1.1c2.9 0 5.2 2.4 5.2 5.4zm.2-11.2c.6-.5 1.6-.5 2.1.2l5.5 6.5 9.3-8.9c.5-.5 1.2-.5 1.8-.2l7.6 4.4 9.4-9.4-1.8-1.8c-.4-.4-.5-.9-.4-1.4s.5-.9 1.1-1.1l8.3-2.2c.5-.1 1.1 0 1.4.4.4.4.5.9.4 1.4l-2.2 8.3c-.1.5-.5.9-1.1 1.1-.1 0-.3.1-.4.1-.4 0-.8-.2-1.1-.4l-2.1-2.1-10.1 10c-.5.5-1.2.6-1.8.2l-7.6-4.4-9.7 9.2c-.3.3-.7.4-1 .4h-.1c-.4 0-.8-.2-1.1-.5l-6.5-7.7c-.6-.6-.5-1.6.1-2.1z" fill="#1764f4" fill-opacity="1" data-original-color="#363636ff" stroke="none" stroke-opacity="1"/><circle id="XMLID_532_" cx="18.8" cy="97.2" r="9" fill="#1764f4" fill-opacity="1" data-original-color="#363636ff" stroke="none" stroke-opacity="1"/><circle id="XMLID_533_" cx="90.5" cy="97.2" r="9" fill="#1764f4" fill-opacity="1" data-original-color="#363636ff" stroke="none" stroke-opacity="1"/><path id="XMLID_534_" d="m24.3 50.2c.5.5 1.1.7 1.7.7.9 0 1.8-.5 2.2-1.4 2.1-4.5 4.9-8.9 8.1-11.9v13.7l-2.5 24.7-.8 6.6c-.2 1.9 1.2 3.5 3 3.7h.3c1.7 0 3.2-1.3 3.4-3.1v-.4c0-.1.1-.2.1-.3l3.2-30.6h3.9l2.5 24.7.7 6.7c.2 1.7 1.6 3.1 3.4 3.1h.3c1.2-.1 2.2-.8 2.7-1.8.3-.5.5-1.2.4-1.9l-1.3-12.7-1.9-18.8v-13.1l2.7 2.3h9.9 2.7c.6 0 1.2-.2 1.6-.7.4-.4.6-1.3.6-1.9 0-1.4-1-2.4-2.2-2.4h-2.6l-8.4.2-2.6-2.7c-2.7-3.4-6.8-5.4-11.2-5.4 0 0 0 0-.1 0h-.2c-3.9 0-7.7 1.6-10.4 4.5-3.9 4.2-7.3 9.8-9.9 15.3-.3.9-.1 2.1.7 2.9z" fill="#1764f4" fill-opacity="1" data-original-color="#363636ff" stroke="none" stroke-opacity="1"/><circle id="XMLID_535_" cx="54.6" cy="97.2" r="9" fill="#1764f4" fill-opacity="1" data-original-color="#363636ff" stroke="none" stroke-opacity="1"/><circle id="XMLID_536_" cx="45" cy="19.4" r="5.4" fill="#1764f4" fill-opacity="1" data-original-color="#363636ff" stroke="none" stroke-opacity="1"/></g></g></svg>