<svg id="Capa_1" enable-background="new 0 0 510 510" height="300" viewBox="0 0 510 510" width="300" xmlns="http://www.w3.org/2000/svg" version="1.1" xmlns:xlink="http://www.w3.org/1999/xlink" xmlns:svgjs="http://svgjs.dev/svgjs"><g width="100%" height="100%" transform="matrix(1,0,0,1,0,0)"><g><path d="m21.507 412.5c-13.29 13.539-21.507 32.075-21.507 52.5v45h150v-45c0-20.425-8.217-38.961-21.507-52.5-29.425 29.975-77.51 30.028-106.986 0z" fill="#1764f4" fill-opacity="1" data-original-color="#000000ff" stroke="none" stroke-opacity="1"/><circle cx="75" cy="360" r="45" fill="#1764f4" fill-opacity="1" data-original-color="#000000ff" stroke="none" stroke-opacity="1"/><path d="m201.507 412.5c-13.29 13.539-21.507 32.075-21.507 52.5v45h150v-45c0-20.425-8.217-38.961-21.507-52.5-29.425 29.975-77.51 30.028-106.986 0z" fill="#1764f4" fill-opacity="1" data-original-color="#000000ff" stroke="none" stroke-opacity="1"/><circle cx="255" cy="360" r="45" fill="#1764f4" fill-opacity="1" data-original-color="#000000ff" stroke="none" stroke-opacity="1"/><path d="m381.507 412.5c-13.29 13.539-21.507 32.075-21.507 52.5v45h150v-45c0-20.425-8.217-38.961-21.507-52.5-29.425 29.975-77.51 30.028-106.986 0z" fill="#1764f4" fill-opacity="1" data-original-color="#000000ff" stroke="none" stroke-opacity="1"/><circle cx="435" cy="360" r="45" fill="#1764f4" fill-opacity="1" data-original-color="#000000ff" stroke="none" stroke-opacity="1"/><path d="m135 155.58c9.605-9.306 15-21.73 15-35.58h-30c0 13.85 5.394 26.273 15 35.58z" fill="#1764f4" fill-opacity="1" data-original-color="#000000ff" stroke="none" stroke-opacity="1"/><path d="m375 90c-16.542 0-30 13.458-30 30v15h60v-15c0-16.542-13.458-30-30-30z" fill="#1764f4" fill-opacity="1" data-original-color="#000000ff" stroke="none" stroke-opacity="1"/><path d="m0 0v270h510v-270zm210 120h-30c0 19.067-6.615 36.737-18.322 50.797l27.845 11.463-11.42 27.741c-36.6-15.193-37.179-15.042-43.102-18.059-6.134 3.124-7.798 3.404-43.103 18.059l-11.42-27.741 27.845-11.463c-11.708-14.06-18.323-31.73-18.323-50.797h-30v-30h60v-30h30v30h60zm60 30h-30v-30h30zm165 60h-30v-45h-60v45h-30v-90c0-33.084 26.916-60 60-60s60 26.916 60 60z" fill="#1764f4" fill-opacity="1" data-original-color="#000000ff" stroke="none" stroke-opacity="1"/></g></g></svg>