<svg id="Capa_1" enable-background="new 0 0 510 510" height="300" viewBox="0 0 510 510" width="300" xmlns="http://www.w3.org/2000/svg" version="1.1" xmlns:xlink="http://www.w3.org/1999/xlink" xmlns:svgjs="http://svgjs.dev/svgjs"><g width="100%" height="100%" transform="matrix(1,0,0,1,0,0)"><g><path d="m52.5 0c-28.948 0-52.5 23.551-52.5 52.5v405c0 28.948 23.552 52.5 52.5 52.5h337.5v-30h-30v-45h30v-435c-10.376 0-329.854 0-337.5 0zm-22.5 52.5c0-12.407 10.094-22.5 22.5-22.5h22.5v375h-22.5c-7.969 0-15.758 1.86-22.5 5.069zm300 427.5h-277.5c-12.406 0-22.5-10.094-22.5-22.5s10.094-22.5 22.5-22.5h277.5zm30-450v375h-255v-375z" fill="#1764f4" fill-opacity="1" data-original-color="#000000ff" stroke="none" stroke-opacity="1"/><path d="m330 60h-195v150h195zm-30 120h-135v-90h135z" fill="#1764f4" fill-opacity="1" data-original-color="#000000ff" stroke="none" stroke-opacity="1"/><path d="m195 120h75v30h-75z" fill="#1764f4" fill-opacity="1" data-original-color="#000000ff" stroke="none" stroke-opacity="1"/><path d="m255 345h75v30h-75z" fill="#1764f4" fill-opacity="1" data-original-color="#000000ff" stroke="none" stroke-opacity="1"/><path d="m255 285h75v30h-75z" fill="#1764f4" fill-opacity="1" data-original-color="#000000ff" stroke="none" stroke-opacity="1"/><path d="m465 19.611-45 112.5v332.889c0 24.814 20.186 45 45 45s45-20.186 45-45v-332.889zm-15 140.831c9.516 2.558 19.837 2.732 30 0v259.558h-30zm26.755-30.666c-7.417 3.51-16.093 3.51-23.51 0l11.755-29.387zm-11.755 350.224c-8.272 0-15-6.728-15-15v-15h30v15c0 8.272-6.728 15-15 15z" fill="#1764f4" fill-opacity="1" data-original-color="#000000ff" stroke="none" stroke-opacity="1"/></g></g></svg>